SplineFontDB: 3.2
FontName: CMUTypewriterScaled-Bold
FullName: CMU Typewriter Scaled Bold
FamilyName: CMU Typewriter Scaled Bold
Weight: Bold
Copyright: An edit of CMU Serif Italic and some AMS glyphs to be compatible with JuliaMono
Version: 0.044; ttfautohint (v1.8.4)
ItalicAngle: -9
UnderlinePosition: -250
UnderlineWidth: 100
Ascent: 1600
Descent: 400
InvalidEm: 0
sfntRevision: 0x00000b43
LayerCount: 2
Layer: 0 1 "Back" 1
Layer: 1 1 "Fore" 0
XUID: [1021 821 -1512940191 1964]
StyleMap: 0x0001
FSType: 0
OS2Version: 4
OS2_WeightWidthSlopeOnly: 0
OS2_UseTypoMetrics: 1
CreationTime: 1643970042
ModificationTime: 1658087557
PfmFamily: 17
TTFWeight: 400
TTFWidth: 5
LineGap: 0
VLineGap: 0
Panose: 2 11 6 9 6 3 0 2 0 4
OS2TypoAscent: 1900
OS2TypoAOffset: 0
OS2TypoDescent: -480
OS2TypoDOffset: 0
OS2TypoLinegap: 0
OS2WinAscent: 2400
OS2WinAOffset: 0
OS2WinDescent: 600
OS2WinDOffset: 0
HheadAscent: 1900
HheadAOffset: 0
HheadDescent: -480
HheadDOffset: 0
OS2SubXSize: 1300
OS2SubYSize: 1200
OS2SubXOff: 0
OS2SubYOff: 150
OS2SupXSize: 1300
OS2SupYSize: 1200
OS2SupXOff: 0
OS2SupYOff: 700
OS2StrikeYSize: 100
OS2StrikeYPos: 1100
OS2CapHeight: 1450
OS2XHeight: 1100
OS2Vendor: 'UKWN'
OS2CodePages: 602801bf.00000000
OS2UnicodeRanges: e501ffff.fac5ffff.0f04e877.05c0a06c
Lookup: 1 0 0 "'aalt' Access All Alternates lookup 0" { "'aalt' Access All Alternates lookup 0 subtable"  } ['aalt' ('DFLT' <'dflt' > 'cyrl' <'BGR ' 'SRB ' 'dflt' > 'hebr' <'IWR ' 'dflt' > 'latn' <'AZE ' 'CAT ' 'CRT ' 'KAZ ' 'MOL ' 'NLD ' 'ROM ' 'TAT ' 'TRK ' 'dflt' > ) ]
Lookup: 3 0 0 "'aalt' Access All Alternates lookup 1" { "'aalt' Access All Alternates lookup 1 subtable"  } ['aalt' ('DFLT' <'dflt' > 'cyrl' <'BGR ' 'SRB ' 'dflt' > 'hebr' <'IWR ' 'dflt' > 'latn' <'AZE ' 'CAT ' 'CRT ' 'KAZ ' 'MOL ' 'NLD ' 'ROM ' 'TAT ' 'TRK ' 'dflt' > ) ]

StartChar: A
Encoding: 65 65 0
Width: 1200
VWidth: 2287
GlyphClass: 2
Flags: W
LayerCount: 2
Fore
SplineSet
61.4345703125 87.1259765625 m 0,0,1
 59.201171875 172.017578125 59.201171875 172.017578125 148.560546875 172.017578125 c 2,2,-1
 203.293945312 172.017578125 l 1,3,-1
 224.516601562 272.547851562 l 1,4,-1
 455.736328125 1318.05957031 l 2,5,6
 462.438476562 1343.75097656 462.438476562 1343.75097656 465.7890625 1354.92089844 c 128,-1,7
 469.139648438 1366.09082031 469.139648438 1366.09082031 480.309570312 1383.96289062 c 128,-1,8
 491.48046875 1401.83496094 491.48046875 1401.83496094 512.14453125 1409.09570312 c 128,-1,9
 532.80859375 1416.35644531 532.80859375 1416.35644531 565.202148438 1416.35644531 c 2,10,-1
 640.041015625 1416.35644531 l 2,11,12
 679.135742188 1416.35644531 679.135742188 1416.35644531 703.151367188 1396.80859375 c 128,-1,13
 727.166992188 1377.26074219 727.166992188 1377.26074219 733.310546875 1361.06445312 c 128,-1,14
 739.454101562 1344.86816406 739.454101562 1344.86816406 743.921875 1318.05957031 c 2,15,-1
 969.555664062 285.952148438 l 2,16,17
 982.959960938 226.750976562 982.959960938 226.750976562 995.247070312 172.017578125 c 1,18,-1
 1045.51171875 172.017578125 l 2,19,20
 1139.33984375 172.017578125 1139.33984375 172.017578125 1137.10644531 87.1259765625 c 0,21,22
 1137.10644531 0 1137.10644531 0 1047.74609375 0 c 2,23,-1
 764.028320312 0 l 2,24,25
 672.43359375 0 672.43359375 0 672.43359375 80.423828125 c 0,26,27
 672.43359375 172.017578125 672.43359375 172.017578125 761.793945312 172.017578125 c 2,28,-1
 798.655273438 172.017578125 l 1,29,-1
 761.793945312 342.918945312 l 1,30,-1
 434.512695312 342.918945312 l 1,31,-1
 399.885742188 172.017578125 l 1,32,-1
 434.512695312 172.017578125 l 2,33,34
 523.873046875 172.017578125 523.873046875 172.017578125 523.873046875 87.1259765625 c 0,35,36
 523.873046875 0 523.873046875 0 434.512695312 0 c 2,37,-1
 148.560546875 0 l 2,38,39
 61.4345703125 0 61.4345703125 0 61.4345703125 79.306640625 c 0,40,41
 61.4345703125 82.658203125 61.4345703125 82.658203125 61.4345703125 87.1259765625 c 0,0,1
473.608398438 514.936523438 m 1,42,-1
 724.932617188 514.936523438 l 1,43,44
 718.231445312 554.032226562 718.231445312 554.032226562 685.279296875 713.762695312 c 128,-1,45
 652.328125 873.494140625 652.328125 873.494140625 627.1953125 1015.35253906 c 128,-1,46
 602.063476562 1157.21191406 602.063476562 1157.21191406 599.829101562 1237.63574219 c 1,47,48
 593.126953125 1139.33984375 593.126953125 1139.33984375 565.202148438 984.635742188 c 128,-1,49
 537.27734375 829.930664062 537.27734375 829.930664062 506.559570312 681.370117188 c 128,-1,50
 475.841796875 532.80859375 475.841796875 532.80859375 473.608398438 514.936523438 c 1,42,-1
EndSplineSet
Validated: 524833
Substitution2: "Single Substitution lookup 63 subtable" ordfeminine
Substitution2: "'fwid' Full Widths lookup 32 subtable" uniFF21
Substitution2: "'c2sc' Capitals to Small Capitals lookup 26 subtable" a.sc
AlternateSubs2: "'aalt' Access All Alternates lookup 1 subtable" ordfeminine a.sc uniFF21
EndChar

StartChar: B
Encoding: 66 66 1
Width: 1200
VWidth: 2287
GlyphClass: 2
Flags: W
LayerCount: 2
Fore
SplineSet
36.861328125 91.59375 m 0,0,1
 36.861328125 172.017578125 36.861328125 172.017578125 121.752929688 172.017578125 c 2,2,-1
 192.124023438 172.017578125 l 1,3,-1
 192.124023438 1224.23242188 l 1,4,-1
 130.689453125 1224.23242188 l 2,5,6
 102.763671875 1224.23242188 102.763671875 1224.23242188 86.5673828125 1227.58300781 c 128,-1,7
 70.37109375 1230.93359375 70.37109375 1230.93359375 53.6162109375 1250.48144531 c 128,-1,8
 36.861328125 1270.02929688 36.861328125 1270.02929688 36.861328125 1308.00683594 c 0,9,10
 36.861328125 1397.3671875 36.861328125 1397.3671875 121.752929688 1397.3671875 c 2,11,-1
 659.030273438 1397.3671875 l 2,12,13
 770.73046875 1397.3671875 770.73046875 1397.3671875 853.387695312 1362.18164062 c 128,-1,14
 936.045898438 1326.99609375 936.045898438 1326.99609375 976.81640625 1269.47070312 c 128,-1,15
 1017.58691406 1211.9453125 1017.58691406 1211.9453125 1036.01757812 1154.97753906 c 128,-1,16
 1054.44824219 1098.01074219 1054.44824219 1098.01074219 1054.44824219 1038.80957031 c 0,17,18
 1054.44824219 814.29296875 1054.44824219 814.29296875 832.165039062 731.634765625 c 1,19,20
 962.853515625 701.475585938 962.853515625 701.475585938 1032.66601562 610.440429688 c 128,-1,21
 1102.47851562 519.405273438 1102.47851562 519.405273438 1102.47851562 386.482421875 c 0,22,23
 1102.47851562 320.579101562 1102.47851562 320.579101562 1084.04882812 258.5859375 c 128,-1,24
 1065.61816406 196.591796875 1065.61816406 196.591796875 1024.84765625 136.274414062 c 128,-1,25
 984.077148438 75.9560546875 984.077148438 75.9560546875 901.418945312 37.9775390625 c 128,-1,26
 818.760742188 0 818.760742188 0 707.060546875 0 c 2,27,-1
 121.752929688 0 l 2,28,29
 36.861328125 2.234375 36.861328125 2.234375 36.861328125 91.59375 c 0,0,1
384.248046875 172.017578125 m 1,30,-1
 656.795898438 172.017578125 l 2,31,32
 800.888671875 172.017578125 800.888671875 172.017578125 855.622070312 239.038085938 c 128,-1,33
 910.35546875 306.057617188 910.35546875 306.057617188 910.35546875 393.18359375 c 0,34,35
 910.35546875 493.713867188 910.35546875 493.713867188 856.739257812 566.877929688 c 128,-1,36
 803.123046875 640.041015625 803.123046875 640.041015625 674.66796875 640.041015625 c 2,37,-1
 384.248046875 640.041015625 l 1,38,-1
 384.248046875 172.017578125 l 1,30,-1
384.248046875 812.05859375 m 1,39,-1
 610.999023438 812.05859375 l 2,40,41
 752.858398438 812.05859375 752.858398438 812.05859375 808.708007812 881.87109375 c 128,-1,42
 864.557617188 951.68359375 864.557617188 951.68359375 864.557617188 1036.57617188 c 0,43,44
 864.557617188 1112.53222656 864.557617188 1112.53222656 817.643554688 1168.38183594 c 128,-1,45
 770.73046875 1224.23242188 770.73046875 1224.23242188 661.263671875 1224.23242188 c 2,46,-1
 384.248046875 1224.23242188 l 1,47,-1
 384.248046875 812.05859375 l 1,39,-1
EndSplineSet
Validated: 524801
Substitution2: "'fwid' Full Widths lookup 32 subtable" uniFF22
Substitution2: "'c2sc' Capitals to Small Capitals lookup 26 subtable" b.sc
AlternateSubs2: "'aalt' Access All Alternates lookup 1 subtable" b.sc uniFF22
EndChar

StartChar: C
Encoding: 67 67 2
Width: 1200
VWidth: 2287
GlyphClass: 2
Flags: W
LayerCount: 2
Fore
SplineSet
91.59375 698.125 m 0,0,1
 91.59375 857.856445312 91.59375 857.856445312 127.896484375 985.752929688 c 128,-1,2
 164.19921875 1113.64941406 164.19921875 1113.64941406 220.607421875 1192.95605469 c 128,-1,3
 277.015625 1272.26269531 277.015625 1272.26269531 351.296875 1323.64453125 c 128,-1,4
 425.577148438 1375.02734375 425.577148438 1375.02734375 496.506835938 1395.69140625 c 128,-1,5
 567.435546875 1416.35644531 567.435546875 1416.35644531 637.806640625 1416.35644531 c 0,6,7
 788.6015625 1416.35644531 788.6015625 1416.35644531 923.758789062 1322.52832031 c 1,8,9
 928.2265625 1329.23046875 928.2265625 1329.23046875 938.838867188 1345.42675781 c 128,-1,10
 949.450195312 1361.62304688 949.450195312 1361.62304688 952.80078125 1367.20800781 c 128,-1,11
 956.15234375 1372.79296875 956.15234375 1372.79296875 965.087890625 1383.96289062 c 128,-1,12
 974.024414062 1395.1328125 974.024414062 1395.1328125 979.05078125 1398.484375 c 128,-1,13
 984.077148438 1401.83496094 984.077148438 1401.83496094 993.012695312 1407.97851562 c 128,-1,14
 1001.94921875 1414.12207031 1001.94921875 1414.12207031 1012.00195312 1415.23925781 c 128,-1,15
 1022.0546875 1416.35644531 1022.0546875 1416.35644531 1034.34179688 1416.35644531 c 0,16,17
 1108.06445312 1416.35644531 1108.06445312 1416.35644531 1106.94726562 1326.99609375 c 2,18,-1
 1106.94726562 1025.40625 l 2,19,20
 1106.94726562 1005.29980469 1106.94726562 1005.29980469 1105.83007812 993.571289062 c 128,-1,21
 1104.71289062 981.842773438 1104.71289062 981.842773438 1098.01074219 964.529296875 c 128,-1,22
 1091.30859375 947.215820312 1091.30859375 947.215820312 1070.64453125 939.397460938 c 128,-1,23
 1049.98046875 931.578125 1049.98046875 931.578125 1017.58691406 931.578125 c 0,24,25
 1015.35253906 931.578125 1015.35253906 931.578125 1008.65136719 929.90234375 c 128,-1,26
 1001.94921875 928.2265625 1001.94921875 928.2265625 997.481445312 928.2265625 c 0,27,28
 965.087890625 928.2265625 965.087890625 928.2265625 945.540039062 942.189453125 c 128,-1,29
 925.993164062 956.15234375 925.993164062 956.15234375 921.525390625 972.348632812 c 128,-1,30
 917.056640625 988.544921875 917.056640625 988.544921875 910.35546875 1019.26269531 c 128,-1,31
 903.653320312 1049.98046875 903.653320312 1049.98046875 896.951171875 1067.8515625 c 0,32,33
 874.611328125 1133.75488281 874.611328125 1133.75488281 819.319335938 1189.046875 c 128,-1,34
 764.028320312 1244.33789062 764.028320312 1244.33789062 674.66796875 1244.33789062 c 0,35,36
 624.403320312 1244.33789062 624.403320312 1244.33789062 574.137695312 1229.25878906 c 128,-1,37
 523.873046875 1214.17871094 523.873046875 1214.17871094 470.256835938 1174.52539062 c 128,-1,38
 416.640625 1134.87207031 416.640625 1134.87207031 376.428710938 1075.11230469 c 128,-1,39
 336.216796875 1015.35253906 336.216796875 1015.35253906 309.967773438 918.173828125 c 128,-1,40
 283.717773438 820.995117188 283.717773438 820.995117188 283.717773438 700.359375 c 0,41,42
 283.717773438 549.564453125 283.717773438 549.564453125 321.696289062 436.188476562 c 128,-1,43
 359.673828125 322.813476562 359.673828125 322.813476562 422.225585938 264.170898438 c 128,-1,44
 484.778320312 205.528320312 484.778320312 205.528320312 547.888671875 179.278320312 c 128,-1,45
 610.999023438 153.029296875 610.999023438 153.029296875 676.90234375 153.029296875 c 0,46,47
 775.198242188 153.029296875 775.198242188 153.029296875 840.54296875 213.905273438 c 128,-1,48
 905.88671875 274.782226562 905.88671875 274.782226562 914.823242188 368.610351562 c 0,49,50
 917.056640625 407.705078125 917.056640625 407.705078125 934.370117188 425.577148438 c 128,-1,51
 951.68359375 443.44921875 951.68359375 443.44921875 963.970703125 444.56640625 c 128,-1,52
 976.2578125 445.682617188 976.2578125 445.682617188 1004.18261719 445.682617188 c 2,53,-1
 1017.58691406 445.682617188 l 2,54,55
 1043.27832031 445.682617188 1043.27832031 445.682617188 1059.47460938 442.33203125 c 128,-1,56
 1075.67089844 438.981445312 1075.67089844 438.981445312 1091.30859375 421.66796875 c 128,-1,57
 1106.94726562 404.353515625 1106.94726562 404.353515625 1106.94726562 370.84375 c 0,58,59
 1106.94726562 215.581054688 1106.94726562 215.581054688 972.348632812 98.8544921875 c 128,-1,60
 837.75 -17.8720703125 837.75 -17.8720703125 640.041015625 -17.8720703125 c 0,61,62
 404.353515625 -17.8720703125 404.353515625 -17.8720703125 247.973632812 168.666992188 c 128,-1,63
 91.59375 355.206054688 91.59375 355.206054688 91.59375 698.125 c 0,0,1
EndSplineSet
Validated: 524833
Substitution2: "'fwid' Full Widths lookup 32 subtable" uniFF23
Substitution2: "'c2sc' Capitals to Small Capitals lookup 26 subtable" c.sc
AlternateSubs2: "'aalt' Access All Alternates lookup 1 subtable" c.sc uniFF23
EndChar

StartChar: D
Encoding: 68 68 3
Width: 1200
VWidth: 2287
GlyphClass: 2
Flags: W
LayerCount: 2
Fore
SplineSet
34.626953125 91.59375 m 0,0,1
 34.626953125 174.251953125 34.626953125 174.251953125 118.40234375 174.251953125 c 0,2,3
 120.635742188 174.251953125 120.635742188 174.251953125 123.987304688 174.251953125 c 2,4,-1
 128.455078125 172.017578125 l 1,5,-1
 178.719726562 172.017578125 l 1,6,-1
 178.719726562 1224.23242188 l 1,7,-1
 123.987304688 1224.23242188 l 2,8,9
 34.626953125 1224.23242188 34.626953125 1224.23242188 34.626953125 1305.7734375 c 0,10,11
 34.626953125 1397.3671875 34.626953125 1397.3671875 123.987304688 1397.3671875 c 2,12,-1
 594.244140625 1397.3671875 l 2,13,14
 712.646484375 1397.3671875 712.646484375 1397.3671875 805.915039062 1352.68652344 c 128,-1,15
 899.184570312 1308.00683594 899.184570312 1308.00683594 955.03515625 1237.07714844 c 128,-1,16
 1010.88476562 1166.1484375 1010.88476562 1166.1484375 1047.74609375 1070.0859375 c 128,-1,17
 1084.60742188 974.024414062 1084.60742188 974.024414062 1098.01074219 881.87109375 c 128,-1,18
 1111.41503906 789.71875 1111.41503906 789.71875 1111.41503906 690.305664062 c 0,19,20
 1111.41503906 561.850585938 1111.41503906 561.850585938 1087.39941406 449.034179688 c 128,-1,21
 1063.38378906 336.216796875 1063.38378906 336.216796875 1008.65136719 231.21875 c 128,-1,22
 953.91796875 126.220703125 953.91796875 126.220703125 847.802734375 63.1103515625 c 128,-1,23
 741.688476562 0 741.688476562 0 594.244140625 0 c 2,24,-1
 121.752929688 0 l 2,25,26
 34.626953125 0 34.626953125 0 34.626953125 91.59375 c 0,0,1
370.84375 172.017578125 m 1,27,-1
 554.032226562 172.017578125 l 2,28,29
 659.030273438 172.017578125 659.030273438 172.017578125 734.427734375 220.048828125 c 128,-1,30
 809.825195312 268.080078125 809.825195312 268.080078125 847.802734375 347.9453125 c 128,-1,31
 885.78125 427.810546875 885.78125 427.810546875 902.536132812 512.703125 c 128,-1,32
 919.291015625 597.594726562 919.291015625 597.594726562 919.291015625 690.305664062 c 0,33,34
 919.291015625 786.368164062 919.291015625 786.368164062 902.536132812 873.494140625 c 128,-1,35
 885.78125 960.620117188 885.78125 960.620117188 847.802734375 1043.27832031 c 128,-1,36
 809.825195312 1125.93554688 809.825195312 1125.93554688 734.427734375 1175.08398438 c 128,-1,37
 659.030273438 1224.23242188 659.030273438 1224.23242188 554.032226562 1224.23242188 c 2,38,-1
 370.84375 1224.23242188 l 1,39,-1
 370.84375 172.017578125 l 1,27,-1
EndSplineSet
Validated: 524801
Substitution2: "'fwid' Full Widths lookup 32 subtable" uniFF24
Substitution2: "'c2sc' Capitals to Small Capitals lookup 26 subtable" d.sc
AlternateSubs2: "'aalt' Access All Alternates lookup 1 subtable" d.sc uniFF24
EndChar

StartChar: E
Encoding: 69 69 4
Width: 1200
VWidth: 2287
GlyphClass: 2
Flags: W
LayerCount: 2
Fore
SplineSet
41.3291015625 93.828125 m 0,0,1
 41.3291015625 172.017578125 41.3291015625 172.017578125 130.689453125 172.017578125 c 2,2,-1
 203.293945312 172.017578125 l 1,3,-1
 203.293945312 1224.23242188 l 1,4,-1
 137.390625 1224.23242188 l 2,5,6
 109.465820312 1224.23242188 109.465820312 1224.23242188 91.59375 1227.58300781 c 128,-1,7
 73.7216796875 1230.93359375 73.7216796875 1230.93359375 57.525390625 1251.59863281 c 128,-1,8
 41.3291015625 1272.26269531 41.3291015625 1272.26269531 41.3291015625 1308.00683594 c 0,9,10
 41.3291015625 1330.34667969 41.3291015625 1330.34667969 43.5634765625 1345.98535156 c 128,-1,11
 45.796875 1361.62304688 45.796875 1361.62304688 68.6953125 1379.49511719 c 128,-1,12
 91.59375 1397.3671875 91.59375 1397.3671875 132.922851562 1397.3671875 c 2,13,-1
 1010.88476562 1397.3671875 l 2,14,15
 1052.21386719 1397.3671875 1052.21386719 1397.3671875 1072.87890625 1379.49511719 c 128,-1,16
 1093.54296875 1361.62304688 1093.54296875 1361.62304688 1095.77734375 1346.54394531 c 128,-1,17
 1098.01074219 1331.46386719 1098.01074219 1331.46386719 1098.01074219 1303.5390625 c 2,18,-1
 1098.01074219 1091.30859375 l 2,19,20
 1100.24511719 1008.65136719 1100.24511719 1008.65136719 1015.35253906 1008.65136719 c 2,21,-1
 1006.41699219 1008.65136719 l 2,22,23
 969.555664062 1008.65136719 969.555664062 1008.65136719 948.891601562 1015.35253906 c 128,-1,24
 928.2265625 1022.0546875 928.2265625 1022.0546875 919.291015625 1040.48535156 c 128,-1,25
 910.35546875 1058.91601562 910.35546875 1058.91601562 909.23828125 1071.76171875 c 128,-1,26
 908.12109375 1084.60742188 908.12109375 1084.60742188 908.12109375 1113.64941406 c 2,27,-1
 908.12109375 1224.23242188 l 1,28,-1
 395.41796875 1224.23242188 l 1,29,-1
 395.41796875 809.825195312 l 1,30,-1
 663.498046875 809.825195312 l 1,31,-1
 663.498046875 851.154296875 l 2,32,33
 663.498046875 890.249023438 663.498046875 890.249023438 679.694335938 912.030273438 c 128,-1,34
 695.890625 933.811523438 695.890625 933.811523438 711.529296875 937.163085938 c 128,-1,35
 727.166992188 940.513671875 727.166992188 940.513671875 750.624023438 940.513671875 c 2,36,-1
 761.793945312 940.513671875 l 2,37,38
 820.995117188 940.513671875 820.995117188 940.513671875 838.30859375 916.498046875 c 128,-1,39
 855.622070312 892.483398438 855.622070312 892.483398438 855.622070312 848.919921875 c 2,40,-1
 855.622070312 594.244140625 l 2,41,42
 855.622070312 508.235351562 855.622070312 508.235351562 768.49609375 508.235351562 c 0,43,44
 767.37890625 508.235351562 767.37890625 508.235351562 766.26171875 508.235351562 c 2,45,-1
 757.326171875 508.235351562 l 2,46,47
 713.762695312 508.235351562 713.762695312 508.235351562 690.864257812 526.107421875 c 128,-1,48
 667.965820312 543.978515625 667.965820312 543.978515625 665.732421875 559.05859375 c 128,-1,49
 663.498046875 574.137695312 663.498046875 574.137695312 663.498046875 599.829101562 c 2,50,-1
 663.498046875 637.806640625 l 1,51,-1
 395.41796875 637.806640625 l 1,52,-1
 395.41796875 172.017578125 l 1,53,-1
 958.385742188 172.017578125 l 1,54,-1
 958.385742188 340.684570312 l 2,55,56
 958.385742188 377.545898438 958.385742188 377.545898438 975.69921875 397.09375 c 128,-1,57
 993.012695312 416.640625 993.012695312 416.640625 1010.32617188 419.9921875 c 128,-1,58
 1027.63964844 423.342773438 1027.63964844 423.342773438 1058.91601562 423.342773438 c 0,59,60
 1150.50976562 423.342773438 1150.50976562 423.342773438 1150.50976562 340.684570312 c 2,61,-1
 1150.50976562 98.2958984375 l 2,62,63
 1150.50976562 68.13671875 1150.50976562 68.13671875 1147.15917969 50.2646484375 c 128,-1,64
 1143.80761719 32.392578125 1143.80761719 32.392578125 1122.02636719 16.1962890625 c 128,-1,65
 1100.24511719 0 1100.24511719 0 1061.15039062 0 c 2,66,-1
 126.220703125 0 l 2,67,68
 41.3291015625 0 41.3291015625 0 41.3291015625 93.828125 c 0,0,1
EndSplineSet
Validated: 524833
Substitution2: "'fwid' Full Widths lookup 32 subtable" uniFF25
Substitution2: "'c2sc' Capitals to Small Capitals lookup 26 subtable" e.sc
AlternateSubs2: "'aalt' Access All Alternates lookup 1 subtable" e.sc uniFF25
EndChar

StartChar: F
Encoding: 70 70 5
Width: 1200
VWidth: 2287
GlyphClass: 2
Flags: W
LayerCount: 2
Fore
SplineSet
48.03125 91.59375 m 0,0,1
 48.03125 172.017578125 48.03125 172.017578125 132.922851562 172.017578125 c 2,2,-1
 217.815429688 172.017578125 l 1,3,-1
 217.815429688 1224.23242188 l 1,4,-1
 135.157226562 1224.23242188 l 2,5,6
 48.03125 1224.23242188 48.03125 1224.23242188 48.03125 1308.00683594 c 0,7,8
 48.03125 1333.69824219 48.03125 1333.69824219 51.3818359375 1349.89453125 c 128,-1,9
 54.7333984375 1366.09082031 54.7333984375 1366.09082031 75.3974609375 1381.72851562 c 128,-1,10
 96.0615234375 1397.3671875 96.0615234375 1397.3671875 137.390625 1397.3671875 c 2,11,-1
 1034.34179688 1397.3671875 l 2,12,13
 1075.67089844 1397.3671875 1075.67089844 1397.3671875 1095.77734375 1379.49511719 c 128,-1,14
 1115.8828125 1361.62304688 1115.8828125 1361.62304688 1118.67578125 1346.54394531 c 128,-1,15
 1121.46777344 1331.46386719 1121.46777344 1331.46386719 1121.46777344 1303.5390625 c 2,16,-1
 1121.46777344 1093.54296875 l 2,17,18
 1123.70214844 1008.65136719 1123.70214844 1008.65136719 1038.80957031 1008.65136719 c 2,19,-1
 1029.87402344 1008.65136719 l 2,20,21
 981.842773438 1008.65136719 981.842773438 1008.65136719 958.944335938 1024.84765625 c 128,-1,22
 936.045898438 1041.04394531 936.045898438 1041.04394531 932.13671875 1058.35742188 c 128,-1,23
 928.2265625 1075.67089844 928.2265625 1075.67089844 928.2265625 1113.64941406 c 2,24,-1
 928.2265625 1224.23242188 l 1,25,-1
 407.705078125 1224.23242188 l 1,26,-1
 407.705078125 784.133789062 l 1,27,-1
 685.837890625 784.133789062 l 1,28,-1
 685.837890625 825.462890625 l 2,29,30
 685.837890625 864.557617188 685.837890625 864.557617188 702.034179688 886.33984375 c 128,-1,31
 718.231445312 908.12109375 718.231445312 908.12109375 734.427734375 911.471679688 c 128,-1,32
 750.624023438 914.823242188 750.624023438 914.823242188 772.963867188 914.823242188 c 2,33,-1
 784.133789062 914.823242188 l 2,34,35
 843.334960938 914.823242188 843.334960938 914.823242188 860.6484375 890.807617188 c 128,-1,36
 877.961914062 866.791992188 877.961914062 866.791992188 877.961914062 823.228515625 c 2,37,-1
 877.961914062 569.669921875 l 2,38,39
 877.961914062 482.543945312 877.961914062 482.543945312 789.71875 482.543945312 c 2,40,-1
 779.666015625 482.543945312 l 2,41,42
 736.102539062 482.543945312 736.102539062 482.543945312 713.204101562 500.974609375 c 128,-1,43
 690.305664062 519.405273438 690.305664062 519.405273438 688.072265625 534.484375 c 128,-1,44
 685.837890625 549.564453125 685.837890625 549.564453125 685.837890625 574.137695312 c 2,45,-1
 685.837890625 613.233398438 l 1,46,-1
 407.705078125 613.233398438 l 1,47,-1
 407.705078125 172.017578125 l 1,48,-1
 528.340820312 172.017578125 l 2,49,50
 554.032226562 172.017578125 554.032226562 172.017578125 569.669921875 168.108398438 c 128,-1,51
 585.307617188 164.19921875 585.307617188 164.19921875 602.62109375 145.209960938 c 128,-1,52
 619.934570312 126.220703125 619.934570312 126.220703125 619.934570312 87.1259765625 c 0,53,54
 619.934570312 83.775390625 619.934570312 83.775390625 619.934570312 79.306640625 c 0,55,56
 621.051757812 37.9775390625 621.051757812 37.9775390625 598.711914062 20.1064453125 c 0,57,58
 574.137695312 0 574.137695312 0 530.575195312 0 c 2,59,-1
 137.390625 0 l 2,60,61
 80.423828125 0 80.423828125 0 64.2275390625 24.015625 c 128,-1,62
 48.03125 48.03125 48.03125 48.03125 48.03125 91.59375 c 0,0,1
EndSplineSet
Validated: 524833
Substitution2: "'fwid' Full Widths lookup 32 subtable" uniFF26
Substitution2: "'c2sc' Capitals to Small Capitals lookup 26 subtable" f.sc
AlternateSubs2: "'aalt' Access All Alternates lookup 1 subtable" f.sc uniFF26
EndChar

StartChar: G
Encoding: 71 71 6
Width: 1200
VWidth: 2287
GlyphClass: 2
Flags: W
LayerCount: 2
Fore
SplineSet
84.8916015625 700.359375 m 0,0,1
 84.8916015625 899.184570312 84.8916015625 899.184570312 134.040039062 1045.51171875 c 128,-1,2
 183.188476562 1191.83886719 183.188476562 1191.83886719 263.053710938 1268.35351562 c 128,-1,3
 342.918945312 1344.86816406 342.918945312 1344.86816406 425.577148438 1380.61230469 c 128,-1,4
 508.235351562 1416.35644531 508.235351562 1416.35644531 592.009765625 1416.35644531 c 0,5,6
 727.166992188 1416.35644531 727.166992188 1416.35644531 851.154296875 1329.23046875 c 1,7,8
 885.78125 1386.19726562 885.78125 1386.19726562 902.536132812 1401.27636719 c 128,-1,9
 919.291015625 1416.35644531 919.291015625 1416.35644531 951.68359375 1416.35644531 c 0,10,11
 1027.63964844 1416.35644531 1027.63964844 1416.35644531 1027.63964844 1326.99609375 c 2,12,-1
 1027.63964844 1013.11914062 l 2,13,14
 1027.63964844 990.779296875 1027.63964844 990.779296875 1023.73046875 975.69921875 c 128,-1,15
 1019.82128906 960.620117188 1019.82128906 960.620117188 998.0390625 946.098632812 c 128,-1,16
 976.2578125 931.578125 976.2578125 931.578125 938.280273438 931.578125 c 2,17,-1
 928.2265625 931.578125 l 2,18,19
 860.08984375 931.578125 860.08984375 931.578125 842.217773438 969.555664062 c 0,20,21
 839.984375 971.790039062 839.984375 971.790039062 832.723632812 1006.41699219 c 128,-1,22
 825.462890625 1041.04394531 825.462890625 1041.04394531 813.17578125 1077.34667969 c 128,-1,23
 800.888671875 1113.64941406 800.888671875 1113.64941406 779.107421875 1152.74414062 c 128,-1,24
 757.326171875 1191.83886719 757.326171875 1191.83886719 714.879882812 1216.97167969 c 128,-1,25
 672.43359375 1242.10351562 672.43359375 1242.10351562 617.701171875 1242.10351562 c 0,26,27
 489.24609375 1242.10351562 489.24609375 1242.10351562 383.130859375 1113.09082031 c 128,-1,28
 277.015625 984.077148438 277.015625 984.077148438 277.015625 698.125 c 0,29,30
 277.015625 547.330078125 277.015625 547.330078125 309.967773438 435.071289062 c 128,-1,31
 342.918945312 322.813476562 342.918945312 322.813476562 396.53515625 265.287109375 c 128,-1,32
 450.151367188 207.76171875 450.151367188 207.76171875 505.442382812 180.395507812 c 128,-1,33
 560.734375 153.029296875 560.734375 153.029296875 615.466796875 153.029296875 c 0,34,35
 777.431640625 153.029296875 777.431640625 153.029296875 827.697265625 441.21484375 c 1,36,-1
 741.688476562 441.21484375 l 1,37,-1
 736.102539062 438.981445312 l 1,38,-1
 731.634765625 438.981445312 l 2,39,40
 642.275390625 438.981445312 642.275390625 438.981445312 642.275390625 526.107421875 c 0,41,42
 642.275390625 578.606445312 642.275390625 578.606445312 665.173828125 595.919921875 c 128,-1,43
 688.072265625 613.233398438 688.072265625 613.233398438 729.401367188 613.233398438 c 2,44,-1
 1038.80957031 613.233398438 l 2,45,46
 1071.203125 613.233398438 1071.203125 613.233398438 1087.95800781 609.881835938 c 128,-1,47
 1104.71289062 606.53125 1104.71289062 606.53125 1119.79296875 584.749023438 c 128,-1,48
 1134.87207031 562.967773438 1134.87207031 562.967773438 1134.87207031 519.405273438 c 0,49,50
 1134.87207031 438.981445312 1134.87207031 438.981445312 1045.51171875 438.981445312 c 0,51,52
 1043.27832031 438.981445312 1043.27832031 438.981445312 1036.57617188 440.09765625 c 128,-1,53
 1029.87402344 441.21484375 1029.87402344 441.21484375 1027.63964844 441.21484375 c 1,54,-1
 1027.63964844 91.59375 l 2,55,56
 1027.63964844 63.6689453125 1027.63964844 63.6689453125 1026.5234375 50.2646484375 c 128,-1,57
 1025.40625 36.861328125 1025.40625 36.861328125 1004.74121094 17.3134765625 c 128,-1,58
 984.077148438 -2.234375 984.077148438 -2.234375 942.748046875 -2.234375 c 2,59,-1
 919.291015625 -2.234375 l 2,60,61
 841.100585938 -2.234375 841.100585938 -2.234375 835.515625 70.37109375 c 1,62,63
 733.869140625 -17.8720703125 733.869140625 -17.8720703125 595.361328125 -17.8720703125 c 0,64,65
 594.244140625 -17.8720703125 594.244140625 -17.8720703125 592.009765625 -17.8720703125 c 0,66,67
 526.107421875 -17.8720703125 526.107421875 -17.8720703125 460.762695312 2.234375 c 128,-1,68
 395.41796875 22.33984375 395.41796875 22.33984375 325.60546875 74.2802734375 c 128,-1,69
 255.79296875 126.220703125 255.79296875 126.220703125 203.293945312 204.969726562 c 128,-1,70
 150.794921875 283.717773438 150.794921875 283.717773438 117.84375 412.172851562 c 128,-1,71
 84.8916015625 540.627929688 84.8916015625 540.627929688 84.8916015625 700.359375 c 0,0,1
EndSplineSet
Validated: 524801
Substitution2: "'fwid' Full Widths lookup 32 subtable" uniFF27
Substitution2: "'c2sc' Capitals to Small Capitals lookup 26 subtable" g.sc
AlternateSubs2: "'aalt' Access All Alternates lookup 1 subtable" g.sc uniFF27
EndChar

StartChar: H
Encoding: 72 72 7
Width: 1200
VWidth: 2287
GlyphClass: 2
Flags: W
LayerCount: 2
Fore
SplineSet
34.626953125 82.658203125 m 0,0,1
 34.626953125 108.348632812 34.626953125 108.348632812 36.861328125 121.752929688 c 128,-1,2
 39.0947265625 135.157226562 39.0947265625 135.157226562 60.876953125 153.587890625 c 128,-1,3
 82.658203125 172.017578125 82.658203125 172.017578125 126.220703125 172.017578125 c 2,4,-1
 183.188476562 172.017578125 l 1,5,-1
 183.188476562 1224.23242188 l 1,6,-1
 123.987304688 1224.23242188 l 2,7,8
 34.626953125 1224.23242188 34.626953125 1224.23242188 34.626953125 1310.79980469 c 128,-1,9
 34.626953125 1397.3671875 34.626953125 1397.3671875 126.220703125 1397.3671875 c 2,10,-1
 436.747070312 1397.3671875 l 2,11,12
 526.107421875 1397.3671875 526.107421875 1397.3671875 526.107421875 1315.82617188 c 0,13,14
 526.107421875 1224.23242188 526.107421875 1224.23242188 434.512695312 1224.23242188 c 2,15,-1
 375.311523438 1224.23242188 l 1,16,-1
 375.311523438 812.05859375 l 1,17,-1
 823.228515625 812.05859375 l 1,18,-1
 823.228515625 1224.23242188 l 1,19,-1
 764.028320312 1224.23242188 l 2,20,21
 672.43359375 1224.23242188 672.43359375 1224.23242188 672.43359375 1310.79980469 c 128,-1,22
 672.43359375 1397.3671875 672.43359375 1397.3671875 764.028320312 1397.3671875 c 2,23,-1
 1075.67089844 1397.3671875 l 2,24,25
 1163.9140625 1397.3671875 1163.9140625 1397.3671875 1163.9140625 1318.05957031 c 0,26,27
 1163.9140625 1290.13476562 1163.9140625 1290.13476562 1160.56347656 1275.05566406 c 128,-1,28
 1157.21191406 1259.97558594 1157.21191406 1259.97558594 1135.43066406 1242.10351562 c 128,-1,29
 1113.64941406 1224.23242188 1113.64941406 1224.23242188 1070.0859375 1224.23242188 c 2,30,-1
 1013.11914062 1224.23242188 l 1,31,-1
 1013.11914062 172.017578125 l 1,32,-1
 1077.90527344 172.017578125 l 2,33,34
 1165.03125 172.017578125 1165.03125 172.017578125 1163.9140625 91.59375 c 0,35,36
 1163.9140625 0 1163.9140625 0 1073.43652344 0 c 2,37,-1
 761.793945312 0 l 2,38,39
 672.43359375 0 672.43359375 0 672.43359375 82.658203125 c 0,40,41
 672.43359375 108.348632812 672.43359375 108.348632812 674.66796875 121.752929688 c 128,-1,42
 676.90234375 135.157226562 676.90234375 135.157226562 698.68359375 153.587890625 c 128,-1,43
 720.46484375 172.017578125 720.46484375 172.017578125 764.028320312 172.017578125 c 2,44,-1
 823.228515625 172.017578125 l 1,45,-1
 823.228515625 640.041015625 l 1,46,-1
 375.311523438 640.041015625 l 1,47,-1
 375.311523438 172.017578125 l 1,48,-1
 438.981445312 172.017578125 l 2,49,50
 526.107421875 172.017578125 526.107421875 172.017578125 526.107421875 91.59375 c 0,51,52
 526.107421875 0 526.107421875 0 434.512695312 0 c 2,53,-1
 123.987304688 0 l 2,54,55
 34.626953125 0 34.626953125 0 34.626953125 82.658203125 c 0,0,1
EndSplineSet
Validated: 524833
Substitution2: "'fwid' Full Widths lookup 32 subtable" uniFF28
Substitution2: "'c2sc' Capitals to Small Capitals lookup 26 subtable" h.sc
AlternateSubs2: "'aalt' Access All Alternates lookup 1 subtable" h.sc uniFF28
EndChar

StartChar: I
Encoding: 73 73 8
Width: 1200
VWidth: 2287
GlyphClass: 2
Flags: W
LayerCount: 2
Fore
SplineSet
161.96484375 87.1259765625 m 0,0,1
 161.96484375 172.017578125 161.96484375 172.017578125 251.325195312 172.017578125 c 2,2,-1
 503.766601562 172.017578125 l 1,3,-1
 503.766601562 1224.23242188 l 1,4,-1
 251.325195312 1224.23242188 l 2,5,6
 161.96484375 1224.23242188 161.96484375 1224.23242188 161.96484375 1315.82617188 c 0,7,8
 164.19921875 1397.3671875 164.19921875 1397.3671875 246.857421875 1397.3671875 c 0,9,10
 247.973632812 1397.3671875 247.973632812 1397.3671875 249.090820312 1397.3671875 c 2,11,-1
 949.450195312 1397.3671875 l 2,12,13
 1034.34179688 1397.3671875 1034.34179688 1397.3671875 1034.34179688 1310.79980469 c 128,-1,14
 1034.34179688 1224.23242188 1034.34179688 1224.23242188 947.215820312 1224.23242188 c 2,15,-1
 695.890625 1224.23242188 l 1,16,-1
 695.890625 172.017578125 l 1,17,-1
 947.215820312 172.017578125 l 2,18,19
 997.481445312 172.017578125 997.481445312 172.017578125 1015.91113281 151.353515625 c 128,-1,20
 1034.34179688 130.689453125 1034.34179688 130.689453125 1034.34179688 84.8916015625 c 0,21,22
 1034.34179688 0 1034.34179688 0 947.215820312 0 c 2,23,-1
 246.857421875 0 l 2,24,25
 161.96484375 0 161.96484375 0 161.96484375 87.1259765625 c 0,0,1
EndSplineSet
Validated: 524801
Substitution2: "'fwid' Full Widths lookup 32 subtable" uniFF29
Substitution2: "'c2sc' Capitals to Small Capitals lookup 26 subtable" i.sc
AlternateSubs2: "'aalt' Access All Alternates lookup 1 subtable" i.sc uniFF29
EndChar

StartChar: J
Encoding: 74 74 9
Width: 1200
VWidth: 2287
GlyphClass: 2
Flags: W
LayerCount: 2
Fore
SplineSet
174.251953125 228.985351562 m 0,0,1
 174.251953125 270.314453125 174.251953125 270.314453125 201.618164062 298.797851562 c 128,-1,2
 228.985351562 327.28125 228.985351562 327.28125 270.314453125 327.28125 c 0,3,4
 292.654296875 327.28125 292.654296875 327.28125 309.967773438 319.461914062 c 128,-1,5
 327.28125 311.642578125 327.28125 311.642578125 336.216796875 301.03125 c 128,-1,6
 345.153320312 290.419921875 345.153320312 290.419921875 353.530273438 275.340820312 c 128,-1,7
 361.908203125 260.260742188 361.908203125 260.260742188 364.141601562 250.208007812 c 128,-1,8
 366.375976562 240.155273438 366.375976562 240.155273438 366.375976562 228.985351562 c 2,9,-1
 368.610351562 220.048828125 l 1,10,11
 390.950195312 154.146484375 390.950195312 154.146484375 551.797851562 153.029296875 c 0,12,13
 741.688476562 153.029296875 741.688476562 153.029296875 741.688476562 311.642578125 c 2,14,-1
 741.688476562 1224.23242188 l 1,15,-1
 543.978515625 1224.23242188 l 2,16,17
 459.086914062 1224.23242188 459.086914062 1224.23242188 459.086914062 1309.12402344 c 0,18,19
 459.086914062 1397.3671875 459.086914062 1397.3671875 549.564453125 1397.3671875 c 2,20,-1
 1004.18261719 1397.3671875 l 2,21,22
 1093.54296875 1397.3671875 1093.54296875 1397.3671875 1093.54296875 1319.17675781 c 0,23,24
 1093.54296875 1315.82617188 1093.54296875 1315.82617188 1093.54296875 1311.35839844 c 0,25,26
 1093.54296875 1272.26269531 1093.54296875 1272.26269531 1076.22949219 1251.59863281 c 128,-1,27
 1058.91601562 1230.93359375 1058.91601562 1230.93359375 1044.39453125 1227.58300781 c 128,-1,28
 1029.87402344 1224.23242188 1029.87402344 1224.23242188 1006.41699219 1224.23242188 c 2,29,-1
 931.578125 1224.23242188 l 1,30,-1
 931.578125 318.344726562 l 2,31,32
 931.578125 222.283203125 931.578125 222.283203125 895.833984375 152.470703125 c 128,-1,33
 860.08984375 82.658203125 860.08984375 82.658203125 802.005859375 46.9140625 c 128,-1,34
 743.921875 11.169921875 743.921875 11.169921875 681.928710938 -3.3505859375 c 128,-1,35
 619.934570312 -17.8720703125 619.934570312 -17.8720703125 551.797851562 -17.8720703125 c 0,36,37
 382.013671875 -17.8720703125 382.013671875 -17.8720703125 278.1328125 49.7060546875 c 128,-1,38
 174.251953125 117.28515625 174.251953125 117.28515625 174.251953125 228.985351562 c 0,0,1
EndSplineSet
Validated: 524801
Substitution2: "'fwid' Full Widths lookup 32 subtable" uniFF2A
Substitution2: "'c2sc' Capitals to Small Capitals lookup 26 subtable" j.sc
AlternateSubs2: "'aalt' Access All Alternates lookup 1 subtable" j.sc uniFF2A
EndChar

StartChar: K
Encoding: 75 75 10
Width: 1200
VWidth: 2287
GlyphClass: 2
Flags: W
LayerCount: 2
Fore
SplineSet
43.5634765625 87.1259765625 m 0,0,1
 43.5634765625 172.017578125 43.5634765625 172.017578125 132.922851562 172.017578125 c 2,2,-1
 187.65625 172.017578125 l 1,3,-1
 187.65625 1224.23242188 l 1,4,-1
 130.689453125 1224.23242188 l 2,5,6
 43.5634765625 1224.23242188 43.5634765625 1224.23242188 43.5634765625 1305.7734375 c 0,7,8
 43.5634765625 1397.3671875 43.5634765625 1397.3671875 135.157226562 1397.3671875 c 2,9,-1
 399.885742188 1397.3671875 l 2,10,11
 487.01171875 1397.3671875 487.01171875 1397.3671875 487.01171875 1310.79980469 c 128,-1,12
 487.01171875 1224.23242188 487.01171875 1224.23242188 395.41796875 1224.23242188 c 2,13,-1
 342.918945312 1224.23242188 l 1,14,-1
 342.918945312 690.305664062 l 1,15,-1
 764.028320312 1224.23242188 l 1,16,17
 690.305664062 1230.93359375 690.305664062 1230.93359375 690.305664062 1313.59179688 c 0,18,19
 690.305664062 1397.3671875 690.305664062 1397.3671875 779.666015625 1397.3671875 c 0,20,21
 780.783203125 1397.3671875 780.783203125 1397.3671875 781.900390625 1397.3671875 c 2,22,-1
 1022.0546875 1397.3671875 l 2,23,24
 1042.16113281 1397.3671875 1042.16113281 1397.3671875 1057.79882812 1395.1328125 c 128,-1,25
 1073.43652344 1392.89941406 1073.43652344 1392.89941406 1091.30859375 1371.1171875 c 128,-1,26
 1109.18066406 1349.3359375 1109.18066406 1349.3359375 1109.18066406 1310.79980469 c 128,-1,27
 1109.18066406 1272.26269531 1109.18066406 1272.26269531 1093.54296875 1251.59863281 c 128,-1,28
 1077.90527344 1230.93359375 1077.90527344 1230.93359375 1061.70898438 1227.58300781 c 128,-1,29
 1045.51171875 1224.23242188 1045.51171875 1224.23242188 1017.58691406 1224.23242188 c 2,30,-1
 997.481445312 1224.23242188 l 2,31,32
 969.555664062 1224.23242188 969.555664062 1224.23242188 962.853515625 1220.88085938 c 128,-1,33
 956.15234375 1217.53027344 956.15234375 1217.53027344 938.280273438 1194.07324219 c 2,34,-1
 637.806640625 814.29296875 l 1,35,-1
 997.481445312 172.017578125 l 1,36,-1
 1043.27832031 172.017578125 l 2,37,38
 1132.63769531 172.017578125 1132.63769531 172.017578125 1132.63769531 87.1259765625 c 0,39,40
 1132.63769531 45.796875 1132.63769531 45.796875 1113.09082031 25.1328125 c 128,-1,41
 1093.54296875 4.4677734375 1093.54296875 4.4677734375 1076.22949219 2.234375 c 128,-1,42
 1058.91601562 0 1058.91601562 0 1029.87402344 0 c 2,43,-1
 829.930664062 0 l 2,44,45
 742.8046875 0 742.8046875 0 743.921875 89.3603515625 c 0,46,47
 743.921875 93.828125 743.921875 93.828125 743.921875 97.1787109375 c 0,48,49
 743.921875 165.31640625 743.921875 165.31640625 820.995117188 172.017578125 c 1,50,-1
 535.04296875 681.370117188 l 1,51,52
 528.340820312 672.43359375 528.340820312 672.43359375 517.170898438 659.030273438 c 128,-1,53
 506.000976562 645.625976562 506.000976562 645.625976562 464.671875 591.451171875 c 128,-1,54
 423.342773438 537.27734375 423.342773438 537.27734375 368.610351562 469.139648438 c 0,55,56
 342.918945312 436.747070312 342.918945312 436.747070312 342.918945312 399.885742188 c 2,57,-1
 342.918945312 172.017578125 l 1,58,-1
 395.41796875 172.017578125 l 2,59,60
 487.01171875 172.017578125 487.01171875 172.017578125 487.01171875 91.59375 c 0,61,62
 487.01171875 0 487.01171875 0 397.65234375 0 c 2,63,-1
 128.455078125 0 l 2,64,65
 43.5634765625 0 43.5634765625 0 43.5634765625 87.1259765625 c 0,0,1
EndSplineSet
Validated: 524833
Substitution2: "'fwid' Full Widths lookup 32 subtable" uniFF2B
Substitution2: "'c2sc' Capitals to Small Capitals lookup 26 subtable" k.sc
AlternateSubs2: "'aalt' Access All Alternates lookup 1 subtable" k.sc uniFF2B
EndChar

StartChar: L
Encoding: 76 76 11
Width: 1200
VWidth: 2287
GlyphClass: 2
Flags: W
LayerCount: 2
Fore
SplineSet
54.7333984375 89.3603515625 m 0,0,1
 54.7333984375 93.828125 54.7333984375 93.828125 54.7333984375 97.1787109375 c 0,2,3
 55.849609375 128.455078125 55.849609375 128.455078125 71.48828125 145.209960938 c 0,4,5
 89.3603515625 164.19921875 89.3603515625 164.19921875 106.673828125 168.108398438 c 128,-1,6
 123.987304688 172.017578125 123.987304688 172.017578125 150.794921875 172.017578125 c 2,7,-1
 231.21875 172.017578125 l 1,8,-1
 231.21875 1224.23242188 l 1,9,-1
 150.794921875 1224.23242188 l 2,10,11
 122.870117188 1224.23242188 122.870117188 1224.23242188 106.115234375 1227.58300781 c 128,-1,12
 89.3603515625 1230.93359375 89.3603515625 1230.93359375 72.046875 1251.59863281 c 128,-1,13
 54.7333984375 1272.26269531 54.7333984375 1272.26269531 54.7333984375 1311.35839844 c 0,14,15
 54.7333984375 1361.62304688 54.7333984375 1361.62304688 77.6318359375 1379.49511719 c 128,-1,16
 100.530273438 1397.3671875 100.530273438 1397.3671875 141.859375 1397.3671875 c 2,17,-1
 554.032226562 1397.3671875 l 2,18,19
 645.625976562 1397.3671875 645.625976562 1397.3671875 645.625976562 1315.82617188 c 0,20,21
 645.625976562 1274.49707031 645.625976562 1274.49707031 629.4296875 1252.71582031 c 128,-1,22
 613.233398438 1230.93359375 613.233398438 1230.93359375 597.036132812 1227.58300781 c 128,-1,23
 580.83984375 1224.23242188 580.83984375 1224.23242188 549.564453125 1224.23242188 c 2,24,-1
 423.342773438 1224.23242188 l 1,25,-1
 423.342773438 172.017578125 l 1,26,-1
 925.993164062 172.017578125 l 1,27,-1
 925.993164062 340.684570312 l 2,28,29
 925.993164062 377.545898438 925.993164062 377.545898438 942.189453125 397.09375 c 128,-1,30
 958.385742188 416.640625 958.385742188 416.640625 973.465820312 419.9921875 c 128,-1,31
 988.544921875 423.342773438 988.544921875 423.342773438 1013.11914062 423.342773438 c 2,32,-1
 1022.0546875 423.342773438 l 2,33,34
 1052.21386719 423.342773438 1052.21386719 423.342773438 1068.41015625 421.109375 c 128,-1,35
 1084.60742188 418.875 1084.60742188 418.875 1101.36230469 399.327148438 c 128,-1,36
 1118.1171875 379.780273438 1118.1171875 379.780273438 1118.1171875 340.684570312 c 2,37,-1
 1118.1171875 93.828125 l 2,38,39
 1118.1171875 63.6689453125 1118.1171875 63.6689453125 1113.64941406 46.9140625 c 128,-1,40
 1109.18066406 30.1591796875 1109.18066406 30.1591796875 1087.39941406 15.0791015625 c 128,-1,41
 1065.61816406 0 1065.61816406 0 1027.63964844 0 c 2,42,-1
 139.625 0 l 2,43,44
 54.7333984375 0 54.7333984375 0 54.7333984375 89.3603515625 c 0,0,1
EndSplineSet
Validated: 524801
Substitution2: "'fwid' Full Widths lookup 32 subtable" uniFF2C
Substitution2: "'c2sc' Capitals to Small Capitals lookup 26 subtable" l.sc
AlternateSubs2: "'aalt' Access All Alternates lookup 1 subtable" l.sc uniFF2C
EndChar

StartChar: M
Encoding: 77 77 12
Width: 1200
VWidth: 2287
GlyphClass: 2
Flags: W
LayerCount: 2
Fore
SplineSet
27.9248046875 87.1259765625 m 0,0,1
 27.9248046875 172.017578125 27.9248046875 172.017578125 109.465820312 172.017578125 c 2,2,-1
 148.560546875 172.017578125 l 1,3,-1
 148.560546875 1224.23242188 l 1,4,-1
 111.700195312 1224.23242188 l 2,5,6
 27.9248046875 1224.23242188 27.9248046875 1224.23242188 27.9248046875 1311.35839844 c 0,7,8
 27.9248046875 1333.69824219 27.9248046875 1333.69824219 31.2763671875 1348.77734375 c 128,-1,9
 34.626953125 1363.85742188 34.626953125 1363.85742188 55.291015625 1380.61230469 c 128,-1,10
 75.9560546875 1397.3671875 75.9560546875 1397.3671875 113.93359375 1397.3671875 c 2,11,-1
 294.887695312 1397.3671875 l 2,12,13
 314.994140625 1397.3671875 314.994140625 1397.3671875 331.190429688 1394.015625 c 128,-1,14
 347.38671875 1390.66503906 347.38671875 1390.66503906 360.232421875 1381.72851562 c 128,-1,15
 373.078125 1372.79296875 373.078125 1372.79296875 380.897460938 1366.09082031 c 128,-1,16
 388.715820312 1359.38867188 388.715820312 1359.38867188 395.41796875 1344.30957031 c 128,-1,17
 402.120117188 1329.23046875 402.120117188 1329.23046875 404.912109375 1322.52832031 c 128,-1,18
 407.705078125 1315.82617188 407.705078125 1315.82617188 413.290039062 1299.62988281 c 128,-1,19
 418.875 1283.43261719 418.875 1283.43261719 418.875 1281.19921875 c 0,20,21
 586.424804688 752.858398438 586.424804688 752.858398438 599.829101562 626.63671875 c 1,22,23
 606.53125 727.166992188 606.53125 727.166992188 779.666015625 1283.43261719 c 1,24,-1
 784.133789062 1299.07128906 l 2,25,26
 788.6015625 1312.47460938 788.6015625 1312.47460938 790.27734375 1315.26757812 c 128,-1,27
 791.953125 1318.05957031 791.953125 1318.05957031 797.538085938 1331.46386719 c 128,-1,28
 803.123046875 1344.86816406 803.123046875 1344.86816406 806.473632812 1349.3359375 c 128,-1,29
 809.825195312 1353.80371094 809.825195312 1353.80371094 816.52734375 1364.41503906 c 128,-1,30
 823.228515625 1375.02734375 823.228515625 1375.02734375 831.606445312 1378.37792969 c 128,-1,31
 839.984375 1381.72851562 839.984375 1381.72851562 851.154296875 1387.31445312 c 128,-1,32
 862.32421875 1392.89941406 862.32421875 1392.89941406 875.169921875 1395.1328125 c 128,-1,33
 888.014648438 1397.3671875 888.014648438 1397.3671875 903.653320312 1397.3671875 c 2,34,-1
 1084.60742188 1397.3671875 l 2,35,36
 1110.29785156 1397.3671875 1110.29785156 1397.3671875 1125.93554688 1392.89941406 c 128,-1,37
 1141.57421875 1388.43066406 1141.57421875 1388.43066406 1156.65332031 1366.64941406 c 128,-1,38
 1171.73339844 1344.86816406 1171.73339844 1344.86816406 1171.73339844 1305.7734375 c 0,39,40
 1171.73339844 1224.23242188 1171.73339844 1224.23242188 1089.07519531 1224.23242188 c 0,41,42
 1087.95800781 1224.23242188 1087.95800781 1224.23242188 1086.84082031 1224.23242188 c 2,43,-1
 1049.98046875 1224.23242188 l 1,44,-1
 1049.98046875 172.017578125 l 1,45,-1
 1086.84082031 172.017578125 l 2,46,47
 1171.73339844 172.017578125 1171.73339844 172.017578125 1171.73339844 94.9453125 c 0,48,49
 1171.73339844 91.59375 1171.73339844 91.59375 1171.73339844 87.1259765625 c 0,50,51
 1171.73339844 67.01953125 1171.73339844 67.01953125 1168.94042969 51.9404296875 c 128,-1,52
 1166.1484375 36.861328125 1166.1484375 36.861328125 1144.92480469 18.4306640625 c 128,-1,53
 1123.70214844 0 1123.70214844 0 1082.37304688 0 c 2,54,-1
 857.856445312 0 l 2,55,56
 772.963867188 0 772.963867188 0 772.963867188 87.1259765625 c 0,57,58
 772.963867188 172.017578125 772.963867188 172.017578125 855.622070312 172.017578125 c 2,59,-1
 894.716796875 172.017578125 l 1,60,-1
 894.716796875 1178.43457031 l 1,61,-1
 892.483398438 1237.63574219 l 1,62,63
 888.014648438 1176.20117188 888.014648438 1176.20117188 839.984375 999.71484375 c 128,-1,64
 791.953125 823.228515625 791.953125 823.228515625 745.0390625 678.018554688 c 128,-1,65
 698.125 532.80859375 698.125 532.80859375 690.305664062 521.638671875 c 0,66,67
 657.913085938 466.90625 657.913085938 466.90625 599.829101562 466.90625 c 0,68,69
 584.19140625 466.90625 584.19140625 466.90625 569.111328125 471.374023438 c 128,-1,70
 554.032226562 475.841796875 554.032226562 475.841796875 544.537109375 480.309570312 c 128,-1,71
 535.04296875 484.778320312 535.04296875 484.778320312 524.990234375 497.623046875 c 128,-1,72
 514.936523438 510.46875 514.936523438 510.46875 509.3515625 518.288085938 c 128,-1,73
 503.766601562 526.107421875 503.766601562 526.107421875 496.506835938 546.771484375 c 128,-1,74
 489.24609375 567.435546875 489.24609375 567.435546875 485.89453125 576.372070312 c 128,-1,75
 482.543945312 585.307617188 482.543945312 585.307617188 474.724609375 612.674804688 c 128,-1,76
 466.90625 640.041015625 466.90625 640.041015625 462.438476562 652.328125 c 0,77,78
 320.579101562 1100.24511719 320.579101562 1100.24511719 303.82421875 1237.63574219 c 1,79,-1
 303.82421875 172.017578125 l 1,80,-1
 340.684570312 172.017578125 l 2,81,82
 425.577148438 172.017578125 425.577148438 172.017578125 425.577148438 94.9453125 c 0,83,84
 425.577148438 91.59375 425.577148438 91.59375 425.577148438 87.1259765625 c 0,85,86
 425.577148438 67.01953125 425.577148438 67.01953125 423.342773438 51.9404296875 c 128,-1,87
 421.109375 36.861328125 421.109375 36.861328125 399.327148438 18.4306640625 c 128,-1,88
 377.545898438 0 377.545898438 0 336.216796875 0 c 2,89,-1
 113.93359375 0 l 2,90,91
 27.9248046875 0 27.9248046875 0 27.9248046875 87.1259765625 c 0,0,1
EndSplineSet
Validated: 524801
Substitution2: "'fwid' Full Widths lookup 32 subtable" uniFF2D
Substitution2: "'c2sc' Capitals to Small Capitals lookup 26 subtable" m.sc
AlternateSubs2: "'aalt' Access All Alternates lookup 1 subtable" m.sc uniFF2D
EndChar

StartChar: N
Encoding: 78 78 13
Width: 1200
VWidth: 2287
GlyphClass: 2
Flags: W
LayerCount: 2
Fore
SplineSet
48.03125 82.658203125 m 0,0,1
 48.03125 100.530273438 48.03125 100.530273438 50.2646484375 112.258789062 c 128,-1,2
 52.4990234375 123.987304688 52.4990234375 123.987304688 59.201171875 139.625 c 128,-1,3
 65.9033203125 155.262695312 65.9033203125 155.262695312 86.5673828125 163.640625 c 128,-1,4
 107.232421875 172.017578125 107.232421875 172.017578125 139.625 172.017578125 c 2,5,-1
 196.591796875 172.017578125 l 1,6,-1
 196.591796875 1224.23242188 l 1,7,-1
 137.390625 1224.23242188 l 2,8,9
 48.03125 1224.23242188 48.03125 1224.23242188 48.03125 1310.79980469 c 128,-1,10
 48.03125 1397.3671875 48.03125 1397.3671875 135.157226562 1397.3671875 c 2,11,-1
 342.918945312 1397.3671875 l 2,12,13
 358.556640625 1397.3671875 358.556640625 1397.3671875 372.51953125 1395.1328125 c 128,-1,14
 386.482421875 1392.89941406 386.482421875 1392.89941406 397.09375 1388.43066406 c 128,-1,15
 407.705078125 1383.96289062 407.705078125 1383.96289062 415.524414062 1379.49511719 c 128,-1,16
 423.342773438 1375.02734375 423.342773438 1375.02734375 430.044921875 1365.53222656 c 128,-1,17
 436.747070312 1356.03808594 436.747070312 1356.03808594 441.21484375 1351.5703125 c 128,-1,18
 445.682617188 1347.1015625 445.682617188 1347.1015625 450.709960938 1337.04882812 c 128,-1,19
 455.736328125 1326.99609375 455.736328125 1326.99609375 456.852539062 1323.64453125 c 128,-1,20
 457.969726562 1320.29394531 457.969726562 1320.29394531 462.438476562 1311.35839844 c 2,21,-1
 464.671875 1301.3046875 l 1,22,-1
 743.921875 491.48046875 l 2,23,24
 833.282226562 221.166015625 833.282226562 221.166015625 844.452148438 159.731445312 c 1,25,-1
 844.452148438 1224.23242188 l 1,26,-1
 781.900390625 1224.23242188 l 2,27,28
 692.540039062 1224.23242188 692.540039062 1224.23242188 692.540039062 1310.24121094 c 0,29,30
 692.540039062 1397.3671875 692.540039062 1397.3671875 784.133789062 1397.3671875 c 2,31,-1
 1061.15039062 1397.3671875 l 2,32,33
 1148.27636719 1397.3671875 1148.27636719 1397.3671875 1148.27636719 1315.82617188 c 0,34,35
 1148.27636719 1297.95410156 1148.27636719 1297.95410156 1146.04199219 1286.22558594 c 128,-1,36
 1143.80761719 1274.49707031 1143.80761719 1274.49707031 1137.10644531 1257.18359375 c 128,-1,37
 1130.40429688 1239.87011719 1130.40429688 1239.87011719 1109.73925781 1232.05078125 c 128,-1,38
 1089.07519531 1224.23242188 1089.07519531 1224.23242188 1056.68164062 1224.23242188 c 2,39,-1
 999.71484375 1224.23242188 l 1,40,-1
 999.71484375 87.1259765625 l 2,41,42
 999.71484375 0 999.71484375 0 910.35546875 0 c 2,43,-1
 857.856445312 0 l 2,44,45
 839.984375 0 839.984375 0 826.021484375 1.1171875 c 128,-1,46
 812.05859375 2.234375 812.05859375 2.234375 800.888671875 7.8193359375 c 128,-1,47
 789.71875 13.404296875 789.71875 13.404296875 781.341796875 17.8720703125 c 128,-1,48
 772.963867188 22.33984375 772.963867188 22.33984375 764.028320312 35.185546875 c 128,-1,49
 755.091796875 48.03125 755.091796875 48.03125 750.624023438 54.7333984375 c 128,-1,50
 746.15625 61.4345703125 746.15625 61.4345703125 736.661132812 83.216796875 c 128,-1,51
 727.166992188 104.998046875 727.166992188 104.998046875 723.81640625 116.7265625 c 128,-1,52
 720.46484375 128.455078125 720.46484375 128.455078125 710.412109375 159.172851562 c 128,-1,53
 700.359375 189.889648438 700.359375 189.889648438 693.657226562 205.528320312 c 2,54,-1
 469.139648438 855.622070312 l 2,55,56
 370.84375 1152.74414062 370.84375 1152.74414062 351.85546875 1237.63574219 c 1,57,-1
 351.85546875 172.017578125 l 1,58,-1
 416.640625 172.017578125 l 2,59,60
 503.766601562 172.017578125 503.766601562 172.017578125 503.766601562 91.59375 c 0,61,62
 503.766601562 0 503.766601562 0 412.172851562 0 c 2,63,-1
 135.157226562 0 l 2,64,65
 48.03125 0 48.03125 0 48.03125 82.658203125 c 0,0,1
EndSplineSet
Validated: 524801
Substitution2: "'fwid' Full Widths lookup 32 subtable" uniFF2E
Substitution2: "'c2sc' Capitals to Small Capitals lookup 26 subtable" n.sc
AlternateSubs2: "'aalt' Access All Alternates lookup 1 subtable" n.sc uniFF2E
EndChar

StartChar: O
Encoding: 79 79 14
Width: 1200
VWidth: 2287
GlyphClass: 2
Flags: W
LayerCount: 2
Fore
SplineSet
128.455078125 628.87109375 m 2,0,-1
 128.455078125 715.997070312 l 2,1,2
 128.455078125 986.310546875 128.455078125 986.310546875 144.092773438 1127.05273438 c 128,-1,3
 159.731445312 1267.79492188 159.731445312 1267.79492188 207.76171875 1324.76171875 c 0,4,5
 283.717773438 1416.35644531 283.717773438 1416.35644531 562.967773438 1416.35644531 c 2,6,-1
 597.594726562 1416.35644531 l 2,7,8
 883.546875 1416.35644531 883.546875 1416.35644531 964.529296875 1351.01171875 c 128,-1,9
 1045.51171875 1285.66699219 1045.51171875 1285.66699219 1063.38378906 1036.57617188 c 0,10,11
 1070.0859375 951.68359375 1070.0859375 951.68359375 1070.0859375 698.125 c 0,12,13
 1070.0859375 514.936523438 1070.0859375 514.936523438 1066.73535156 410.497070312 c 128,-1,14
 1063.38378906 306.057617188 1063.38378906 306.057617188 1044.39453125 216.139648438 c 128,-1,15
 1025.40625 126.220703125 1025.40625 126.220703125 999.71484375 87.1259765625 c 128,-1,16
 974.024414062 48.03125 974.024414062 48.03125 913.706054688 19.5478515625 c 128,-1,17
 853.387695312 -8.935546875 853.387695312 -8.935546875 788.043945312 -13.404296875 c 128,-1,18
 722.69921875 -17.8720703125 722.69921875 -17.8720703125 604.296875 -17.8720703125 c 2,19,-1
 569.669921875 -17.8720703125 l 2,20,21
 351.85546875 -17.8720703125 351.85546875 -17.8720703125 271.989257812 24.015625 c 128,-1,22
 192.124023438 65.9033203125 192.124023438 65.9033203125 164.19921875 172.017578125 c 0,23,24
 128.455078125 312.759765625 128.455078125 312.759765625 128.455078125 628.87109375 c 2,0,-1
320.579101562 722.69921875 m 2,25,26
 320.579101562 610.999023438 320.579101562 610.999023438 321.696289062 551.239257812 c 128,-1,27
 322.813476562 491.48046875 322.813476562 491.48046875 326.1640625 420.55078125 c 128,-1,28
 329.514648438 349.62109375 329.514648438 349.62109375 336.216796875 318.903320312 c 128,-1,29
 342.918945312 288.185546875 342.918945312 288.185546875 357.998046875 249.090820312 c 128,-1,30
 373.078125 209.99609375 373.078125 209.99609375 391.508789062 197.708984375 c 128,-1,31
 409.939453125 185.421875 409.939453125 185.421875 441.7734375 171.459960938 c 128,-1,32
 473.608398438 157.497070312 473.608398438 157.497070312 509.91015625 155.262695312 c 128,-1,33
 546.212890625 153.029296875 546.212890625 153.029296875 602.063476562 153.029296875 c 0,34,35
 684.720703125 153.029296875 684.720703125 153.029296875 732.193359375 165.874023438 c 128,-1,36
 779.666015625 178.719726562 779.666015625 178.719726562 810.942382812 203.852539062 c 128,-1,37
 842.217773438 228.985351562 842.217773438 228.985351562 854.504882812 284.834960938 c 128,-1,38
 866.791992188 340.684570312 866.791992188 340.684570312 871.259765625 409.380859375 c 128,-1,39
 875.727539062 478.076171875 875.727539062 478.076171875 877.961914062 594.244140625 c 0,40,41
 877.961914062 612.116210938 877.961914062 612.116210938 877.961914062 622.168945312 c 2,42,-1
 877.961914062 755.091796875 l 2,43,44
 877.961914062 873.494140625 877.961914062 873.494140625 875.727539062 943.306640625 c 128,-1,45
 873.494140625 1013.11914062 873.494140625 1013.11914062 863.44140625 1075.11230469 c 128,-1,46
 853.387695312 1137.10644531 853.387695312 1137.10644531 837.19140625 1164.47265625 c 128,-1,47
 820.995117188 1191.83886719 820.995117188 1191.83886719 789.16015625 1213.62011719 c 128,-1,48
 757.326171875 1235.40234375 757.326171875 1235.40234375 718.231445312 1239.87011719 c 128,-1,49
 679.135742188 1244.33789062 679.135742188 1244.33789062 615.466796875 1244.33789062 c 0,50,51
 539.510742188 1244.33789062 539.510742188 1244.33789062 499.857421875 1240.98730469 c 128,-1,52
 460.204101562 1237.63574219 460.204101562 1237.63574219 419.9921875 1218.08886719 c 128,-1,53
 379.780273438 1198.54101562 379.780273438 1198.54101562 364.700195312 1172.29101562 c 128,-1,54
 349.62109375 1146.04199219 349.62109375 1146.04199219 337.333984375 1081.81445312 c 128,-1,55
 325.046875 1017.58691406 325.046875 1017.58691406 322.813476562 943.306640625 c 128,-1,56
 320.579101562 869.026367188 320.579101562 869.026367188 320.579101562 739.454101562 c 2,57,-1
 320.579101562 722.69921875 l 2,25,26
EndSplineSet
Validated: 524801
Substitution2: "Single Substitution lookup 63 subtable" ordmasculine
Substitution2: "'fwid' Full Widths lookup 32 subtable" uniFF2F
Substitution2: "'c2sc' Capitals to Small Capitals lookup 26 subtable" o.sc
AlternateSubs2: "'aalt' Access All Alternates lookup 1 subtable" ordmasculine o.sc uniFF2F
EndChar

StartChar: P
Encoding: 80 80 15
Width: 1200
VWidth: 2287
GlyphClass: 2
Flags: W
LayerCount: 2
Fore
SplineSet
41.3291015625 87.1259765625 m 0,0,1
 41.3291015625 172.017578125 41.3291015625 172.017578125 130.689453125 172.017578125 c 2,2,-1
 203.293945312 172.017578125 l 1,3,-1
 203.293945312 1224.23242188 l 1,4,-1
 130.689453125 1224.23242188 l 2,5,6
 41.3291015625 1224.23242188 41.3291015625 1224.23242188 41.3291015625 1308.00683594 c 0,7,8
 41.3291015625 1397.3671875 41.3291015625 1397.3671875 126.220703125 1397.3671875 c 2,9,-1
 661.263671875 1397.3671875 l 2,10,11
 785.250976562 1397.3671875 785.250976562 1397.3671875 875.169921875 1356.59667969 c 128,-1,12
 965.087890625 1315.82617188 965.087890625 1315.82617188 1010.88476562 1247.13085938 c 128,-1,13
 1056.68164062 1178.43457031 1056.68164062 1178.43457031 1077.34667969 1107.50585938 c 128,-1,14
 1098.01074219 1036.57617188 1098.01074219 1036.57617188 1098.01074219 962.853515625 c 0,15,16
 1098.01074219 884.6640625 1098.01074219 884.6640625 1077.34667969 815.41015625 c 128,-1,17
 1056.68164062 746.15625 1056.68164062 746.15625 1009.76757812 677.4609375 c 128,-1,18
 962.853515625 608.764648438 962.853515625 608.764648438 870.142578125 567.435546875 c 128,-1,19
 777.431640625 526.107421875 777.431640625 526.107421875 652.328125 526.107421875 c 2,20,-1
 395.41796875 526.107421875 l 1,21,-1
 395.41796875 172.017578125 l 1,22,-1
 469.139648438 172.017578125 l 2,23,24
 556.265625 172.017578125 556.265625 172.017578125 556.265625 91.59375 c 0,25,26
 556.265625 65.9033203125 556.265625 65.9033203125 554.032226562 51.3818359375 c 128,-1,27
 551.797851562 36.861328125 551.797851562 36.861328125 530.016601562 18.4306640625 c 128,-1,28
 508.235351562 0 508.235351562 0 464.671875 0 c 2,29,-1
 130.689453125 0 l 2,30,31
 41.3291015625 0 41.3291015625 0 41.3291015625 87.1259765625 c 0,0,1
395.41796875 698.125 m 1,32,-1
 610.999023438 698.125 l 2,33,34
 775.198242188 698.125 775.198242188 698.125 841.659179688 779.107421875 c 128,-1,35
 908.12109375 860.08984375 908.12109375 860.08984375 908.12109375 960.620117188 c 0,36,37
 908.12109375 1001.94921875 908.12109375 1001.94921875 896.951171875 1042.16113281 c 128,-1,38
 885.78125 1082.37304688 885.78125 1082.37304688 855.622070312 1127.05273438 c 128,-1,39
 825.462890625 1171.73339844 825.462890625 1171.73339844 761.793945312 1197.98242188 c 128,-1,40
 698.125 1224.23242188 698.125 1224.23242188 606.53125 1224.23242188 c 2,41,-1
 395.41796875 1224.23242188 l 1,42,-1
 395.41796875 698.125 l 1,32,-1
EndSplineSet
Validated: 524801
Substitution2: "'fwid' Full Widths lookup 32 subtable" uniFF30
Substitution2: "'c2sc' Capitals to Small Capitals lookup 26 subtable" p.sc
AlternateSubs2: "'aalt' Access All Alternates lookup 1 subtable" p.sc uniFF30
EndChar

StartChar: Q
Encoding: 81 81 16
Width: 1200
VWidth: 2287
GlyphClass: 2
Flags: W
LayerCount: 2
Fore
SplineSet
128.455078125 650.09375 m 2,0,-1
 128.455078125 770.73046875 l 2,1,2
 130.689453125 932.6953125 130.689453125 932.6953125 134.040039062 1020.93847656 c 128,-1,3
 137.390625 1109.18066406 137.390625 1109.18066406 155.821289062 1194.07324219 c 128,-1,4
 174.251953125 1278.96484375 174.251953125 1278.96484375 199.384765625 1313.03320312 c 128,-1,5
 224.516601562 1347.1015625 224.516601562 1347.1015625 280.3671875 1375.5859375 c 128,-1,6
 336.216796875 1404.06933594 336.216796875 1404.06933594 402.678710938 1410.21289062 c 128,-1,7
 469.139648438 1416.35644531 469.139648438 1416.35644531 583.07421875 1416.35644531 c 2,8,-1
 617.701171875 1416.35644531 l 2,9,10
 707.060546875 1416.35644531 707.060546875 1416.35644531 758.443359375 1413.00488281 c 128,-1,11
 809.825195312 1409.65429688 809.825195312 1409.65429688 884.10546875 1386.75585938 c 128,-1,12
 958.385742188 1363.85742188 958.385742188 1363.85742188 993.012695312 1320.29394531 c 0,13,14
 1070.0859375 1220.88085938 1070.0859375 1220.88085938 1070.0859375 774.081054688 c 0,15,16
 1070.0859375 768.49609375 1070.0859375 768.49609375 1070.0859375 761.793945312 c 2,17,-1
 1070.0859375 667.965820312 l 2,18,19
 1070.0859375 404.353515625 1070.0859375 404.353515625 1052.21386719 269.755859375 c 128,-1,20
 1034.34179688 135.157226562 1034.34179688 135.157226562 1000.83203125 88.2431640625 c 128,-1,21
 967.322265625 41.3291015625 967.322265625 41.3291015625 901.418945312 13.404296875 c 1,22,23
 921.525390625 -25.69140625 921.525390625 -25.69140625 942.189453125 -66.4619140625 c 128,-1,24
 962.853515625 -107.232421875 962.853515625 -107.232421875 975.69921875 -131.247070312 c 128,-1,25
 988.544921875 -155.262695312 988.544921875 -155.262695312 1000.83203125 -179.278320312 c 128,-1,26
 1013.11914062 -203.293945312 1013.11914062 -203.293945312 1019.26269531 -216.139648438 c 128,-1,27
 1025.40625 -228.985351562 1025.40625 -228.985351562 1029.87402344 -241.272460938 c 128,-1,28
 1034.34179688 -253.55859375 1034.34179688 -253.55859375 1036.57617188 -260.819335938 c 128,-1,29
 1038.80957031 -268.080078125 1038.80957031 -268.080078125 1038.80957031 -272.547851562 c 0,30,31
 1038.80957031 -318.344726562 1038.80957031 -318.344726562 976.2578125 -318.344726562 c 2,32,-1
 901.418945312 -318.344726562 l 2,33,34
 864.557617188 -318.344726562 864.557617188 -318.344726562 847.244140625 -307.733398438 c 128,-1,35
 829.930664062 -297.122070312 829.930664062 -297.122070312 814.29296875 -263.612304688 c 0,36,37
 772.963867188 -178.719726562 772.963867188 -178.719726562 744.48046875 -121.194335938 c 128,-1,38
 715.997070312 -63.6689453125 715.997070312 -63.6689453125 707.060546875 -45.796875 c 128,-1,39
 698.125 -27.9248046875 698.125 -27.9248046875 693.657226562 -17.8720703125 c 1,40,-1
 569.669921875 -17.8720703125 l 2,41,42
 438.981445312 -17.8720703125 438.981445312 -17.8720703125 360.232421875 -4.4677734375 c 128,-1,43
 281.484375 8.935546875 281.484375 8.935546875 236.803710938 46.9140625 c 128,-1,44
 192.124023438 84.8916015625 192.124023438 84.8916015625 174.810546875 130.689453125 c 128,-1,45
 157.497070312 176.486328125 157.497070312 176.486328125 146.327148438 258.02734375 c 0,46,47
 128.455078125 382.013671875 128.455078125 382.013671875 128.455078125 650.09375 c 2,0,-1
320.579101562 695.890625 m 2,48,49
 320.579101562 558.5 320.579101562 558.5 322.813476562 486.453125 c 128,-1,50
 325.046875 414.407226562 325.046875 414.407226562 333.983398438 343.477539062 c 128,-1,51
 342.918945312 272.547851562 342.918945312 272.547851562 357.998046875 242.388671875 c 128,-1,52
 373.078125 212.23046875 373.078125 212.23046875 404.912109375 188.21484375 c 128,-1,53
 436.747070312 164.19921875 436.747070312 164.19921875 478.076171875 158.614257812 c 128,-1,54
 519.405273438 153.029296875 519.405273438 153.029296875 585.307617188 153.029296875 c 2,55,-1
 608.764648438 153.029296875 l 1,56,57
 590.892578125 192.124023438 590.892578125 192.124023438 565.202148438 241.272460938 c 128,-1,58
 539.510742188 290.419921875 539.510742188 290.419921875 530.575195312 311.084960938 c 128,-1,59
 521.638671875 331.749023438 521.638671875 331.749023438 521.638671875 345.153320312 c 0,60,61
 521.638671875 390.950195312 521.638671875 390.950195312 587.541992188 390.950195312 c 2,62,-1
 672.43359375 390.950195312 l 2,63,64
 700.359375 388.715820312 700.359375 388.715820312 710.412109375 376.428710938 c 128,-1,65
 720.46484375 364.141601562 720.46484375 364.141601562 770.73046875 265.845703125 c 0,66,67
 793.0703125 224.516601562 793.0703125 224.516601562 807.590820312 196.591796875 c 1,68,69
 829.930664062 218.931640625 829.930664062 218.931640625 843.893554688 247.973632812 c 128,-1,70
 857.856445312 277.015625 857.856445312 277.015625 867.909179688 371.9609375 c 128,-1,71
 877.961914062 466.90625 877.961914062 466.90625 877.961914062 628.87109375 c 2,72,-1
 877.961914062 759.559570312 l 2,73,74
 877.961914062 885.78125 877.961914062 885.78125 874.611328125 963.412109375 c 128,-1,75
 871.259765625 1041.04394531 871.259765625 1041.04394531 854.504882812 1099.12792969 c 128,-1,76
 837.75 1157.21191406 837.75 1157.21191406 823.787109375 1183.46191406 c 128,-1,77
 809.825195312 1209.7109375 809.825195312 1209.7109375 766.26171875 1224.79003906 c 128,-1,78
 722.69921875 1239.87011719 722.69921875 1239.87011719 688.630859375 1242.10351562 c 128,-1,79
 654.561523438 1244.33789062 654.561523438 1244.33789062 576.372070312 1244.33789062 c 0,80,81
 484.778320312 1244.33789062 484.778320312 1244.33789062 438.981445312 1232.05078125 c 128,-1,82
 393.18359375 1219.76367188 393.18359375 1219.76367188 364.700195312 1165.58984375 c 128,-1,83
 336.216796875 1111.41503906 336.216796875 1111.41503906 329.514648438 1033.78320312 c 128,-1,84
 322.813476562 956.15234375 322.813476562 956.15234375 320.579101562 796.420898438 c 2,85,-1
 320.579101562 695.890625 l 2,48,49
EndSplineSet
Validated: 524801
Substitution2: "'fwid' Full Widths lookup 32 subtable" uniFF31
Substitution2: "'c2sc' Capitals to Small Capitals lookup 26 subtable" q.sc
AlternateSubs2: "'aalt' Access All Alternates lookup 1 subtable" q.sc uniFF31
EndChar

StartChar: R
Encoding: 82 82 17
Width: 1200
VWidth: 2287
GlyphClass: 2
Flags: W
LayerCount: 2
Fore
SplineSet
34.626953125 82.658203125 m 0,0,1
 34.626953125 108.348632812 34.626953125 108.348632812 36.861328125 121.752929688 c 128,-1,2
 39.0947265625 135.157226562 39.0947265625 135.157226562 60.876953125 153.587890625 c 128,-1,3
 82.658203125 172.017578125 82.658203125 172.017578125 126.220703125 172.017578125 c 2,4,-1
 183.188476562 172.017578125 l 1,5,-1
 183.188476562 1224.23242188 l 1,6,-1
 123.987304688 1224.23242188 l 2,7,8
 34.626953125 1224.23242188 34.626953125 1224.23242188 34.626953125 1310.79980469 c 128,-1,9
 34.626953125 1397.3671875 34.626953125 1397.3671875 123.987304688 1397.3671875 c 2,10,-1
 541.745117188 1397.3671875 l 2,11,12
 772.963867188 1397.3671875 772.963867188 1397.3671875 881.87109375 1279.5234375 c 128,-1,13
 990.779296875 1161.6796875 990.779296875 1161.6796875 990.779296875 1004.18261719 c 0,14,15
 990.779296875 788.6015625 990.779296875 788.6015625 823.228515625 683.603515625 c 1,16,-1
 832.165039062 672.43359375 l 2,17,18
 843.334960938 663.498046875 843.334960938 663.498046875 846.127929688 660.147460938 c 128,-1,19
 848.919921875 656.795898438 848.919921875 656.795898438 858.97265625 643.950195312 c 128,-1,20
 869.026367188 631.10546875 869.026367188 631.10546875 873.494140625 624.403320312 c 128,-1,21
 877.961914062 617.701171875 877.961914062 617.701171875 887.456054688 602.62109375 c 128,-1,22
 896.951171875 587.541992188 896.951171875 587.541992188 901.418945312 576.372070312 c 128,-1,23
 905.88671875 565.202148438 905.88671875 565.202148438 911.471679688 547.888671875 c 128,-1,24
 917.056640625 530.575195312 917.056640625 530.575195312 920.408203125 513.26171875 c 128,-1,25
 923.758789062 495.948242188 923.758789062 495.948242188 925.993164062 475.841796875 c 128,-1,26
 928.2265625 455.736328125 928.2265625 455.736328125 928.2265625 432.279296875 c 2,27,-1
 928.2265625 303.82421875 l 2,28,29
 928.2265625 216.698242188 928.2265625 216.698242188 942.189453125 188.21484375 c 128,-1,30
 956.15234375 159.731445312 956.15234375 159.731445312 988.544921875 153.029296875 c 1,31,32
 995.247070312 170.901367188 995.247070312 170.901367188 999.71484375 217.256835938 c 128,-1,33
 1004.18261719 263.612304688 1004.18261719 263.612304688 1024.84765625 281.484375 c 128,-1,34
 1045.51171875 299.356445312 1045.51171875 299.356445312 1100.24511719 299.356445312 c 0,35,36
 1194.07324219 299.356445312 1194.07324219 299.356445312 1194.07324219 217.815429688 c 0,37,38
 1194.07324219 128.455078125 1194.07324219 128.455078125 1138.22265625 55.291015625 c 128,-1,39
 1082.37304688 -17.8720703125 1082.37304688 -17.8720703125 988.544921875 -17.8720703125 c 0,40,41
 890.249023438 -17.8720703125 890.249023438 -17.8720703125 813.17578125 53.0576171875 c 128,-1,42
 736.102539062 123.987304688 736.102539062 123.987304688 736.102539062 299.356445312 c 2,43,-1
 736.102539062 469.139648438 l 2,44,45
 733.869140625 494.831054688 733.869140625 494.831054688 719.34765625 523.314453125 c 128,-1,46
 704.827148438 551.797851562 704.827148438 551.797851562 656.795898438 582.515625 c 128,-1,47
 608.764648438 613.233398438 608.764648438 613.233398438 535.04296875 613.233398438 c 2,48,-1
 375.311523438 613.233398438 l 1,49,-1
 375.311523438 172.017578125 l 1,50,-1
 438.981445312 172.017578125 l 2,51,52
 526.107421875 172.017578125 526.107421875 172.017578125 526.107421875 91.59375 c 0,53,54
 526.107421875 0 526.107421875 0 434.512695312 0 c 2,55,-1
 123.987304688 0 l 2,56,57
 34.626953125 0 34.626953125 0 34.626953125 82.658203125 c 0,0,1
375.311523438 784.133789062 m 1,58,-1
 512.703125 784.133789062 l 2,59,60
 670.200195312 784.133789062 670.200195312 784.133789062 734.427734375 851.712890625 c 128,-1,61
 798.655273438 919.291015625 798.655273438 919.291015625 798.655273438 1004.18261719 c 0,62,63
 798.655273438 1091.30859375 798.655273438 1091.30859375 735.544921875 1158.88769531 c 128,-1,64
 672.43359375 1226.46582031 672.43359375 1226.46582031 512.703125 1226.46582031 c 0,65,66
 508.235351562 1226.46582031 508.235351562 1226.46582031 500.974609375 1225.34863281 c 128,-1,67
 493.713867188 1224.23242188 493.713867188 1224.23242188 491.48046875 1224.23242188 c 2,68,-1
 375.311523438 1224.23242188 l 1,69,-1
 375.311523438 784.133789062 l 1,58,-1
EndSplineSet
Validated: 524801
Substitution2: "'fwid' Full Widths lookup 32 subtable" uniFF32
Substitution2: "'c2sc' Capitals to Small Capitals lookup 26 subtable" r.sc
AlternateSubs2: "'aalt' Access All Alternates lookup 1 subtable" r.sc uniFF32
EndChar

StartChar: S
Encoding: 83 83 18
Width: 1200
VWidth: 2287
GlyphClass: 2
Flags: W
LayerCount: 2
Fore
SplineSet
118.40234375 68.13671875 m 2,0,-1
 118.40234375 382.013671875 l 2,1,2
 120.635742188 464.671875 120.635742188 464.671875 205.528320312 464.671875 c 0,3,4
 264.728515625 464.671875 264.728515625 464.671875 288.185546875 446.799804688 c 0,5,6
 312.759765625 426.694335938 312.759765625 426.694335938 310.526367188 399.885742188 c 0,7,8
 310.526367188 396.53515625 310.526367188 396.53515625 309.409179688 393.18359375 c 0,9,10
 308.291992188 367.493164062 308.291992188 367.493164062 319.461914062 329.514648438 c 0,11,12
 330.631835938 285.952148438 330.631835938 285.952148438 364.141601562 249.090820312 c 0,13,14
 455.736328125 153.029296875 455.736328125 153.029296875 650.09375 153.029296875 c 0,15,16
 783.016601562 153.029296875 783.016601562 153.029296875 839.984375 221.724609375 c 128,-1,17
 896.951171875 290.419921875 896.951171875 290.419921875 896.951171875 377.545898438 c 0,18,19
 896.951171875 457.969726562 896.951171875 457.969726562 856.739257812 508.235351562 c 128,-1,20
 816.52734375 558.5 816.52734375 558.5 772.963867188 578.606445312 c 0,21,22
 736.102539062 596.477539062 736.102539062 596.477539062 570.228515625 634.456054688 c 128,-1,23
 404.353515625 672.43359375 404.353515625 672.43359375 364.141601562 688.072265625 c 0,24,25
 274.782226562 724.932617188 274.782226562 724.932617188 196.591796875 812.05859375 c 128,-1,26
 118.40234375 899.184570312 118.40234375 899.184570312 118.40234375 1038.80957031 c 0,27,28
 118.40234375 1189.60546875 118.40234375 1189.60546875 226.192382812 1302.98046875 c 128,-1,29
 333.983398438 1416.35644531 333.983398438 1416.35644531 539.510742188 1416.35644531 c 0,30,31
 722.69921875 1416.35644531 722.69921875 1416.35644531 851.154296875 1322.52832031 c 1,32,33
 881.313476562 1392.89941406 881.313476562 1392.89941406 903.653320312 1407.41992188 c 0,34,35
 919.291015625 1416.35644531 919.291015625 1416.35644531 944.982421875 1416.35644531 c 0,36,37
 1018.70410156 1416.35644531 1018.70410156 1416.35644531 1017.58691406 1329.23046875 c 2,38,-1
 1017.58691406 1015.35253906 l 2,39,40
 1017.58691406 993.012695312 1017.58691406 993.012695312 1014.23632812 977.93359375 c 128,-1,41
 1010.88476562 962.853515625 1010.88476562 962.853515625 990.220703125 947.215820312 c 128,-1,42
 969.555664062 931.578125 969.555664062 931.578125 931.578125 931.578125 c 2,43,-1
 908.12109375 931.578125 l 2,44,45
 846.685546875 931.578125 846.685546875 931.578125 829.930664062 981.842773438 c 0,46,47
 829.930664062 984.077148438 829.930664062 984.077148438 824.345703125 1010.32617188 c 128,-1,48
 818.760742188 1036.57617188 818.760742188 1036.57617188 813.17578125 1062.82519531 c 128,-1,49
 807.590820312 1089.07519531 807.590820312 1089.07519531 786.926757812 1123.14355469 c 128,-1,50
 766.26171875 1157.21191406 766.26171875 1157.21191406 737.778320312 1182.34472656 c 128,-1,51
 709.294921875 1207.4765625 709.294921875 1207.4765625 656.795898438 1225.90722656 c 128,-1,52
 604.296875 1244.33789062 604.296875 1244.33789062 537.27734375 1244.33789062 c 0,53,54
 411.055664062 1244.33789062 411.055664062 1244.33789062 356.323242188 1184.01953125 c 128,-1,55
 301.58984375 1123.70214844 301.58984375 1123.70214844 301.58984375 1047.74609375 c 0,56,57
 301.58984375 977.375 301.58984375 977.375 350.73828125 926.551757812 c 128,-1,58
 399.885742188 875.727539062 399.885742188 875.727539062 460.204101562 857.856445312 c 0,59,60
 508.235351562 842.217773438 508.235351562 842.217773438 581.3984375 827.138671875 c 128,-1,61
 654.561523438 812.05859375 654.561523438 812.05859375 708.177734375 799.772460938 c 128,-1,62
 761.793945312 787.485351562 761.793945312 787.485351562 819.877929688 766.8203125 c 128,-1,63
 877.961914062 746.15625 877.961914062 746.15625 927.110351562 705.944335938 c 128,-1,64
 976.2578125 665.732421875 976.2578125 665.732421875 1013.11914062 608.764648438 c 0,65,66
 1079.02246094 508.235351562 1079.02246094 508.235351562 1080.13867188 388.715820312 c 0,67,68
 1080.13867188 218.931640625 1080.13867188 218.931640625 970.114257812 100.530273438 c 128,-1,69
 860.08984375 -17.8720703125 860.08984375 -17.8720703125 652.328125 -17.8720703125 c 0,70,71
 436.747070312 -17.8720703125 436.747070312 -17.8720703125 288.185546875 73.7216796875 c 1,72,73
 285.952148438 69.25390625 285.952148438 69.25390625 279.25 54.1748046875 c 128,-1,74
 272.547851562 39.0947265625 272.547851562 39.0947265625 269.197265625 32.392578125 c 128,-1,75
 265.845703125 25.69140625 265.845703125 25.69140625 257.46875 13.962890625 c 128,-1,76
 249.090820312 2.234375 249.090820312 2.234375 241.272460938 -3.3505859375 c 128,-1,77
 233.453125 -8.935546875 233.453125 -8.935546875 220.607421875 -13.404296875 c 128,-1,78
 207.76171875 -17.8720703125 207.76171875 -17.8720703125 192.124023438 -17.8720703125 c 0,79,80
 191.006835938 -17.8720703125 191.006835938 -17.8720703125 189.889648438 -17.8720703125 c 0,81,82
 118.40234375 -17.8720703125 118.40234375 -17.8720703125 118.40234375 68.13671875 c 2,0,-1
EndSplineSet
Validated: 524833
Substitution2: "'fwid' Full Widths lookup 32 subtable" uniFF33
Substitution2: "'c2sc' Capitals to Small Capitals lookup 26 subtable" s.sc
AlternateSubs2: "'aalt' Access All Alternates lookup 1 subtable" s.sc uniFF33
EndChar

StartChar: T
Encoding: 84 84 19
Width: 1200
VWidth: 2287
GlyphClass: 2
Flags: W
LayerCount: 2
Fore
SplineSet
59.201171875 1098.01074219 m 2,0,-1
 59.201171875 1311.35839844 l 2,1,2
 59.201171875 1397.3671875 59.201171875 1397.3671875 144.092773438 1397.3671875 c 0,3,4
 145.209960938 1397.3671875 145.209960938 1397.3671875 146.327148438 1397.3671875 c 2,5,-1
 1054.44824219 1397.3671875 l 2,6,7
 1095.77734375 1397.3671875 1095.77734375 1397.3671875 1116.44140625 1375.5859375 c 128,-1,8
 1137.10644531 1353.80371094 1137.10644531 1353.80371094 1138.22265625 1340.40039062 c 128,-1,9
 1139.33984375 1326.99609375 1139.33984375 1326.99609375 1139.33984375 1299.07128906 c 2,10,-1
 1139.33984375 1104.71289062 l 2,11,12
 1139.33984375 1008.65136719 1139.33984375 1008.65136719 1054.44824219 1008.65136719 c 2,13,-1
 1041.04394531 1008.65136719 l 2,14,15
 999.71484375 1008.65136719 999.71484375 1008.65136719 977.93359375 1023.73046875 c 128,-1,16
 956.15234375 1038.80957031 956.15234375 1038.80957031 951.68359375 1054.44824219 c 128,-1,17
 947.215820312 1070.0859375 947.215820312 1070.0859375 947.215820312 1100.24511719 c 2,18,-1
 947.215820312 1224.23242188 l 1,19,-1
 695.890625 1224.23242188 l 1,20,-1
 695.890625 172.017578125 l 1,21,-1
 816.52734375 172.017578125 l 2,22,23
 905.88671875 172.017578125 905.88671875 172.017578125 905.88671875 87.1259765625 c 0,24,25
 905.88671875 34.626953125 905.88671875 34.626953125 882.98828125 17.3134765625 c 128,-1,26
 860.08984375 0 860.08984375 0 818.760742188 0 c 2,27,-1
 379.780273438 0 l 2,28,29
 292.654296875 0 292.654296875 0 292.654296875 82.658203125 c 0,30,31
 292.654296875 126.220703125 292.654296875 126.220703125 308.850585938 145.209960938 c 128,-1,32
 325.046875 164.19921875 325.046875 164.19921875 340.684570312 168.108398438 c 128,-1,33
 356.323242188 172.017578125 356.323242188 172.017578125 382.013671875 172.017578125 c 2,34,-1
 503.766601562 172.017578125 l 1,35,-1
 503.766601562 1224.23242188 l 1,36,-1
 251.325195312 1224.23242188 l 1,37,-1
 251.325195312 1100.24511719 l 2,38,39
 251.325195312 1043.27832031 251.325195312 1043.27832031 227.309570312 1025.96484375 c 128,-1,40
 203.293945312 1008.65136719 203.293945312 1008.65136719 150.794921875 1008.65136719 c 2,41,-1
 144.092773438 1008.65136719 l 2,42,43
 59.201171875 1008.65136719 59.201171875 1008.65136719 59.201171875 1098.01074219 c 2,0,-1
EndSplineSet
Validated: 524801
Substitution2: "'fwid' Full Widths lookup 32 subtable" uniFF34
Substitution2: "'c2sc' Capitals to Small Capitals lookup 26 subtable" t.sc
AlternateSubs2: "'aalt' Access All Alternates lookup 1 subtable" t.sc uniFF34
EndChar

StartChar: U
Encoding: 85 85 20
Width: 1200
VWidth: 2287
GlyphClass: 2
Flags: W
LayerCount: 2
Fore
SplineSet
-6.7021484375 1311.35839844 m 0,0,1
 -8.935546875 1397.3671875 -8.935546875 1397.3671875 80.423828125 1397.3671875 c 0,2,3
 81.541015625 1397.3671875 81.541015625 1397.3671875 82.658203125 1397.3671875 c 2,4,-1
 418.875 1397.3671875 l 2,5,6
 508.235351562 1397.3671875 508.235351562 1397.3671875 508.235351562 1315.82617188 c 0,7,8
 508.235351562 1295.71972656 508.235351562 1295.71972656 506.000976562 1283.99121094 c 128,-1,9
 503.766601562 1272.26269531 503.766601562 1272.26269531 496.506835938 1256.06640625 c 128,-1,10
 489.24609375 1239.87011719 489.24609375 1239.87011719 468.581054688 1232.05078125 c 128,-1,11
 447.916992188 1224.23242188 447.916992188 1224.23242188 416.640625 1224.23242188 c 2,12,-1
 347.38671875 1224.23242188 l 1,13,-1
 347.38671875 484.778320312 l 2,14,15
 347.38671875 299.356445312 347.38671875 299.356445312 424.459960938 226.192382812 c 128,-1,16
 501.533203125 153.029296875 501.533203125 153.029296875 602.063476562 153.029296875 c 0,17,18
 645.625976562 153.029296875 645.625976562 153.029296875 685.279296875 166.991210938 c 128,-1,19
 724.932617188 180.954101562 724.932617188 180.954101562 766.26171875 213.905273438 c 128,-1,20
 807.590820312 246.857421875 807.590820312 246.857421875 831.606445312 317.786132812 c 128,-1,21
 855.622070312 388.715820312 855.622070312 388.715820312 855.622070312 489.24609375 c 2,22,-1
 855.622070312 1224.23242188 l 1,23,-1
 781.900390625 1224.23242188 l 2,24,25
 692.540039062 1224.23242188 692.540039062 1224.23242188 692.540039062 1310.24121094 c 0,26,27
 692.540039062 1397.3671875 692.540039062 1397.3671875 779.666015625 1397.3671875 c 2,28,-1
 1118.1171875 1397.3671875 l 2,29,30
 1207.4765625 1397.3671875 1207.4765625 1397.3671875 1207.4765625 1311.35839844 c 0,31,32
 1207.4765625 1272.26269531 1207.4765625 1272.26269531 1190.72167969 1251.59863281 c 128,-1,33
 1173.96679688 1230.93359375 1173.96679688 1230.93359375 1158.88769531 1227.58300781 c 128,-1,34
 1143.80761719 1224.23242188 1143.80761719 1224.23242188 1121.46777344 1224.23242188 c 2,35,-1
 1045.51171875 1224.23242188 l 1,36,-1
 1045.51171875 491.48046875 l 2,37,38
 1045.51171875 369.7265625 1045.51171875 369.7265625 1014.79492188 275.340820312 c 128,-1,39
 984.077148438 180.954101562 984.077148438 180.954101562 937.163085938 127.337890625 c 128,-1,40
 890.249023438 73.7216796875 890.249023438 73.7216796875 827.138671875 39.0947265625 c 128,-1,41
 764.028320312 4.4677734375 764.028320312 4.4677734375 710.412109375 -6.7021484375 c 128,-1,42
 656.795898438 -17.8720703125 656.795898438 -17.8720703125 602.063476562 -17.8720703125 c 0,43,44
 528.340820312 -17.8720703125 528.340820312 -17.8720703125 458.528320312 3.9091796875 c 128,-1,45
 388.715820312 25.69140625 388.715820312 25.69140625 316.669921875 77.0732421875 c 128,-1,46
 244.623046875 128.455078125 244.623046875 128.455078125 199.943359375 234.5703125 c 128,-1,47
 155.262695312 340.684570312 155.262695312 340.684570312 155.262695312 489.24609375 c 2,48,-1
 155.262695312 1224.23242188 l 1,49,-1
 80.423828125 1224.23242188 l 2,50,51
 -8.935546875 1224.23242188 -8.935546875 1224.23242188 -6.7021484375 1311.35839844 c 0,0,1
EndSplineSet
Validated: 524833
Substitution2: "'fwid' Full Widths lookup 32 subtable" uniFF35
Substitution2: "'c2sc' Capitals to Small Capitals lookup 26 subtable" u.sc
AlternateSubs2: "'aalt' Access All Alternates lookup 1 subtable" u.sc uniFF35
EndChar

StartChar: V
Encoding: 86 86 21
Width: 1200
VWidth: 2287
GlyphClass: 2
Flags: W
LayerCount: 2
Fore
SplineSet
41.3291015625 1311.35839844 m 0,0,1
 41.3291015625 1361.62304688 41.3291015625 1361.62304688 64.2275390625 1379.49511719 c 128,-1,2
 87.1259765625 1397.3671875 87.1259765625 1397.3671875 128.455078125 1397.3671875 c 2,3,-1
 412.172851562 1397.3671875 l 2,4,5
 495.948242188 1397.3671875 495.948242188 1397.3671875 495.948242188 1321.41113281 c 0,6,7
 495.948242188 1316.94335938 495.948242188 1316.94335938 495.948242188 1311.35839844 c 0,8,9
 495.948242188 1224.23242188 495.948242188 1224.23242188 414.407226562 1224.23242188 c 2,10,-1
 373.078125 1224.23242188 l 1,11,-1
 528.340820312 560.734375 l 1,12,-1
 569.669921875 368.610351562 l 1,13,-1
 594.244140625 220.048828125 l 1,14,-1
 599.829101562 159.731445312 l 1,15,16
 602.063476562 244.623046875 602.063476562 244.623046875 646.184570312 454.060546875 c 128,-1,17
 690.305664062 663.498046875 690.305664062 663.498046875 755.650390625 932.13671875 c 128,-1,18
 820.995117188 1200.77539062 820.995117188 1200.77539062 825.462890625 1224.23242188 c 1,19,-1
 787.485351562 1224.23242188 l 2,20,21
 702.592773438 1224.23242188 702.592773438 1224.23242188 702.592773438 1303.5390625 c 0,22,23
 702.592773438 1308.00683594 702.592773438 1308.00683594 702.592773438 1311.35839844 c 0,24,25
 700.359375 1352.68652344 700.359375 1352.68652344 723.2578125 1375.02734375 c 128,-1,26
 746.15625 1397.3671875 746.15625 1397.3671875 787.485351562 1397.3671875 c 2,27,-1
 1070.0859375 1397.3671875 l 2,28,29
 1157.21191406 1397.3671875 1157.21191406 1397.3671875 1157.21191406 1315.82617188 c 0,30,31
 1157.21191406 1297.95410156 1157.21191406 1297.95410156 1154.97753906 1286.22558594 c 128,-1,32
 1152.74414062 1274.49707031 1152.74414062 1274.49707031 1146.04199219 1257.18359375 c 128,-1,33
 1139.33984375 1239.87011719 1139.33984375 1239.87011719 1118.67578125 1232.05078125 c 128,-1,34
 1098.01074219 1224.23242188 1098.01074219 1224.23242188 1065.61816406 1224.23242188 c 2,35,-1
 1022.0546875 1224.23242188 l 1,36,-1
 746.15625 89.3603515625 l 2,37,38
 728.284179688 15.6376953125 728.284179688 15.6376953125 688.072265625 -2.234375 c 0,39,40
 667.965820312 -11.169921875 667.965820312 -11.169921875 640.041015625 -11.169921875 c 2,41,-1
 565.202148438 -11.169921875 l 2,42,43
 532.80859375 -11.169921875 532.80859375 -11.169921875 512.14453125 -3.3505859375 c 128,-1,44
 491.48046875 4.4677734375 491.48046875 4.4677734375 479.193359375 22.8984375 c 128,-1,45
 466.90625 41.3291015625 466.90625 41.3291015625 463.5546875 51.3818359375 c 128,-1,46
 460.204101562 61.4345703125 460.204101562 61.4345703125 453.501953125 87.1259765625 c 2,47,-1
 201.059570312 1115.8828125 l 2,48,49
 180.954101562 1196.30664062 180.954101562 1196.30664062 176.486328125 1224.23242188 c 1,50,-1
 128.455078125 1224.23242188 l 2,51,52
 41.3291015625 1224.23242188 41.3291015625 1224.23242188 41.3291015625 1311.35839844 c 0,0,1
EndSplineSet
Validated: 524833
Substitution2: "'fwid' Full Widths lookup 32 subtable" uniFF36
Substitution2: "'c2sc' Capitals to Small Capitals lookup 26 subtable" v.sc
AlternateSubs2: "'aalt' Access All Alternates lookup 1 subtable" v.sc uniFF36
EndChar

StartChar: W
Encoding: 87 87 22
Width: 1200
VWidth: 2287
GlyphClass: 2
Flags: W
LayerCount: 2
Fore
SplineSet
25.69140625 1313.59179688 m 0,0,1
 25.69140625 1335.93164062 25.69140625 1335.93164062 29.0419921875 1351.01171875 c 128,-1,2
 32.392578125 1366.09082031 32.392578125 1366.09082031 53.0576171875 1381.72851562 c 128,-1,3
 73.7216796875 1397.3671875 73.7216796875 1397.3671875 111.700195312 1397.3671875 c 2,4,-1
 336.216796875 1397.3671875 l 2,5,6
 418.875 1397.3671875 418.875 1397.3671875 418.875 1308.00683594 c 0,7,8
 421.109375 1224.23242188 421.109375 1224.23242188 336.216796875 1224.23242188 c 0,9,10
 335.099609375 1224.23242188 335.099609375 1224.23242188 333.983398438 1224.23242188 c 2,11,-1
 270.314453125 1224.23242188 l 1,12,-1
 356.323242188 541.745117188 l 1,13,-1
 384.248046875 281.484375 l 1,14,-1
 388.715820312 209.99609375 l 1,15,-1
 390.950195312 159.731445312 l 1,16,17
 393.18359375 269.197265625 393.18359375 269.197265625 418.31640625 423.901367188 c 128,-1,18
 443.44921875 578.606445312 443.44921875 578.606445312 466.90625 679.135742188 c 2,19,-1
 491.48046875 779.666015625 l 1,20,21
 513.8203125 838.8671875 513.8203125 838.8671875 589.776367188 839.984375 c 2,22,-1
 602.063476562 839.984375 l 2,23,24
 680.252929688 839.984375 680.252929688 839.984375 704.827148438 781.900390625 c 0,25,26
 718.231445312 749.506835938 718.231445312 749.506835938 758.443359375 541.745117188 c 128,-1,27
 798.655273438 333.983398438 798.655273438 333.983398438 805.357421875 226.750976562 c 0,28,29
 805.357421875 215.581054688 805.357421875 215.581054688 805.357421875 193.799804688 c 128,-1,30
 805.357421875 172.017578125 805.357421875 172.017578125 807.590820312 159.731445312 c 1,31,32
 816.52734375 329.514648438 816.52734375 329.514648438 833.840820312 493.155273438 c 128,-1,33
 851.154296875 656.795898438 851.154296875 656.795898438 884.10546875 907.00390625 c 128,-1,34
 917.056640625 1157.21191406 917.056640625 1157.21191406 925.993164062 1224.23242188 c 1,35,-1
 864.557617188 1224.23242188 l 2,36,37
 779.666015625 1224.23242188 779.666015625 1224.23242188 779.666015625 1308.00683594 c 0,38,39
 779.666015625 1358.27246094 779.666015625 1358.27246094 802.564453125 1377.81933594 c 128,-1,40
 825.462890625 1397.3671875 825.462890625 1397.3671875 885.78125 1397.3671875 c 2,41,-1
 1084.60742188 1397.3671875 l 2,42,43
 1104.71289062 1397.3671875 1104.71289062 1397.3671875 1119.79296875 1395.1328125 c 128,-1,44
 1134.87207031 1392.89941406 1134.87207031 1392.89941406 1153.30273438 1371.1171875 c 128,-1,45
 1171.73339844 1349.3359375 1171.73339844 1349.3359375 1171.73339844 1308.00683594 c 0,46,47
 1171.73339844 1304.65625 1171.73339844 1304.65625 1171.73339844 1300.18847656 c 0,48,49
 1171.73339844 1224.23242188 1171.73339844 1224.23242188 1084.60742188 1224.23242188 c 0,50,51
 1083.49023438 1224.23242188 1083.49023438 1224.23242188 1082.37304688 1224.23242188 c 0,52,53
 1075.67089844 1178.43457031 1075.67089844 1178.43457031 1063.94238281 1086.84082031 c 128,-1,54
 1052.21386719 995.247070312 1052.21386719 995.247070312 1045.51171875 949.450195312 c 2,55,-1
 931.578125 80.423828125 l 2,56,57
 927.110351562 39.0947265625 927.110351562 39.0947265625 907.5625 17.3134765625 c 128,-1,58
 888.014648438 -4.4677734375 888.014648438 -4.4677734375 870.701171875 -7.8193359375 c 128,-1,59
 853.387695312 -11.169921875 853.387695312 -11.169921875 825.462890625 -11.169921875 c 2,60,-1
 812.05859375 -11.169921875 l 2,61,62
 794.186523438 -11.169921875 794.186523438 -11.169921875 781.341796875 -8.935546875 c 128,-1,63
 768.49609375 -6.7021484375 768.49609375 -6.7021484375 757.326171875 -1.1171875 c 128,-1,64
 746.15625 4.4677734375 746.15625 4.4677734375 737.778320312 11.169921875 c 128,-1,65
 729.401367188 17.8720703125 729.401367188 17.8720703125 722.69921875 32.951171875 c 128,-1,66
 715.997070312 48.03125 715.997070312 48.03125 711.529296875 59.201171875 c 128,-1,67
 707.060546875 70.37109375 707.060546875 70.37109375 700.359375 97.1787109375 c 128,-1,68
 693.657226562 123.987304688 693.657226562 123.987304688 689.747070312 141.859375 c 128,-1,69
 685.837890625 159.731445312 685.837890625 159.731445312 679.135742188 197.708984375 c 128,-1,70
 672.43359375 235.686523438 672.43359375 235.686523438 665.732421875 263.612304688 c 0,71,72
 608.764648438 523.873046875 608.764648438 523.873046875 597.594726562 679.135742188 c 1,73,74
 595.361328125 605.4140625 595.361328125 605.4140625 566.319335938 449.034179688 c 128,-1,75
 537.27734375 292.654296875 537.27734375 292.654296875 510.46875 172.017578125 c 2,76,-1
 482.543945312 50.2646484375 l 1,77,78
 460.204101562 -11.169921875 460.204101562 -11.169921875 384.248046875 -11.169921875 c 2,79,-1
 370.84375 -11.169921875 l 2,80,81
 342.918945312 -11.169921875 342.918945312 -11.169921875 325.60546875 -6.7021484375 c 128,-1,82
 308.291992188 -2.234375 308.291992188 -2.234375 290.419921875 18.4306640625 c 128,-1,83
 272.547851562 39.0947265625 272.547851562 39.0947265625 268.080078125 80.423828125 c 2,84,-1
 113.93359375 1224.23242188 l 1,85,86
 91.59375 1224.23242188 91.59375 1224.23242188 75.3974609375 1227.58300781 c 128,-1,87
 59.201171875 1230.93359375 59.201171875 1230.93359375 42.4462890625 1252.71582031 c 128,-1,88
 25.69140625 1274.49707031 25.69140625 1274.49707031 25.69140625 1313.59179688 c 0,0,1
EndSplineSet
Validated: 524833
Substitution2: "'fwid' Full Widths lookup 32 subtable" uniFF37
Substitution2: "'c2sc' Capitals to Small Capitals lookup 26 subtable" w.sc
AlternateSubs2: "'aalt' Access All Alternates lookup 1 subtable" w.sc uniFF37
EndChar

StartChar: X
Encoding: 88 88 23
Width: 1200
VWidth: 2287
GlyphClass: 2
Flags: W
LayerCount: 2
Fore
SplineSet
61.4345703125 87.1259765625 m 0,0,1
 59.201171875 172.017578125 59.201171875 172.017578125 150.794921875 172.017578125 c 2,2,-1
 217.815429688 172.017578125 l 1,3,-1
 491.48046875 748.389648438 l 1,4,-1
 244.623046875 1224.23242188 l 1,5,-1
 178.719726562 1224.23242188 l 2,6,7
 87.1259765625 1224.23242188 87.1259765625 1224.23242188 87.1259765625 1305.7734375 c 0,8,9
 87.1259765625 1362.74023438 87.1259765625 1362.74023438 112.258789062 1380.05371094 c 128,-1,10
 137.390625 1397.3671875 137.390625 1397.3671875 201.059570312 1397.3671875 c 2,11,-1
 457.969726562 1397.3671875 l 2,12,13
 483.661132812 1397.3671875 483.661132812 1397.3671875 499.298828125 1394.015625 c 128,-1,14
 514.936523438 1390.66503906 514.936523438 1390.66503906 530.575195312 1370.00097656 c 128,-1,15
 546.212890625 1349.3359375 546.212890625 1349.3359375 546.212890625 1308.00683594 c 0,16,17
 548.447265625 1273.37988281 548.447265625 1273.37988281 530.575195312 1248.80566406 c 128,-1,18
 512.703125 1224.23242188 512.703125 1224.23242188 460.204101562 1224.23242188 c 1,19,-1
 587.541992188 974.024414062 l 1,20,-1
 702.592773438 1224.23242188 l 1,21,22
 656.795898438 1224.23242188 656.795898438 1224.23242188 635.014648438 1242.10351562 c 128,-1,23
 613.233398438 1259.97558594 613.233398438 1259.97558594 610.999023438 1273.93847656 c 128,-1,24
 608.764648438 1287.90136719 608.764648438 1287.90136719 608.764648438 1313.59179688 c 0,25,26
 608.764648438 1397.3671875 608.764648438 1397.3671875 691.422851562 1397.3671875 c 0,27,28
 692.540039062 1397.3671875 692.540039062 1397.3671875 693.657226562 1397.3671875 c 2,29,-1
 979.609375 1397.3671875 l 2,30,31
 1001.94921875 1397.3671875 1001.94921875 1397.3671875 1017.02832031 1394.015625 c 128,-1,32
 1032.10839844 1390.66503906 1032.10839844 1390.66503906 1048.86328125 1370.00097656 c 128,-1,33
 1065.61816406 1349.3359375 1065.61816406 1349.3359375 1065.61816406 1311.35839844 c 0,34,35
 1065.61816406 1224.23242188 1065.61816406 1224.23242188 976.2578125 1224.23242188 c 2,36,-1
 910.35546875 1224.23242188 l 1,37,-1
 681.370117188 746.15625 l 1,38,-1
 974.024414062 172.017578125 l 1,39,-1
 1036.57617188 172.017578125 l 2,40,41
 1089.07519531 172.017578125 1089.07519531 172.017578125 1110.85644531 154.704101562 c 128,-1,42
 1132.63769531 137.390625 1132.63769531 137.390625 1132.63769531 84.8916015625 c 0,43,44
 1132.63769531 0 1132.63769531 0 1047.74609375 0 c 2,45,-1
 764.028320312 0 l 2,46,47
 738.336914062 0 738.336914062 0 722.69921875 3.3505859375 c 128,-1,48
 707.060546875 6.7021484375 707.060546875 6.7021484375 690.864257812 28.4833984375 c 128,-1,49
 674.66796875 50.2646484375 674.66796875 50.2646484375 674.66796875 89.3603515625 c 0,50,51
 674.66796875 172.017578125 674.66796875 172.017578125 766.26171875 172.017578125 c 1,52,-1
 585.307617188 541.745117188 l 1,53,-1
 423.342773438 172.017578125 l 1,54,55
 455.736328125 172.017578125 455.736328125 172.017578125 471.374023438 168.108398438 c 128,-1,56
 487.01171875 164.19921875 487.01171875 164.19921875 503.208984375 145.209960938 c 128,-1,57
 519.405273438 126.220703125 519.405273438 126.220703125 519.405273438 84.8916015625 c 0,58,59
 519.405273438 80.423828125 519.405273438 80.423828125 519.405273438 77.0732421875 c 0,60,61
 519.405273438 0 519.405273438 0 436.747070312 0 c 2,62,-1
 148.560546875 0 l 2,63,64
 61.4345703125 0 61.4345703125 0 61.4345703125 79.306640625 c 0,65,66
 61.4345703125 82.658203125 61.4345703125 82.658203125 61.4345703125 87.1259765625 c 0,0,1
EndSplineSet
Validated: 524833
Substitution2: "'fwid' Full Widths lookup 32 subtable" uniFF38
Substitution2: "'c2sc' Capitals to Small Capitals lookup 26 subtable" x.sc
AlternateSubs2: "'aalt' Access All Alternates lookup 1 subtable" x.sc uniFF38
EndChar

StartChar: Y
Encoding: 89 89 24
Width: 1200
VWidth: 2287
GlyphClass: 2
Flags: W
LayerCount: 2
Fore
SplineSet
43.5634765625 1305.7734375 m 0,0,1
 43.5634765625 1397.3671875 43.5634765625 1397.3671875 130.689453125 1397.3671875 c 2,2,-1
 418.875 1397.3671875 l 2,3,4
 501.533203125 1397.3671875 501.533203125 1397.3671875 501.533203125 1310.79980469 c 128,-1,5
 501.533203125 1224.23242188 501.533203125 1224.23242188 416.640625 1224.23242188 c 2,6,-1
 407.705078125 1224.23242188 l 1,7,-1
 537.27734375 925.993164062 l 1,8,-1
 571.904296875 832.165039062 l 1,9,-1
 592.009765625 759.559570312 l 1,10,-1
 599.829101562 718.231445312 l 1,11,-1
 604.296875 746.15625 l 1,12,13
 645.625976562 896.951171875 645.625976562 896.951171875 791.953125 1224.23242188 c 1,14,15
 757.326171875 1224.23242188 757.326171875 1224.23242188 735.544921875 1233.16796875 c 128,-1,16
 713.762695312 1242.10351562 713.762695312 1242.10351562 707.060546875 1260.53417969 c 128,-1,17
 700.359375 1278.96484375 700.359375 1278.96484375 699.2421875 1286.78417969 c 128,-1,18
 698.125 1294.60253906 698.125 1294.60253906 698.125 1313.59179688 c 0,19,20
 698.125 1318.05957031 698.125 1318.05957031 698.125 1321.41113281 c 0,21,22
 698.125 1397.3671875 698.125 1397.3671875 779.666015625 1397.3671875 c 0,23,24
 780.783203125 1397.3671875 780.783203125 1397.3671875 781.900390625 1397.3671875 c 2,25,-1
 1067.8515625 1397.3671875 l 2,26,27
 1154.97753906 1397.3671875 1154.97753906 1397.3671875 1154.97753906 1310.79980469 c 128,-1,28
 1154.97753906 1224.23242188 1154.97753906 1224.23242188 1065.61816406 1224.23242188 c 2,29,-1
 1004.18261719 1224.23242188 l 1,30,-1
 711.529296875 592.009765625 l 1,31,-1
 698.125 558.5 l 1,32,-1
 695.890625 510.46875 l 1,33,-1
 695.890625 172.017578125 l 1,34,-1
 757.326171875 172.017578125 l 2,35,36
 844.452148438 172.017578125 844.452148438 172.017578125 844.452148438 91.59375 c 0,37,38
 844.452148438 0 844.452148438 0 755.091796875 0 c 2,39,-1
 443.44921875 0 l 2,40,41
 354.088867188 0 354.088867188 0 354.088867188 82.658203125 c 0,42,43
 354.088867188 108.348632812 354.088867188 108.348632812 356.881835938 121.752929688 c 128,-1,44
 359.673828125 135.157226562 359.673828125 135.157226562 380.897460938 153.587890625 c 128,-1,45
 402.120117188 172.017578125 402.120117188 172.017578125 445.682617188 172.017578125 c 2,46,-1
 503.766601562 172.017578125 l 1,47,-1
 503.766601562 510.46875 l 1,48,-1
 501.533203125 558.5 l 1,49,-1
 196.591796875 1224.23242188 l 1,50,-1
 130.689453125 1224.23242188 l 2,51,52
 129.572265625 1224.23242188 129.572265625 1224.23242188 128.455078125 1224.23242188 c 0,53,54
 43.5634765625 1224.23242188 43.5634765625 1224.23242188 43.5634765625 1305.7734375 c 0,0,1
EndSplineSet
Validated: 524801
Substitution2: "'fwid' Full Widths lookup 32 subtable" uniFF39
Substitution2: "'c2sc' Capitals to Small Capitals lookup 26 subtable" y.sc
AlternateSubs2: "'aalt' Access All Alternates lookup 1 subtable" y.sc uniFF39
EndChar

StartChar: Z
Encoding: 90 90 25
Width: 1200
VWidth: 2287
GlyphClass: 2
Flags: W
LayerCount: 2
Fore
SplineSet
107.232421875 91.59375 m 0,0,1
 107.232421875 104.998046875 107.232421875 104.998046875 108.348632812 116.7265625 c 128,-1,2
 109.465820312 128.455078125 109.465820312 128.455078125 110.583007812 135.157226562 c 128,-1,3
 111.700195312 141.859375 111.700195312 141.859375 120.077148438 153.029296875 c 128,-1,4
 128.455078125 164.19921875 128.455078125 164.19921875 130.689453125 170.342773438 c 128,-1,5
 132.922851562 176.486328125 132.922851562 176.486328125 147.444335938 197.150390625 c 128,-1,6
 161.96484375 217.815429688 161.96484375 217.815429688 169.784179688 228.985351562 c 2,7,-1
 839.984375 1224.23242188 l 1,8,-1
 327.28125 1224.23242188 l 1,9,-1
 327.28125 1091.30859375 l 2,10,11
 329.514648438 1008.65136719 329.514648438 1008.65136719 237.920898438 1008.65136719 c 2,12,-1
 222.283203125 1008.65136719 l 2,13,14
 199.943359375 1008.65136719 199.943359375 1008.65136719 184.86328125 1012.00195312 c 128,-1,15
 169.784179688 1015.35253906 169.784179688 1015.35253906 152.470703125 1036.01757812 c 128,-1,16
 135.157226562 1056.68164062 135.157226562 1056.68164062 135.157226562 1095.77734375 c 2,17,-1
 135.157226562 1313.59179688 l 2,18,19
 135.157226562 1335.93164062 135.157226562 1335.93164062 139.625 1352.12890625 c 128,-1,20
 144.092773438 1368.32519531 144.092773438 1368.32519531 164.7578125 1382.84570312 c 128,-1,21
 185.421875 1397.3671875 185.421875 1397.3671875 224.516601562 1397.3671875 c 2,22,-1
 999.71484375 1397.3671875 l 2,23,24
 1041.04394531 1397.3671875 1041.04394531 1397.3671875 1062.82519531 1381.72851562 c 128,-1,25
 1084.60742188 1366.09082031 1084.60742188 1366.09082031 1087.95800781 1349.89453125 c 128,-1,26
 1091.30859375 1333.69824219 1091.30859375 1333.69824219 1091.30859375 1308.00683594 c 0,27,28
 1091.30859375 1259.97558594 1091.30859375 1259.97558594 1067.8515625 1226.46582031 c 2,29,-1
 359.673828125 172.017578125 l 1,30,-1
 908.12109375 172.017578125 l 1,31,-1
 908.12109375 342.918945312 l 2,32,33
 908.12109375 397.65234375 908.12109375 397.65234375 933.25390625 414.965820312 c 128,-1,34
 958.385742188 432.279296875 958.385742188 432.279296875 1006.41699219 432.279296875 c 0,35,36
 1034.34179688 432.279296875 1034.34179688 432.279296875 1051.09667969 428.927734375 c 128,-1,37
 1067.8515625 425.577148438 1067.8515625 425.577148438 1084.04882812 403.795898438 c 128,-1,38
 1100.24511719 382.013671875 1100.24511719 382.013671875 1100.24511719 342.918945312 c 2,39,-1
 1100.24511719 87.1259765625 l 2,40,41
 1100.24511719 0 1100.24511719 0 1013.11914062 0 c 2,42,-1
 189.889648438 0 l 2,43,44
 107.232421875 2.234375 107.232421875 2.234375 107.232421875 91.59375 c 0,0,1
EndSplineSet
Validated: 524833
Substitution2: "'fwid' Full Widths lookup 32 subtable" uniFF3A
Substitution2: "'c2sc' Capitals to Small Capitals lookup 26 subtable" z.sc
AlternateSubs2: "'aalt' Access All Alternates lookup 1 subtable" z.sc uniFF3A
EndChar

StartChar: a
Encoding: 97 97 26
Width: 1200
VWidth: 2287
GlyphClass: 2
Flags: W
LayerCount: 2
Fore
SplineSet
107.232421875 316.111328125 m 0,0,1
 107.232421875 405.470703125 107.232421875 405.470703125 170.342773438 469.139648438 c 128,-1,2
 233.453125 532.80859375 233.453125 532.80859375 339.568359375 566.319335938 c 128,-1,3
 445.682617188 599.829101562 445.682617188 599.829101562 557.94140625 614.349609375 c 128,-1,4
 670.200195312 628.87109375 670.200195312 628.87109375 794.186523438 628.87109375 c 1,5,6
 794.186523438 663.498046875 794.186523438 663.498046875 793.0703125 680.811523438 c 128,-1,7
 791.953125 698.125 791.953125 698.125 777.990234375 737.778320312 c 128,-1,8
 764.028320312 777.431640625 764.028320312 777.431640625 738.895507812 799.213867188 c 128,-1,9
 713.762695312 820.995117188 713.762695312 820.995117188 660.147460938 839.42578125 c 128,-1,10
 606.53125 857.856445312 606.53125 857.856445312 528.340820312 857.856445312 c 0,11,12
 480.309570312 857.856445312 480.309570312 857.856445312 450.709960938 856.739257812 c 128,-1,13
 421.109375 855.622070312 421.109375 855.622070312 404.912109375 850.037109375 c 128,-1,14
 388.715820312 844.452148438 388.715820312 844.452148438 384.248046875 843.334960938 c 128,-1,15
 379.780273438 842.217773438 379.780273438 842.217773438 373.078125 829.372070312 c 128,-1,16
 366.375976562 816.52734375 366.375976562 816.52734375 364.141601562 812.05859375 c 0,17,18
 336.216796875 772.963867188 336.216796875 772.963867188 285.952148438 772.963867188 c 0,19,20
 246.857421875 772.963867188 246.857421875 772.963867188 218.373046875 800.330078125 c 128,-1,21
 189.889648438 827.697265625 189.889648438 827.697265625 189.889648438 869.026367188 c 0,22,23
 189.889648438 965.087890625 189.889648438 965.087890625 280.3671875 997.481445312 c 128,-1,24
 370.84375 1029.87402344 370.84375 1029.87402344 535.04296875 1029.87402344 c 0,25,26
 622.168945312 1029.87402344 622.168945312 1029.87402344 696.44921875 1011.44335938 c 128,-1,27
 770.73046875 993.012695312 770.73046875 993.012695312 839.42578125 951.68359375 c 128,-1,28
 908.12109375 910.35546875 908.12109375 910.35546875 947.215820312 829.372070312 c 128,-1,29
 986.310546875 748.389648438 986.310546875 748.389648438 986.310546875 633.338867188 c 2,30,-1
 986.310546875 185.421875 l 1,31,32
 1015.35253906 175.369140625 1015.35253906 175.369140625 1070.0859375 175.369140625 c 0,33,34
 1075.67089844 175.369140625 1075.67089844 175.369140625 1081.25585938 175.369140625 c 0,35,36
 1084.60742188 175.369140625 1084.60742188 175.369140625 1089.07519531 175.369140625 c 0,37,38
 1146.04199219 174.251953125 1146.04199219 174.251953125 1170.61621094 158.614257812 c 0,39,40
 1197.42382812 140.7421875 1197.42382812 140.7421875 1198.54101562 84.8916015625 c 0,41,42
 1198.54101562 0 1198.54101562 0 1115.8828125 0 c 2,43,-1
 1063.38378906 0 l 2,44,45
 956.15234375 0 956.15234375 0 893.041015625 20.6640625 c 128,-1,46
 829.930664062 41.3291015625 829.930664062 41.3291015625 805.357421875 98.2958984375 c 1,47,48
 647.860351562 -8.935546875 647.860351562 -8.935546875 464.671875 -8.935546875 c 0,49,50
 304.94140625 -8.935546875 304.94140625 -8.935546875 206.086914062 91.59375 c 128,-1,51
 107.232421875 192.124023438 107.232421875 192.124023438 107.232421875 316.111328125 c 0,0,1
299.356445312 316.111328125 m 0,52,53
 299.356445312 252.442382812 299.356445312 252.442382812 362.466796875 207.203125 c 128,-1,54
 425.577148438 161.96484375 425.577148438 161.96484375 514.936523438 161.96484375 c 0,55,56
 551.797851562 161.96484375 551.797851562 161.96484375 592.568359375 170.342773438 c 128,-1,57
 633.338867188 178.719726562 633.338867188 178.719726562 681.370117188 198.267578125 c 128,-1,58
 729.401367188 217.815429688 729.401367188 217.815429688 761.793945312 258.5859375 c 128,-1,59
 794.186523438 299.356445312 794.186523438 299.356445312 794.186523438 359.673828125 c 2,60,-1
 794.186523438 482.543945312 l 1,61,62
 567.435546875 478.076171875 567.435546875 478.076171875 433.396484375 435.071289062 c 128,-1,63
 299.356445312 392.067382812 299.356445312 392.067382812 299.356445312 316.111328125 c 0,52,53
EndSplineSet
Validated: 524801
Substitution2: "Single Substitution lookup 63 subtable" ordfeminine
Substitution2: "'ss06' Style Set 6 lookup 46 subtable" a.alternate
Substitution2: "'fwid' Full Widths lookup 32 subtable" uniFF41
Substitution2: "'smcp' Lowercase to Small Capitals lookup 27 subtable" a.sc
Substitution2: "'sinf' Scientific Inferiors lookup 14 subtable" uni2090
Substitution2: "'subs' Subscript lookup 13 subtable" uni2090
AlternateSubs2: "'aalt' Access All Alternates lookup 1 subtable" uni2090 ordfeminine a.sc uniFF41 a.alternate
EndChar

StartChar: b
Encoding: 98 98 27
Width: 1200
VWidth: 2287
GlyphClass: 2
InSpiro: 1
Flags: W
LayerCount: 2
Fore
SplineSet
8.935546875 1311.35839844 m 128,-1,1
 8.935546875 1315.82617188 8.935546875 1315.82617188 8.935546875 1319.17675781 c 0,2,3
 8.935546875 1364.97363281 8.935546875 1364.97363281 33.509765625 1380.61230469 c 0,4,5
 60.318359375 1397.3671875 60.318359375 1397.3671875 100.530273438 1397.3671875 c 2,6,-1
 299.356445312 1397.3671875 l 2,7,8
 333.983398438 1397.3671875 333.983398438 1397.3671875 355.764648438 1390.66503906 c 128,-1,9
 377.545898438 1383.96289062 377.545898438 1383.96289062 385.365234375 1366.64941406 c 128,-1,10
 393.18359375 1349.3359375 393.18359375 1349.3359375 394.30078125 1338.16601562 c 128,-1,11
 395.41796875 1326.99609375 395.41796875 1326.99609375 395.41796875 1303.5390625 c 2,12,-1
 395.41796875 908.12109375 l 1,13,14
 532.80859375 1024.2890625 532.80859375 1024.2890625 695.890625 1025.40625 c 0,15,16
 885.78125 1025.40625 885.78125 1025.40625 1006.97558594 888.014648438 c 128,-1,17
 1128.16992188 750.624023438 1128.16992188 750.624023438 1128.16992188 510.46875 c 0,18,19
 1128.16992188 254.67578125 1128.16992188 254.67578125 989.662109375 122.870117188 c 128,-1,20
 851.154296875 -8.935546875 851.154296875 -8.935546875 667.965820312 -8.935546875 c 0,21,22
 514.936523438 -8.935546875 514.936523438 -8.935546875 395.41796875 109.465820312 c 1,23,-1
 395.41796875 91.59375 l 2,24,25
 395.41796875 0 395.41796875 0 313.876953125 0 c 2,26,-1
 292.654296875 0 l 2,27,28
 203.293945312 0 203.293945312 0 203.293945312 84.8916015625 c 2,29,-1
 203.293945312 1224.23242188 l 1,30,-1
 91.59375 1224.23242188 l 2,31,32
 8.935546875 1224.23242188 8.935546875 1224.23242188 8.935546875 1303.5390625 c 0,33,0
 8.935546875 1306.88964844 8.935546875 1306.88964844 8.935546875 1311.35839844 c 128,-1,1
395.41796875 427.810546875 m 2,34,35
 395.41796875 349.62109375 395.41796875 349.62109375 460.762695312 255.79296875 c 128,-1,36
 526.107421875 161.96484375 526.107421875 161.96484375 637.806640625 161.96484375 c 0,37,38
 772.963867188 161.96484375 772.963867188 161.96484375 854.504882812 255.79296875 c 128,-1,39
 936.045898438 349.62109375 936.045898438 349.62109375 936.045898438 508.235351562 c 0,40,41
 936.045898438 689.189453125 936.045898438 689.189453125 853.387695312 771.288085938 c 128,-1,42
 770.73046875 853.387695312 770.73046875 853.387695312 661.263671875 853.387695312 c 0,43,44
 556.265625 853.387695312 556.265625 853.387695312 475.841796875 781.341796875 c 128,-1,45
 395.41796875 709.294921875 395.41796875 709.294921875 395.41796875 635.573242188 c 2,46,-1
 395.41796875 427.810546875 l 2,34,35
EndSplineSet
Validated: 524801
Substitution2: "'fwid' Full Widths lookup 32 subtable" uniFF42
Substitution2: "'smcp' Lowercase to Small Capitals lookup 27 subtable" b.sc
AlternateSubs2: "'aalt' Access All Alternates lookup 1 subtable" b.sc uniFF42
EndChar

StartChar: c
Encoding: 99 99 28
Width: 1200
VWidth: 2287
GlyphClass: 2
InSpiro: 1
Flags: W
LayerCount: 2
Fore
SplineSet
148.560546875 508.235351562 m 0,0,1
 148.560546875 734.986328125 148.560546875 734.986328125 285.952148438 882.4296875 c 128,-1,2
 423.342773438 1029.87402344 423.342773438 1029.87402344 674.66796875 1029.87402344 c 2,3,-1
 690.305664062 1029.87402344 l 2,4,5
 758.443359375 1029.87402344 758.443359375 1029.87402344 803.681640625 1025.96484375 c 128,-1,6
 848.919921875 1022.0546875 848.919921875 1022.0546875 910.35546875 1008.65136719 c 128,-1,7
 971.790039062 995.247070312 971.790039062 995.247070312 1005.29980469 959.502929688 c 128,-1,8
 1038.80957031 923.758789062 1038.80957031 923.758789062 1038.80957031 869.026367188 c 0,9,10
 1038.80957031 827.697265625 1038.80957031 827.697265625 1011.44335938 800.330078125 c 128,-1,11
 984.077148438 772.963867188 984.077148438 772.963867188 942.748046875 772.963867188 c 0,12,13
 866.791992188 772.963867188 866.791992188 772.963867188 848.919921875 846.685546875 c 1,14,15
 800.888671875 857.856445312 800.888671875 857.856445312 685.837890625 857.856445312 c 0,16,17
 498.181640625 857.856445312 498.181640625 857.856445312 419.43359375 755.091796875 c 128,-1,18
 340.684570312 652.328125 340.684570312 652.328125 340.684570312 510.46875 c 0,19,20
 340.684570312 346.26953125 340.684570312 346.26953125 446.241210938 254.1171875 c 128,-1,21
 551.797851562 161.96484375 551.797851562 161.96484375 709.294921875 161.96484375 c 0,22,23
 827.697265625 161.96484375 827.697265625 161.96484375 871.259765625 274.782226562 c 0,24,25
 886.8984375 316.111328125 886.8984375 316.111328125 905.328125 326.1640625 c 128,-1,26
 923.758789062 336.216796875 923.758789062 336.216796875 958.385742188 336.216796875 c 2,27,-1
 967.322265625 336.216796875 l 2,28,29
 1063.38378906 336.216796875 1063.38378906 336.216796875 1063.38378906 270.314453125 c 0,30,31
 1063.38378906 247.973632812 1063.38378906 247.973632812 1044.39453125 206.086914062 c 128,-1,32
 1025.40625 164.19921875 1025.40625 164.19921875 984.077148438 112.817382812 c 128,-1,33
 942.748046875 61.4345703125 942.748046875 61.4345703125 857.856445312 26.2490234375 c 128,-1,34
 772.963867188 -8.935546875 772.963867188 -8.935546875 663.498046875 -8.935546875 c 0,35,36
 432.279296875 -8.935546875 432.279296875 -8.935546875 290.419921875 134.040039062 c 128,-1,37
 148.560546875 277.015625 148.560546875 277.015625 148.560546875 508.235351562 c 0,0,1
EndSplineSet
Validated: 524801
Substitution2: "'fwid' Full Widths lookup 32 subtable" uniFF43
Substitution2: "'smcp' Lowercase to Small Capitals lookup 27 subtable" c.sc
AlternateSubs2: "'aalt' Access All Alternates lookup 1 subtable" c.sc uniFF43
EndChar

StartChar: d
Encoding: 100 100 29
Width: 1200
VWidth: 2287
GlyphClass: 2
Flags: W
LayerCount: 2
Fore
SplineSet
70.37109375 503.766601562 m 0,0,1
 70.37109375 645.625976562 70.37109375 645.625976562 113.93359375 751.741210938 c 128,-1,2
 157.497070312 857.856445312 157.497070312 857.856445312 227.309570312 913.706054688 c 128,-1,3
 297.122070312 969.555664062 297.122070312 969.555664062 372.51953125 997.481445312 c 128,-1,4
 447.916992188 1025.40625 447.916992188 1025.40625 526.107421875 1025.40625 c 0,5,6
 681.370117188 1025.40625 681.370117188 1025.40625 803.123046875 917.056640625 c 1,7,-1
 803.123046875 1224.23242188 l 1,8,-1
 695.890625 1224.23242188 l 2,9,10
 608.764648438 1224.23242188 608.764648438 1224.23242188 608.764648438 1313.59179688 c 0,11,12
 608.764648438 1318.05957031 608.764648438 1318.05957031 608.764648438 1321.41113281 c 0,13,14
 608.764648438 1396.25 608.764648438 1396.25 688.072265625 1397.3671875 c 2,15,-1
 908.12109375 1397.3671875 l 2,16,17
 949.450195312 1397.3671875 949.450195312 1397.3671875 970.114257812 1378.37792969 c 128,-1,18
 990.779296875 1359.38867188 990.779296875 1359.38867188 993.012695312 1343.19238281 c 128,-1,19
 995.247070312 1326.99609375 995.247070312 1326.99609375 995.247070312 1294.60253906 c 2,20,-1
 995.247070312 172.017578125 l 1,21,-1
 1098.01074219 172.017578125 l 2,22,23
 1189.60546875 172.017578125 1189.60546875 172.017578125 1189.60546875 84.8916015625 c 0,24,25
 1189.60546875 80.423828125 1189.60546875 80.423828125 1189.60546875 77.0732421875 c 0,26,27
 1189.60546875 0 1189.60546875 0 1104.71289062 0 c 2,28,-1
 880.196289062 0 l 2,29,30
 802.005859375 0 802.005859375 0 803.123046875 84.8916015625 c 2,31,-1
 803.123046875 123.987304688 l 1,32,33
 674.66796875 -8.935546875 674.66796875 -8.935546875 508.235351562 -8.935546875 c 0,34,35
 316.111328125 -8.935546875 316.111328125 -8.935546875 193.241210938 132.922851562 c 128,-1,36
 70.37109375 274.782226562 70.37109375 274.782226562 70.37109375 503.766601562 c 0,0,1
263.612304688 508.235351562 m 0,37,38
 263.612304688 327.28125 263.612304688 327.28125 345.711914062 244.623046875 c 128,-1,39
 427.810546875 161.96484375 427.810546875 161.96484375 537.27734375 161.96484375 c 0,40,41
 659.030273438 161.96484375 659.030273438 161.96484375 732.193359375 263.053710938 c 128,-1,42
 805.357421875 364.141601562 805.357421875 364.141601562 803.123046875 436.747070312 c 2,43,-1
 803.123046875 637.806640625 l 2,44,45
 803.123046875 711.529296875 803.123046875 711.529296875 732.193359375 782.458984375 c 128,-1,46
 661.263671875 853.387695312 661.263671875 853.387695312 560.734375 853.387695312 c 0,47,48
 425.577148438 853.387695312 425.577148438 853.387695312 344.594726562 759.559570312 c 128,-1,49
 263.612304688 665.732421875 263.612304688 665.732421875 263.612304688 508.235351562 c 0,37,38
EndSplineSet
Validated: 524833
Substitution2: "'fwid' Full Widths lookup 32 subtable" uniFF44
Substitution2: "'smcp' Lowercase to Small Capitals lookup 27 subtable" d.sc
AlternateSubs2: "'aalt' Access All Alternates lookup 1 subtable" d.sc uniFF44
EndChar

StartChar: e
Encoding: 101 101 30
Width: 1200
VWidth: 2287
GlyphClass: 2
Flags: W
LayerCount: 2
Fore
SplineSet
107.232421875 512.703125 m 0,0,1
 107.232421875 746.15625 107.232421875 746.15625 249.090820312 888.014648438 c 128,-1,2
 390.950195312 1029.87402344 390.950195312 1029.87402344 615.466796875 1029.87402344 c 0,3,4
 670.200195312 1029.87402344 670.200195312 1029.87402344 721.58203125 1020.37988281 c 128,-1,5
 772.963867188 1010.88476562 772.963867188 1010.88476562 838.30859375 977.93359375 c 128,-1,6
 903.653320312 944.982421875 903.653320312 944.982421875 949.450195312 890.249023438 c 128,-1,7
 995.247070312 835.515625 995.247070312 835.515625 1028.19824219 734.427734375 c 128,-1,8
 1061.15039062 633.338867188 1061.15039062 633.338867188 1061.15039062 498.181640625 c 0,9,10
 1061.15039062 418.875 1061.15039062 418.875 974.024414062 418.875 c 0,11,12
 972.907226562 418.875 972.907226562 418.875 971.790039062 418.875 c 2,13,-1
 308.291992188 418.875 l 1,14,15
 349.62109375 279.25 349.62109375 279.25 456.294921875 220.607421875 c 128,-1,16
 562.967773438 161.96484375 562.967773438 161.96484375 690.305664062 161.96484375 c 0,17,18
 799.772460938 161.96484375 799.772460938 161.96484375 855.622070312 253.55859375 c 0,19,20
 862.32421875 264.728515625 862.32421875 264.728515625 874.052734375 288.185546875 c 128,-1,21
 885.78125 311.642578125 885.78125 311.642578125 891.366210938 317.227539062 c 128,-1,22
 896.951171875 322.813476562 896.951171875 322.813476562 915.381835938 329.514648438 c 128,-1,23
 933.811523438 336.216796875 933.811523438 336.216796875 965.087890625 336.216796875 c 2,24,-1
 971.790039062 336.216796875 l 2,25,26
 1058.91601562 336.216796875 1058.91601562 336.216796875 1058.91601562 265.845703125 c 0,27,28
 1058.91601562 185.421875 1058.91601562 185.421875 948.333007812 88.2431640625 c 128,-1,29
 837.75 -8.935546875 837.75 -8.935546875 647.860351562 -8.935546875 c 0,30,31
 405.470703125 -8.935546875 405.470703125 -8.935546875 256.3515625 134.040039062 c 128,-1,32
 107.232421875 277.015625 107.232421875 277.015625 107.232421875 512.703125 c 0,0,1
303.82421875 576.372070312 m 1,33,-1
 864.557617188 576.372070312 l 1,34,35
 846.685546875 857.856445312 846.685546875 857.856445312 615.466796875 857.856445312 c 0,36,37
 484.778320312 857.856445312 484.778320312 857.856445312 402.120117188 781.341796875 c 128,-1,38
 319.461914062 704.827148438 319.461914062 704.827148438 303.82421875 576.372070312 c 1,33,-1
EndSplineSet
Validated: 524801
Substitution2: "'fwid' Full Widths lookup 32 subtable" uniFF45
Substitution2: "'smcp' Lowercase to Small Capitals lookup 27 subtable" e.sc
Substitution2: "'sinf' Scientific Inferiors lookup 14 subtable" uni2091
Substitution2: "'subs' Subscript lookup 13 subtable" uni2091
AlternateSubs2: "'aalt' Access All Alternates lookup 1 subtable" uni2091 e.sc uniFF45
EndChar

StartChar: f
Encoding: 102 102 31
Width: 1200
VWidth: 2287
GlyphClass: 2
Flags: W
LayerCount: 2
Fore
SplineSet
80.423828125 87.1259765625 m 0,0,1
 80.423828125 172.017578125 80.423828125 172.017578125 167.549804688 172.017578125 c 2,2,-1
 404.353515625 172.017578125 l 1,3,-1
 404.353515625 844.452148438 l 1,4,-1
 185.421875 844.452148438 l 2,5,6
 98.2958984375 844.452148438 98.2958984375 844.452148438 98.2958984375 923.758789062 c 0,7,8
 98.2958984375 1015.35253906 98.2958984375 1015.35253906 185.421875 1015.35253906 c 2,9,-1
 404.353515625 1015.35253906 l 1,10,-1
 404.353515625 1091.30859375 l 2,11,12
 404.353515625 1180.66894531 404.353515625 1180.66894531 441.21484375 1246.01367188 c 128,-1,13
 478.076171875 1311.35839844 478.076171875 1311.35839844 540.069335938 1344.30957031 c 128,-1,14
 602.063476562 1377.26074219 602.063476562 1377.26074219 667.965820312 1392.34082031 c 128,-1,15
 733.869140625 1407.41992188 733.869140625 1407.41992188 807.590820312 1407.41992188 c 0,16,17
 912.588867188 1407.41992188 912.588867188 1407.41992188 956.15234375 1366.09082031 c 128,-1,18
 999.71484375 1324.76171875 999.71484375 1324.76171875 999.71484375 1274.49707031 c 0,19,20
 999.71484375 1233.16796875 999.71484375 1233.16796875 971.231445312 1204.68457031 c 128,-1,21
 942.748046875 1176.20117188 942.748046875 1176.20117188 905.88671875 1176.20117188 c 0,22,23
 848.919921875 1176.20117188 848.919921875 1176.20117188 818.760742188 1233.16796875 c 1,24,25
 798.655273438 1235.40234375 798.655273438 1235.40234375 770.73046875 1235.40234375 c 0,26,27
 707.060546875 1235.40234375 707.060546875 1235.40234375 666.848632812 1220.32226562 c 128,-1,28
 626.63671875 1205.24316406 626.63671875 1205.24316406 613.233398438 1175.64257812 c 128,-1,29
 599.829101562 1146.04199219 599.829101562 1146.04199219 597.036132812 1132.07910156 c 128,-1,30
 594.244140625 1118.1171875 594.244140625 1118.1171875 594.244140625 1093.54296875 c 2,31,-1
 594.244140625 1015.35253906 l 1,32,-1
 860.08984375 1015.35253906 l 2,33,34
 951.68359375 1015.35253906 951.68359375 1015.35253906 951.68359375 925.993164062 c 0,35,36
 951.68359375 844.452148438 951.68359375 844.452148438 862.32421875 844.452148438 c 0,37,38
 861.20703125 844.452148438 861.20703125 844.452148438 860.08984375 844.452148438 c 2,39,-1
 594.244140625 844.452148438 l 1,40,-1
 594.244140625 172.017578125 l 1,41,-1
 835.515625 172.017578125 l 2,42,43
 855.622070312 172.017578125 855.622070312 172.017578125 869.584960938 169.784179688 c 128,-1,44
 883.546875 167.549804688 883.546875 167.549804688 901.418945312 145.768554688 c 128,-1,45
 919.291015625 123.987304688 919.291015625 123.987304688 919.291015625 84.8916015625 c 0,46,47
 919.291015625 0 919.291015625 0 827.697265625 0 c 2,48,-1
 164.19921875 0 l 2,49,50
 80.423828125 0 80.423828125 0 80.423828125 87.1259765625 c 0,0,1
EndSplineSet
Validated: 524801
Substitution2: "Single Substitution lookup 73 subtable" f.alternate
Substitution2: "'fwid' Full Widths lookup 32 subtable" uniFF46
Substitution2: "'smcp' Lowercase to Small Capitals lookup 27 subtable" f.sc
AlternateSubs2: "'aalt' Access All Alternates lookup 1 subtable" f.sc uniFF46 f.alternate
EndChar

StartChar: g
Encoding: 103 103 32
Width: 1200
VWidth: 2287
GlyphClass: 2
Flags: W
LayerCount: 2
Fore
SplineSet
65.9033203125 -180.954101562 m 0,0,1
 65.9033203125 4.4677734375 65.9033203125 4.4677734375 212.23046875 96.0615234375 c 1,2,3
 161.96484375 169.784179688 161.96484375 169.784179688 161.96484375 254.1171875 c 128,-1,4
 161.96484375 338.451171875 161.96484375 338.451171875 209.99609375 412.172851562 c 1,5,-1
 209.99609375 416.640625 l 1,6,7
 136.274414062 517.170898438 136.274414062 517.170898438 137.390625 647.860351562 c 0,8,9
 137.390625 817.643554688 137.390625 817.643554688 246.857421875 921.525390625 c 128,-1,10
 356.323242188 1025.40625 356.323242188 1025.40625 535.04296875 1025.40625 c 0,11,12
 670.200195312 1025.40625 670.200195312 1025.40625 768.49609375 960.620117188 c 1,13,-1
 770.73046875 960.620117188 l 1,14,15
 864.557617188 1034.34179688 864.557617188 1034.34179688 995.247070312 1034.34179688 c 0,16,17
 1071.203125 1034.34179688 1071.203125 1034.34179688 1118.67578125 997.481445312 c 128,-1,18
 1166.1484375 960.620117188 1166.1484375 960.620117188 1166.1484375 903.653320312 c 0,19,20
 1166.1484375 862.32421875 1166.1484375 862.32421875 1137.6640625 834.95703125 c 128,-1,21
 1109.18066406 807.590820312 1109.18066406 807.590820312 1070.0859375 807.590820312 c 0,22,23
 1015.35253906 807.590820312 1015.35253906 807.590820312 984.077148438 862.32421875 c 1,24,-1
 933.811523438 857.856445312 l 1,25,-1
 877.961914062 846.685546875 l 1,26,27
 928.2265625 748.389648438 928.2265625 748.389648438 928.2265625 647.860351562 c 0,28,29
 928.2265625 478.076171875 928.2265625 478.076171875 818.760742188 374.1953125 c 128,-1,30
 709.294921875 270.314453125 709.294921875 270.314453125 532.80859375 270.314453125 c 0,31,32
 414.407226562 270.314453125 414.407226562 270.314453125 316.111328125 322.813476562 c 1,33,34
 307.174804688 292.654296875 307.174804688 292.654296875 306.057617188 265.845703125 c 0,35,36
 306.057617188 222.283203125 306.057617188 222.283203125 331.190429688 187.65625 c 128,-1,37
 356.323242188 153.029296875 356.323242188 153.029296875 423.342773438 153.029296875 c 2,38,-1
 624.403320312 153.029296875 l 2,39,40
 892.483398438 153.029296875 892.483398438 153.029296875 1015.35253906 63.6689453125 c 0,41,42
 1131.52148438 -23.45703125 1131.52148438 -23.45703125 1132.63769531 -183.188476562 c 0,43,44
 1132.63769531 -237.920898438 1132.63769531 -237.920898438 1106.38867188 -292.654296875 c 128,-1,45
 1080.13867188 -347.38671875 1080.13867188 -347.38671875 1023.73046875 -400.444335938 c 128,-1,46
 967.322265625 -453.501953125 967.322265625 -453.501953125 858.97265625 -486.453125 c 128,-1,47
 750.624023438 -519.405273438 750.624023438 -519.405273438 602.063476562 -519.405273438 c 0,48,49
 316.111328125 -519.405273438 316.111328125 -519.405273438 191.006835938 -414.407226562 c 128,-1,50
 65.9033203125 -309.409179688 65.9033203125 -309.409179688 65.9033203125 -180.954101562 c 0,0,1
226.750976562 -174.251953125 m 0,51,52
 226.750976562 -247.973632812 226.750976562 -247.973632812 312.201171875 -307.174804688 c 128,-1,53
 397.65234375 -366.375976562 397.65234375 -366.375976562 604.296875 -366.375976562 c 0,54,55
 776.315429688 -366.375976562 776.315429688 -366.375976562 874.052734375 -314.994140625 c 128,-1,56
 971.790039062 -263.612304688 971.790039062 -263.612304688 971.790039062 -178.719726562 c 0,57,58
 971.790039062 -121.752929688 971.790039062 -121.752929688 942.189453125 -84.8916015625 c 128,-1,59
 912.588867188 -48.03125 912.588867188 -48.03125 853.387695312 -31.8349609375 c 128,-1,60
 794.186523438 -15.6376953125 794.186523438 -15.6376953125 741.129882812 -11.169921875 c 128,-1,61
 688.072265625 -6.7021484375 688.072265625 -6.7021484375 610.999023438 -6.7021484375 c 2,62,-1
 427.810546875 -6.7021484375 l 2,63,64
 311.642578125 -6.7021484375 311.642578125 -6.7021484375 269.197265625 -59.759765625 c 128,-1,65
 226.750976562 -112.817382812 226.750976562 -112.817382812 226.750976562 -174.251953125 c 0,51,52
329.514648438 647.860351562 m 0,66,67
 329.514648438 551.797851562 329.514648438 551.797851562 380.897460938 487.5703125 c 128,-1,68
 432.279296875 423.342773438 432.279296875 423.342773438 532.80859375 423.342773438 c 0,69,70
 626.63671875 423.342773438 626.63671875 423.342773438 681.370117188 483.661132812 c 128,-1,71
 736.102539062 543.978515625 736.102539062 543.978515625 736.102539062 650.09375 c 0,72,73
 736.102539062 746.15625 736.102539062 746.15625 685.837890625 808.708007812 c 128,-1,74
 635.573242188 871.259765625 635.573242188 871.259765625 532.80859375 871.259765625 c 0,75,76
 450.151367188 871.259765625 450.151367188 871.259765625 389.833007812 818.760742188 c 128,-1,77
 329.514648438 766.26171875 329.514648438 766.26171875 329.514648438 647.860351562 c 0,66,67
EndSplineSet
Validated: 524833
Substitution2: "'ss01' Style Set 1 lookup 41 subtable" g.alt
Substitution2: "'fwid' Full Widths lookup 32 subtable" uniFF47
Substitution2: "'smcp' Lowercase to Small Capitals lookup 27 subtable" g.sc
AlternateSubs2: "'aalt' Access All Alternates lookup 1 subtable" g.sc uniFF47 g.alt
EndChar

StartChar: h
Encoding: 104 104 33
Width: 1200
VWidth: 2287
GlyphClass: 2
Flags: W
LayerCount: 2
Fore
SplineSet
8.935546875 84.8916015625 m 0,0,1
 8.935546875 172.017578125 8.935546875 172.017578125 98.2958984375 172.017578125 c 2,2,3
 98.2958984375 172.017578125 98.2958984375 172.017578125 203.293945312 172.017578125 c 1,4,-1
 203.293945312 1224.23242188 l 1,5,-1
 96.0615234375 1224.23242188 l 2,6,7
 8.935546875 1224.23242188 8.935546875 1224.23242188 8.935546875 1315.82617188 c 0,8,9
 11.169921875 1397.3671875 11.169921875 1397.3671875 96.0615234375 1397.3671875 c 0,10,11
 97.1787109375 1397.3671875 97.1787109375 1397.3671875 98.2958984375 1397.3671875 c 2,12,-1
 308.291992188 1397.3671875 l 2,13,14
 349.62109375 1397.3671875 349.62109375 1397.3671875 371.40234375 1376.70214844 c 128,-1,15
 393.18359375 1356.03808594 393.18359375 1356.03808594 394.30078125 1342.63378906 c 128,-1,16
 395.41796875 1329.23046875 395.41796875 1329.23046875 395.41796875 1301.3046875 c 2,17,-1
 395.41796875 896.951171875 l 1,18,19
 528.340820312 1025.40625 528.340820312 1025.40625 698.125 1025.40625 c 0,20,21
 796.420898438 1025.40625 796.420898438 1025.40625 861.20703125 990.779296875 c 128,-1,22
 925.993164062 956.15234375 925.993164062 956.15234375 952.80078125 893.041015625 c 128,-1,23
 979.609375 829.930664062 979.609375 829.930664062 987.427734375 779.666015625 c 128,-1,24
 995.247070312 729.401367188 995.247070312 729.401367188 995.247070312 659.030273438 c 2,25,-1
 995.247070312 172.017578125 l 1,26,-1
 1102.47851562 172.017578125 l 2,27,28
 1189.60546875 172.017578125 1189.60546875 172.017578125 1189.60546875 87.1259765625 c 0,29,30
 1189.60546875 0 1189.60546875 0 1104.71289062 0 c 2,31,-1
 739.454101562 0 l 2,32,33
 650.09375 0 650.09375 0 650.09375 80.423828125 c 0,34,35
 650.09375 108.348632812 650.09375 108.348632812 652.328125 121.752929688 c 128,-1,36
 654.561523438 135.157226562 654.561523438 135.157226562 676.34375 153.587890625 c 128,-1,37
 698.125 172.017578125 698.125 172.017578125 741.688476562 172.017578125 c 2,38,-1
 805.357421875 172.017578125 l 1,39,-1
 805.357421875 656.795898438 l 2,40,41
 805.357421875 757.326171875 805.357421875 757.326171875 779.107421875 805.357421875 c 128,-1,42
 752.858398438 853.387695312 752.858398438 853.387695312 661.263671875 853.387695312 c 0,43,44
 565.202148438 853.387695312 565.202148438 853.387695312 480.309570312 776.873046875 c 128,-1,45
 395.41796875 700.359375 395.41796875 700.359375 395.41796875 528.340820312 c 2,46,-1
 395.41796875 172.017578125 l 1,47,-1
 501.533203125 172.017578125 l 2,48,49
 590.892578125 172.017578125 590.892578125 172.017578125 589.776367188 87.1259765625 c 0,50,51
 589.776367188 0 589.776367188 0 501.533203125 0 c 2,52,-1
 96.0615234375 0 l 2,53,54
 8.935546875 0 8.935546875 0 8.935546875 84.8916015625 c 0,0,1
EndSplineSet
Validated: 524833
Substitution2: "'fwid' Full Widths lookup 32 subtable" uniFF48
Substitution2: "'smcp' Lowercase to Small Capitals lookup 27 subtable" h.sc
Substitution2: "'sinf' Scientific Inferiors lookup 14 subtable" uni2095
Substitution2: "'subs' Subscript lookup 13 subtable" uni2095
AlternateSubs2: "'aalt' Access All Alternates lookup 1 subtable" uni2095 h.sc uniFF48
EndChar

StartChar: i
Encoding: 105 105 34
Width: 1200
VWidth: 2287
GlyphClass: 2
Flags: W
LayerCount: 2
Fore
SplineSet
161.96484375 87.1259765625 m 0,0,1
 161.96484375 135.157226562 161.96484375 135.157226562 183.74609375 153.587890625 c 128,-1,2
 205.528320312 172.017578125 205.528320312 172.017578125 251.325195312 172.017578125 c 2,3,-1
 532.80859375 172.017578125 l 1,4,-1
 532.80859375 844.452148438 l 1,5,-1
 274.782226562 844.452148438 l 2,6,7
 180.954101562 844.452148438 180.954101562 844.452148438 180.954101562 923.758789062 c 0,8,9
 180.954101562 941.630859375 180.954101562 941.630859375 183.188476562 953.359375 c 128,-1,10
 185.421875 965.087890625 185.421875 965.087890625 192.124023438 982.401367188 c 128,-1,11
 198.826171875 999.71484375 198.826171875 999.71484375 219.490234375 1007.53417969 c 128,-1,12
 240.155273438 1015.35253906 240.155273438 1015.35253906 272.547851562 1015.35253906 c 2,13,-1
 640.041015625 1015.35253906 l 2,14,15
 722.69921875 1015.35253906 722.69921875 1015.35253906 722.69921875 925.993164062 c 2,16,-1
 722.69921875 172.017578125 l 1,17,-1
 967.322265625 172.017578125 l 2,18,19
 1056.68164062 172.017578125 1056.68164062 172.017578125 1056.68164062 94.9453125 c 0,20,21
 1056.68164062 91.59375 1056.68164062 91.59375 1056.68164062 87.1259765625 c 0,22,23
 1056.68164062 0 1056.68164062 0 969.555664062 0 c 2,24,-1
 246.857421875 0 l 2,25,26
 161.96484375 0 161.96484375 0 161.96484375 87.1259765625 c 0,0,1
450.151367188 1292.36914062 m 128,-1,28
 450.151367188 1331.46386719 450.151367188 1331.46386719 482.543945312 1364.41503906 c 128,-1,29
 514.936523438 1397.3671875 514.936523438 1397.3671875 587.541992188 1397.3671875 c 0,30,31
 646.743164062 1397.3671875 646.743164062 1397.3671875 684.720703125 1367.76660156 c 128,-1,32
 722.69921875 1338.16601562 722.69921875 1338.16601562 722.69921875 1292.36914062 c 0,33,34
 722.69921875 1253.27441406 722.69921875 1253.27441406 690.864257812 1221.43945312 c 128,-1,35
 659.030273438 1189.60546875 659.030273438 1189.60546875 585.307617188 1189.60546875 c 0,36,37
 514.936523438 1189.60546875 514.936523438 1189.60546875 482.543945312 1221.43945312 c 128,-1,27
 450.151367188 1253.27441406 450.151367188 1253.27441406 450.151367188 1292.36914062 c 128,-1,28
EndSplineSet
Validated: 524801
Substitution2: "Single Substitution lookup 61 subtable" dotlessi
Substitution2: "'fwid' Full Widths lookup 32 subtable" uniFF49
Substitution2: "'smcp' Lowercase to Small Capitals lookup 27 subtable" i.sc
Substitution2: "'locl' Localized Forms in Latin lookup 7 per glyph data 4" i.loclTRK
Substitution2: "'locl' Localized Forms in Latin lookup 7 per glyph data 3" i.loclTRK
Substitution2: "'locl' Localized Forms in Latin lookup 7 per glyph data 2" i.loclTRK
Substitution2: "'locl' Localized Forms in Latin lookup 7 per glyph data 1" i.loclTRK
Substitution2: "'locl' Localized Forms in Latin lookup 7 per glyph data 0" i.loclTRK
AlternateSubs2: "'aalt' Access All Alternates lookup 1 subtable" i.loclTRK i.sc uniFF49
EndChar

StartChar: j
Encoding: 106 106 35
Width: 1200
VWidth: 2287
GlyphClass: 2
Flags: W
LayerCount: 2
Fore
SplineSet
107.232421875 -354.088867188 m 0,0,1
 107.232421875 -310.526367188 107.232421875 -310.526367188 134.598632812 -283.159179688 c 128,-1,2
 161.96484375 -255.79296875 161.96484375 -255.79296875 203.293945312 -255.79296875 c 0,3,4
 277.015625 -255.79296875 277.015625 -255.79296875 297.122070312 -331.749023438 c 1,5,6
 347.38671875 -345.153320312 347.38671875 -345.153320312 434.512695312 -345.153320312 c 2,7,-1
 450.151367188 -345.153320312 l 2,8,9
 557.3828125 -345.153320312 557.3828125 -345.153320312 611.557617188 -271.989257812 c 128,-1,10
 665.732421875 -198.826171875 665.732421875 -198.826171875 665.732421875 -80.423828125 c 2,11,-1
 665.732421875 844.452148438 l 1,12,-1
 366.375976562 844.452148438 l 2,13,14
 277.015625 844.452148438 277.015625 844.452148438 277.015625 928.2265625 c 0,15,16
 277.015625 1015.35253906 277.015625 1015.35253906 364.141601562 1015.35253906 c 2,17,-1
 770.73046875 1015.35253906 l 2,18,19
 857.856445312 1015.35253906 857.856445312 1015.35253906 857.856445312 925.993164062 c 2,20,-1
 857.856445312 -82.658203125 l 2,21,22
 857.856445312 -279.25 857.856445312 -279.25 735.544921875 -398.2109375 c 128,-1,23
 613.233398438 -517.170898438 613.233398438 -517.170898438 430.044921875 -517.170898438 c 2,24,-1
 414.407226562 -517.170898438 l 2,25,26
 233.453125 -517.170898438 233.453125 -517.170898438 167.549804688 -469.139648438 c 0,27,28
 107.232421875 -424.459960938 107.232421875 -424.459960938 107.232421875 -354.088867188 c 0,0,1
583.07421875 1292.36914062 m 128,-1,30
 583.07421875 1331.46386719 583.07421875 1331.46386719 616.583984375 1364.41503906 c 128,-1,31
 650.09375 1397.3671875 650.09375 1397.3671875 722.69921875 1397.3671875 c 0,32,33
 781.900390625 1397.3671875 781.900390625 1397.3671875 819.877929688 1367.76660156 c 128,-1,34
 857.856445312 1338.16601562 857.856445312 1338.16601562 857.856445312 1292.36914062 c 0,35,36
 857.856445312 1253.27441406 857.856445312 1253.27441406 824.904296875 1221.43945312 c 128,-1,37
 791.953125 1189.60546875 791.953125 1189.60546875 718.231445312 1189.60546875 c 0,38,39
 647.860351562 1189.60546875 647.860351562 1189.60546875 615.466796875 1221.43945312 c 128,-1,29
 583.07421875 1253.27441406 583.07421875 1253.27441406 583.07421875 1292.36914062 c 128,-1,30
EndSplineSet
Validated: 524801
Substitution2: "Single Substitution lookup 61 subtable" uni0237
Substitution2: "'ss03' Style Set 3 lookup 43 subtable" j.alt
Substitution2: "'fwid' Full Widths lookup 32 subtable" uniFF4A
Substitution2: "'smcp' Lowercase to Small Capitals lookup 27 subtable" j.sc
AlternateSubs2: "'aalt' Access All Alternates lookup 1 subtable" j.sc uniFF4A j.alt
EndChar

StartChar: k
Encoding: 107 107 36
Width: 1200
VWidth: 2287
GlyphClass: 2
Flags: W
LayerCount: 2
Fore
SplineSet
32.392578125 90.4765625 m 0,0,1
 32.392578125 172.017578125 32.392578125 172.017578125 123.987304688 172.017578125 c 2,2,3
 123.987304688 172.017578125 123.987304688 172.017578125 237.920898438 172.017578125 c 1,4,-1
 237.920898438 1224.23242188 l 1,5,-1
 123.987304688 1224.23242188 l 2,6,7
 96.0615234375 1224.23242188 96.0615234375 1224.23242188 78.748046875 1228.70019531 c 128,-1,8
 61.4345703125 1233.16796875 61.4345703125 1233.16796875 46.9140625 1253.83203125 c 128,-1,9
 32.392578125 1274.49707031 32.392578125 1274.49707031 32.392578125 1315.82617188 c 0,10,11
 34.626953125 1397.3671875 34.626953125 1397.3671875 116.16796875 1397.3671875 c 0,12,13
 117.28515625 1397.3671875 117.28515625 1397.3671875 118.40234375 1397.3671875 c 2,14,-1
 301.58984375 1397.3671875 l 2,15,16
 393.18359375 1397.3671875 393.18359375 1397.3671875 393.18359375 1308.00683594 c 2,17,-1
 393.18359375 532.80859375 l 1,18,-1
 695.890625 844.452148438 l 1,19,-1
 624.403320312 844.452148438 l 2,20,21
 539.510742188 844.452148438 539.510742188 844.452148438 539.510742188 933.811523438 c 0,22,23
 539.510742188 970.672851562 539.510742188 970.672851562 556.82421875 989.662109375 c 128,-1,24
 574.137695312 1008.65136719 574.137695312 1008.65136719 591.451171875 1012.00195312 c 128,-1,25
 608.764648438 1015.35253906 608.764648438 1015.35253906 633.338867188 1015.35253906 c 2,26,-1
 1019.82128906 1015.35253906 l 2,27,28
 1109.18066406 1015.35253906 1109.18066406 1015.35253906 1109.18066406 928.2265625 c 0,29,30
 1109.18066406 844.452148438 1109.18066406 844.452148438 1029.87402344 844.452148438 c 0,31,32
 1028.75683594 844.452148438 1028.75683594 844.452148438 1027.63964844 844.452148438 c 2,33,-1
 942.748046875 844.452148438 l 2,34,35
 917.056640625 842.217773438 917.056640625 842.217773438 883.546875 807.590820312 c 0,36,37
 879.079101562 803.123046875 879.079101562 803.123046875 670.200195312 592.009765625 c 1,38,-1
 979.609375 172.017578125 l 1,39,-1
 1063.38378906 172.017578125 l 2,40,41
 1159.44628906 172.017578125 1159.44628906 172.017578125 1159.44628906 87.1259765625 c 0,42,43
 1159.44628906 0 1159.44628906 0 1073.43652344 0 c 2,44,-1
 759.559570312 0 l 2,45,46
 674.66796875 0 674.66796875 0 674.66796875 84.8916015625 c 0,47,48
 674.66796875 174.251953125 674.66796875 174.251953125 764.028320312 174.251953125 c 0,49,50
 768.49609375 174.251953125 768.49609375 174.251953125 775.198242188 173.134765625 c 128,-1,51
 781.900390625 172.017578125 781.900390625 172.017578125 787.485351562 172.017578125 c 1,52,-1
 560.734375 480.309570312 l 1,53,54
 538.393554688 457.969726562 538.393554688 457.969726562 516.053710938 436.188476562 c 128,-1,55
 493.713867188 414.407226562 493.713867188 414.407226562 480.309570312 399.327148438 c 128,-1,56
 466.90625 384.248046875 466.90625 384.248046875 452.943359375 370.28515625 c 128,-1,57
 438.981445312 356.323242188 438.981445312 356.323242188 432.279296875 348.50390625 c 128,-1,58
 425.577148438 340.684570312 425.577148438 340.684570312 417.7578125 332.866210938 c 128,-1,59
 409.939453125 325.046875 409.939453125 325.046875 406.029296875 320.579101562 c 128,-1,60
 402.120117188 316.111328125 402.120117188 316.111328125 399.885742188 311.084960938 c 128,-1,61
 397.65234375 306.057617188 397.65234375 306.057617188 396.53515625 302.70703125 c 128,-1,62
 395.41796875 299.356445312 395.41796875 299.356445312 394.30078125 296.004882812 c 128,-1,63
 393.18359375 292.654296875 393.18359375 292.654296875 393.18359375 285.952148438 c 2,64,-1
 393.18359375 172.017578125 l 1,65,-1
 508.235351562 172.017578125 l 2,66,67
 599.829101562 172.017578125 599.829101562 172.017578125 597.594726562 87.1259765625 c 0,68,69
 597.594726562 83.775390625 597.594726562 83.775390625 597.594726562 79.306640625 c 0,70,71
 597.594726562 33.509765625 597.594726562 33.509765625 571.904296875 17.8720703125 c 0,72,73
 543.978515625 0 543.978515625 0 506.000976562 0 c 2,74,-1
 123.987304688 0 l 2,75,76
 98.2958984375 0 98.2958984375 0 80.982421875 4.4677734375 c 128,-1,77
 63.6689453125 8.935546875 63.6689453125 8.935546875 48.03125 29.6005859375 c 128,-1,78
 32.392578125 50.2646484375 32.392578125 50.2646484375 32.392578125 90.4765625 c 0,0,1
EndSplineSet
Validated: 524833
Substitution2: "'fwid' Full Widths lookup 32 subtable" uniFF4B
Substitution2: "'smcp' Lowercase to Small Capitals lookup 27 subtable" k.sc
Substitution2: "'sinf' Scientific Inferiors lookup 14 subtable" uni2096
Substitution2: "'subs' Subscript lookup 13 subtable" uni2096
AlternateSubs2: "'aalt' Access All Alternates lookup 1 subtable" uni2096 k.sc uniFF4B
EndChar

StartChar: l
Encoding: 108 108 37
Width: 1200
VWidth: 2287
GlyphClass: 2
Flags: W
LayerCount: 2
Fore
SplineSet
113.93359375 82.658203125 m 0,0,1
 113.93359375 123.987304688 113.93359375 123.987304688 130.130859375 144.092773438 c 128,-1,2
 146.327148438 164.19921875 146.327148438 164.19921875 162.5234375 168.108398438 c 128,-1,3
 178.719726562 172.017578125 178.719726562 172.017578125 205.528320312 172.017578125 c 2,4,-1
 503.766601562 172.017578125 l 1,5,-1
 503.766601562 1224.23242188 l 1,6,-1
 201.059570312 1224.23242188 l 2,7,8
 175.369140625 1224.23242188 175.369140625 1224.23242188 160.84765625 1227.58300781 c 128,-1,9
 146.327148438 1230.93359375 146.327148438 1230.93359375 130.130859375 1252.71582031 c 128,-1,10
 113.93359375 1274.49707031 113.93359375 1274.49707031 113.93359375 1315.82617188 c 0,11,12
 113.93359375 1397.3671875 113.93359375 1397.3671875 201.059570312 1397.3671875 c 0,13,14
 202.176757812 1397.3671875 202.176757812 1397.3671875 203.293945312 1397.3671875 c 2,15,-1
 608.764648438 1397.3671875 l 2,16,17
 695.890625 1397.3671875 695.890625 1397.3671875 695.890625 1303.5390625 c 2,18,-1
 695.890625 172.017578125 l 1,19,-1
 995.247070312 172.017578125 l 2,20,21
 1084.60742188 172.017578125 1084.60742188 172.017578125 1084.60742188 87.1259765625 c 0,22,23
 1084.60742188 48.03125 1084.60742188 48.03125 1068.41015625 27.3662109375 c 128,-1,24
 1052.21386719 6.7021484375 1052.21386719 6.7021484375 1036.01757812 3.3505859375 c 128,-1,25
 1019.82128906 0 1019.82128906 0 997.481445312 0 c 2,26,-1
 201.059570312 0 l 2,27,28
 116.16796875 0 116.16796875 0 113.93359375 82.658203125 c 0,0,1
EndSplineSet
Validated: 524801
Substitution2: "'fwid' Full Widths lookup 32 subtable" uniFF4C
Substitution2: "'smcp' Lowercase to Small Capitals lookup 27 subtable" l.sc
Substitution2: "'sinf' Scientific Inferiors lookup 14 subtable" uni2097
Substitution2: "'subs' Subscript lookup 13 subtable" uni2097
AlternateSubs2: "'aalt' Access All Alternates lookup 1 subtable" uni2097 l.sc uniFF4C
EndChar

StartChar: m
Encoding: 109 109 38
Width: 1200
VWidth: 2287
GlyphClass: 2
Flags: W
LayerCount: 2
Fore
SplineSet
-25.69140625 87.1259765625 m 0,0,1
 -25.69140625 172.017578125 -25.69140625 172.017578125 59.201171875 172.017578125 c 2,2,3
 59.201171875 172.017578125 59.201171875 172.017578125 104.998046875 172.017578125 c 1,4,-1
 104.998046875 844.452148438 l 1,5,-1
 63.6689453125 844.452148438 l 2,6,7
 31.2763671875 844.452148438 31.2763671875 844.452148438 11.169921875 853.387695312 c 128,-1,8
 -8.935546875 862.32421875 -8.935546875 862.32421875 -15.6376953125 880.754882812 c 128,-1,9
 -22.33984375 899.184570312 -22.33984375 899.184570312 -24.015625 909.23828125 c 128,-1,10
 -25.69140625 919.291015625 -25.69140625 919.291015625 -25.69140625 938.280273438 c 0,11,12
 -25.69140625 1015.35253906 -25.69140625 1015.35253906 56.966796875 1015.35253906 c 0,13,14
 58.083984375 1015.35253906 58.083984375 1015.35253906 59.201171875 1015.35253906 c 2,15,-1
 153.029296875 1015.35253906 l 1,16,-1
 159.731445312 1015.35253906 l 2,17,18
 168.666992188 1017.58691406 168.666992188 1017.58691406 174.251953125 1017.58691406 c 0,19,20
 256.91015625 1017.58691406 256.91015625 1017.58691406 260.260742188 938.280273438 c 1,21,22
 351.85546875 1025.40625 351.85546875 1025.40625 466.90625 1025.40625 c 0,23,24
 585.307617188 1025.40625 585.307617188 1025.40625 647.860351562 901.418945312 c 1,25,26
 737.219726562 1025.40625 737.219726562 1025.40625 885.78125 1025.40625 c 0,27,28
 1018.70410156 1025.40625 1018.70410156 1025.40625 1067.8515625 894.716796875 c 0,29,30
 1095.77734375 818.760742188 1095.77734375 818.760742188 1095.77734375 679.135742188 c 2,31,-1
 1095.77734375 172.017578125 l 1,32,-1
 1134.87207031 172.017578125 l 2,33,34
 1178.43457031 172.017578125 1178.43457031 172.017578125 1200.21679688 153.587890625 c 128,-1,35
 1221.99804688 135.157226562 1221.99804688 135.157226562 1224.23242188 121.194335938 c 128,-1,36
 1226.46582031 107.232421875 1226.46582031 107.232421875 1226.46582031 84.8916015625 c 0,37,38
 1226.46582031 0 1226.46582031 0 1141.57421875 0 c 2,39,-1
 936.045898438 0 l 2,40,41
 848.919921875 0 848.919921875 0 848.919921875 89.3603515625 c 0,42,43
 846.685546875 135.157226562 846.685546875 135.157226562 871.818359375 153.587890625 c 128,-1,44
 896.951171875 172.017578125 896.951171875 172.017578125 942.748046875 172.017578125 c 1,45,-1
 942.748046875 665.732421875 l 2,46,47
 942.748046875 720.46484375 942.748046875 720.46484375 939.397460938 755.091796875 c 128,-1,48
 936.045898438 789.71875 936.045898438 789.71875 915.381835938 821.553710938 c 128,-1,49
 894.716796875 853.387695312 894.716796875 853.387695312 857.856445312 853.387695312 c 0,50,51
 779.666015625 853.387695312 779.666015625 853.387695312 729.401367188 765.14453125 c 128,-1,52
 679.135742188 676.90234375 679.135742188 676.90234375 679.135742188 530.575195312 c 2,53,-1
 679.135742188 172.017578125 l 1,54,-1
 720.46484375 172.017578125 l 2,55,56
 809.825195312 172.017578125 809.825195312 172.017578125 809.825195312 87.1259765625 c 0,57,58
 809.825195312 0 809.825195312 0 718.231445312 0 c 2,59,-1
 517.170898438 0 l 2,60,61
 430.044921875 0 430.044921875 0 430.044921875 89.3603515625 c 0,62,63
 427.810546875 135.157226562 427.810546875 135.157226562 452.943359375 153.587890625 c 128,-1,64
 478.076171875 172.017578125 478.076171875 172.017578125 523.873046875 172.017578125 c 1,65,-1
 523.873046875 665.732421875 l 2,66,67
 523.873046875 720.46484375 523.873046875 720.46484375 520.522460938 755.091796875 c 128,-1,68
 517.170898438 789.71875 517.170898438 789.71875 496.506835938 821.553710938 c 128,-1,69
 475.841796875 853.387695312 475.841796875 853.387695312 438.981445312 853.387695312 c 0,70,71
 358.556640625 853.387695312 358.556640625 853.387695312 309.409179688 764.028320312 c 128,-1,72
 260.260742188 674.66796875 260.260742188 674.66796875 260.260742188 530.575195312 c 2,73,-1
 260.260742188 172.017578125 l 1,74,-1
 301.58984375 172.017578125 l 2,75,76
 388.715820312 172.017578125 388.715820312 172.017578125 388.715820312 87.1259765625 c 0,77,78
 388.715820312 0 388.715820312 0 303.82421875 0 c 2,79,-1
 61.4345703125 0 l 2,80,81
 -25.69140625 0 -25.69140625 0 -25.69140625 87.1259765625 c 0,0,1
EndSplineSet
Validated: 524833
Substitution2: "'fwid' Full Widths lookup 32 subtable" uniFF4D
Substitution2: "'smcp' Lowercase to Small Capitals lookup 27 subtable" m.sc
Substitution2: "'sinf' Scientific Inferiors lookup 14 subtable" uni2098
Substitution2: "'subs' Subscript lookup 13 subtable" uni2098
AlternateSubs2: "'aalt' Access All Alternates lookup 1 subtable" uni2098 m.sc uniFF4D
EndChar

StartChar: n
Encoding: 110 110 39
Width: 1200
VWidth: 2287
GlyphClass: 2
Flags: W
LayerCount: 2
Fore
SplineSet
8.935546875 84.8916015625 m 0,0,1
 8.935546875 172.017578125 8.935546875 172.017578125 98.2958984375 172.017578125 c 2,2,3
 98.2958984375 172.017578125 98.2958984375 172.017578125 203.293945312 172.017578125 c 1,4,-1
 203.293945312 844.452148438 l 1,5,-1
 100.530273438 844.452148438 l 2,6,7
 72.60546875 844.452148438 72.60546875 844.452148438 56.966796875 847.802734375 c 128,-1,8
 41.3291015625 851.154296875 41.3291015625 851.154296875 25.1328125 872.935546875 c 128,-1,9
 8.935546875 894.716796875 8.935546875 894.716796875 8.935546875 936.045898438 c 0,10,11
 8.935546875 1015.35253906 8.935546875 1015.35253906 89.3603515625 1015.35253906 c 0,12,13
 90.4765625 1015.35253906 90.4765625 1015.35253906 91.59375 1015.35253906 c 2,14,-1
 308.291992188 1015.35253906 l 2,15,16
 395.41796875 1015.35253906 395.41796875 1015.35253906 395.41796875 933.811523438 c 2,17,-1
 395.41796875 896.951171875 l 1,18,19
 528.340820312 1025.40625 528.340820312 1025.40625 698.125 1025.40625 c 0,20,21
 796.420898438 1025.40625 796.420898438 1025.40625 861.20703125 990.779296875 c 128,-1,22
 925.993164062 956.15234375 925.993164062 956.15234375 952.80078125 893.041015625 c 128,-1,23
 979.609375 829.930664062 979.609375 829.930664062 987.427734375 779.666015625 c 128,-1,24
 995.247070312 729.401367188 995.247070312 729.401367188 995.247070312 659.030273438 c 2,25,-1
 995.247070312 172.017578125 l 1,26,-1
 1102.47851562 172.017578125 l 2,27,28
 1189.60546875 172.017578125 1189.60546875 172.017578125 1189.60546875 87.1259765625 c 0,29,30
 1189.60546875 0 1189.60546875 0 1104.71289062 0 c 2,31,-1
 739.454101562 0 l 2,32,33
 650.09375 0 650.09375 0 650.09375 80.423828125 c 0,34,35
 650.09375 108.348632812 650.09375 108.348632812 652.328125 121.752929688 c 128,-1,36
 654.561523438 135.157226562 654.561523438 135.157226562 676.34375 153.587890625 c 128,-1,37
 698.125 172.017578125 698.125 172.017578125 741.688476562 172.017578125 c 2,38,-1
 805.357421875 172.017578125 l 1,39,-1
 805.357421875 656.795898438 l 2,40,41
 805.357421875 757.326171875 805.357421875 757.326171875 779.107421875 805.357421875 c 128,-1,42
 752.858398438 853.387695312 752.858398438 853.387695312 661.263671875 853.387695312 c 0,43,44
 565.202148438 853.387695312 565.202148438 853.387695312 480.309570312 775.756835938 c 128,-1,45
 395.41796875 698.125 395.41796875 698.125 395.41796875 528.340820312 c 2,46,-1
 395.41796875 172.017578125 l 1,47,-1
 501.533203125 172.017578125 l 2,48,49
 590.892578125 172.017578125 590.892578125 172.017578125 589.776367188 87.1259765625 c 0,50,51
 589.776367188 0 589.776367188 0 501.533203125 0 c 2,52,-1
 96.0615234375 0 l 2,53,54
 8.935546875 0 8.935546875 0 8.935546875 84.8916015625 c 0,0,1
EndSplineSet
Validated: 524833
Substitution2: "'fwid' Full Widths lookup 32 subtable" uniFF4E
Substitution2: "'smcp' Lowercase to Small Capitals lookup 27 subtable" n.sc
Substitution2: "'sinf' Scientific Inferiors lookup 14 subtable" uni2099
Substitution2: "'subs' Subscript lookup 13 subtable" uni2099
AlternateSubs2: "'aalt' Access All Alternates lookup 1 subtable" uni2099 n.sc uniFF4E
EndChar

StartChar: o
Encoding: 111 111 40
Width: 1200
VWidth: 2287
GlyphClass: 2
Flags: W
LayerCount: 2
Fore
SplineSet
118.40234375 508.235351562 m 0,0,1
 118.40234375 750.624023438 118.40234375 750.624023438 251.325195312 890.249023438 c 128,-1,2
 384.248046875 1029.87402344 384.248046875 1029.87402344 599.829101562 1029.87402344 c 0,3,4
 812.05859375 1029.87402344 812.05859375 1029.87402344 946.098632812 888.014648438 c 128,-1,5
 1080.13867188 746.15625 1080.13867188 746.15625 1080.13867188 508.235351562 c 128,-1,6
 1080.13867188 270.314453125 1080.13867188 270.314453125 947.215820312 130.689453125 c 128,-1,7
 814.29296875 -8.935546875 814.29296875 -8.935546875 597.594726562 -8.935546875 c 0,8,9
 382.013671875 -8.935546875 382.013671875 -8.935546875 250.208007812 131.805664062 c 128,-1,10
 118.40234375 272.547851562 118.40234375 272.547851562 118.40234375 508.235351562 c 0,0,1
311.642578125 528.340820312 m 0,11,12
 311.642578125 338.451171875 311.642578125 338.451171875 400.444335938 250.208007812 c 128,-1,13
 489.24609375 161.96484375 489.24609375 161.96484375 599.829101562 161.96484375 c 0,14,15
 726.049804688 161.96484375 726.049804688 161.96484375 807.032226562 259.143554688 c 128,-1,16
 888.014648438 356.323242188 888.014648438 356.323242188 888.014648438 526.107421875 c 0,17,18
 888.014648438 679.135742188 888.014648438 679.135742188 807.590820312 768.49609375 c 128,-1,19
 727.166992188 857.856445312 727.166992188 857.856445312 599.829101562 857.856445312 c 0,20,21
 483.661132812 857.856445312 483.661132812 857.856445312 397.65234375 776.873046875 c 128,-1,22
 311.642578125 695.890625 311.642578125 695.890625 311.642578125 528.340820312 c 0,11,12
EndSplineSet
Validated: 524801
Substitution2: "Single Substitution lookup 63 subtable" ordmasculine
Substitution2: "'fwid' Full Widths lookup 32 subtable" uniFF4F
Substitution2: "'smcp' Lowercase to Small Capitals lookup 27 subtable" o.sc
Substitution2: "'sinf' Scientific Inferiors lookup 14 subtable" uni2092
Substitution2: "'subs' Subscript lookup 13 subtable" uni2092
AlternateSubs2: "'aalt' Access All Alternates lookup 1 subtable" uni2092 ordmasculine o.sc uniFF4F
EndChar

StartChar: p
Encoding: 112 112 41
Width: 1200
VWidth: 2287
GlyphClass: 2
Flags: W
LayerCount: 2
Fore
SplineSet
8.935546875 -427.810546875 m 0,0,1
 8.935546875 -386.482421875 8.935546875 -386.482421875 25.1328125 -364.700195312 c 128,-1,2
 41.3291015625 -342.918945312 41.3291015625 -342.918945312 57.525390625 -339.568359375 c 128,-1,3
 73.7216796875 -336.216796875 73.7216796875 -336.216796875 98.2958984375 -336.216796875 c 2,4,-1
 203.293945312 -336.216796875 l 1,5,-1
 203.293945312 844.452148438 l 1,6,-1
 98.2958984375 844.452148438 l 2,7,8
 45.796875 844.452148438 45.796875 844.452148438 27.3662109375 866.233398438 c 128,-1,9
 8.935546875 888.014648438 8.935546875 888.014648438 8.935546875 936.045898438 c 0,10,11
 8.935546875 1015.35253906 8.935546875 1015.35253906 102.763671875 1015.35253906 c 0,12,13
 103.880859375 1015.35253906 103.880859375 1015.35253906 104.998046875 1015.35253906 c 2,14,-1
 301.58984375 1015.35253906 l 2,15,16
 360.791015625 1015.35253906 360.791015625 1015.35253906 378.104492188 991.337890625 c 128,-1,17
 395.41796875 967.322265625 395.41796875 967.322265625 395.41796875 925.993164062 c 2,18,-1
 395.41796875 908.12109375 l 1,19,20
 532.80859375 1024.2890625 532.80859375 1024.2890625 695.890625 1025.40625 c 0,21,22
 883.546875 1025.40625 883.546875 1025.40625 1005.85839844 885.78125 c 128,-1,23
 1128.16992188 746.15625 1128.16992188 746.15625 1128.16992188 510.46875 c 0,24,25
 1128.16992188 252.442382812 1128.16992188 252.442382812 989.662109375 121.752929688 c 128,-1,26
 851.154296875 -8.935546875 851.154296875 -8.935546875 667.965820312 -8.935546875 c 0,27,28
 514.936523438 -8.935546875 514.936523438 -8.935546875 395.41796875 109.465820312 c 1,29,-1
 395.41796875 -336.216796875 l 1,30,-1
 501.533203125 -336.216796875 l 2,31,32
 590.892578125 -336.216796875 590.892578125 -336.216796875 589.776367188 -421.109375 c 0,33,34
 589.776367188 -508.235351562 589.776367188 -508.235351562 501.533203125 -508.235351562 c 2,35,-1
 100.530273438 -508.235351562 l 2,36,37
 8.935546875 -508.235351562 8.935546875 -508.235351562 8.935546875 -427.810546875 c 0,0,1
395.41796875 427.810546875 m 2,38,39
 395.41796875 349.62109375 395.41796875 349.62109375 460.762695312 255.79296875 c 128,-1,40
 526.107421875 161.96484375 526.107421875 161.96484375 637.806640625 161.96484375 c 0,41,42
 772.963867188 161.96484375 772.963867188 161.96484375 854.504882812 255.79296875 c 128,-1,43
 936.045898438 349.62109375 936.045898438 349.62109375 936.045898438 508.235351562 c 0,44,45
 936.045898438 689.189453125 936.045898438 689.189453125 853.387695312 771.288085938 c 128,-1,46
 770.73046875 853.387695312 770.73046875 853.387695312 661.263671875 853.387695312 c 0,47,48
 554.032226562 853.387695312 554.032226562 853.387695312 474.724609375 781.341796875 c 128,-1,49
 395.41796875 709.294921875 395.41796875 709.294921875 395.41796875 635.573242188 c 2,50,-1
 395.41796875 427.810546875 l 2,38,39
EndSplineSet
Validated: 524833
Substitution2: "'fwid' Full Widths lookup 32 subtable" uniFF50
Substitution2: "'smcp' Lowercase to Small Capitals lookup 27 subtable" p.sc
Substitution2: "'sinf' Scientific Inferiors lookup 14 subtable" uni209A
Substitution2: "'subs' Subscript lookup 13 subtable" uni209A
AlternateSubs2: "'aalt' Access All Alternates lookup 1 subtable" uni209A p.sc uniFF50
EndChar

StartChar: q
Encoding: 113 113 42
Width: 1200
VWidth: 2287
GlyphClass: 2
Flags: W
LayerCount: 2
Fore
SplineSet
75.9560546875 508.235351562 m 0,0,1
 75.9560546875 755.091796875 75.9560546875 755.091796875 217.815429688 890.249023438 c 128,-1,2
 359.673828125 1025.40625 359.673828125 1025.40625 558.5 1025.40625 c 0,3,4
 720.46484375 1025.40625 720.46484375 1025.40625 851.154296875 894.716796875 c 1,5,-1
 851.154296875 933.811523438 l 2,6,7
 851.154296875 975.140625 851.154296875 975.140625 867.350585938 996.364257812 c 128,-1,8
 883.546875 1017.58691406 883.546875 1017.58691406 899.184570312 1021.49609375 c 128,-1,9
 914.823242188 1025.40625 914.823242188 1025.40625 942.748046875 1025.40625 c 2,10,-1
 953.91796875 1025.40625 l 2,11,12
 986.310546875 1025.40625 986.310546875 1025.40625 1005.85839844 1017.02832031 c 128,-1,13
 1025.40625 1008.65136719 1025.40625 1008.65136719 1032.10839844 989.103515625 c 128,-1,14
 1038.80957031 969.555664062 1038.80957031 969.555664062 1039.92675781 959.502929688 c 128,-1,15
 1041.04394531 949.450195312 1041.04394531 949.450195312 1041.04394531 925.993164062 c 2,16,-1
 1041.04394531 -336.216796875 l 1,17,-1
 1157.21191406 -336.216796875 l 2,18,19
 1246.57226562 -336.216796875 1246.57226562 -336.216796875 1246.57226562 -416.640625 c 0,20,21
 1246.57226562 -457.969726562 1246.57226562 -457.969726562 1230.37597656 -478.076171875 c 128,-1,22
 1214.17871094 -498.181640625 1214.17871094 -498.181640625 1197.42382812 -503.208984375 c 128,-1,23
 1180.66894531 -508.235351562 1180.66894531 -508.235351562 1157.21191406 -508.235351562 c 2,24,-1
 733.869140625 -508.235351562 l 2,25,26
 645.625976562 -508.235351562 645.625976562 -508.235351562 645.625976562 -427.810546875 c 0,27,28
 645.625976562 -384.248046875 645.625976562 -384.248046875 661.263671875 -363.583984375 c 128,-1,29
 676.90234375 -342.918945312 676.90234375 -342.918945312 693.098632812 -339.568359375 c 128,-1,30
 709.294921875 -336.216796875 709.294921875 -336.216796875 733.869140625 -336.216796875 c 2,31,-1
 851.154296875 -336.216796875 l 1,32,-1
 851.154296875 118.40234375 l 1,33,34
 705.944335938 -8.935546875 705.944335938 -8.935546875 533.92578125 -8.935546875 c 0,35,36
 531.692382812 -8.935546875 531.692382812 -8.935546875 530.575195312 -8.935546875 c 0,37,38
 333.983398438 -8.935546875 333.983398438 -8.935546875 204.969726562 130.689453125 c 128,-1,39
 75.9560546875 270.314453125 75.9560546875 270.314453125 75.9560546875 508.235351562 c 0,0,1
268.080078125 508.235351562 m 0,40,41
 268.080078125 348.50390625 268.080078125 348.50390625 350.1796875 255.234375 c 128,-1,42
 432.279296875 161.96484375 432.279296875 161.96484375 565.202148438 161.96484375 c 0,43,44
 679.135742188 161.96484375 679.135742188 161.96484375 765.14453125 242.388671875 c 128,-1,45
 851.154296875 322.813476562 851.154296875 322.813476562 851.154296875 399.885742188 c 2,46,-1
 851.154296875 549.564453125 l 2,47,48
 851.154296875 656.795898438 851.154296875 656.795898438 777.990234375 755.091796875 c 128,-1,49
 704.827148438 853.387695312 704.827148438 853.387695312 587.541992188 853.387695312 c 0,50,51
 447.916992188 853.387695312 447.916992188 853.387695312 357.998046875 762.911132812 c 128,-1,52
 268.080078125 672.43359375 268.080078125 672.43359375 268.080078125 508.235351562 c 0,40,41
EndSplineSet
Validated: 524801
Substitution2: "'fwid' Full Widths lookup 32 subtable" uniFF51
Substitution2: "'smcp' Lowercase to Small Capitals lookup 27 subtable" q.sc
AlternateSubs2: "'aalt' Access All Alternates lookup 1 subtable" q.sc uniFF51
EndChar

StartChar: r
Encoding: 114 114 43
Width: 1200
VWidth: 2287
GlyphClass: 2
Flags: W
LayerCount: 2
Fore
SplineSet
54.7333984375 91.59375 m 0,0,1
 54.7333984375 172.017578125 54.7333984375 172.017578125 141.859375 172.017578125 c 2,2,-1
 331.749023438 172.017578125 l 1,3,-1
 331.749023438 844.452148438 l 1,4,-1
 141.859375 844.452148438 l 2,5,6
 100.530273438 844.452148438 100.530273438 844.452148438 79.865234375 861.20703125 c 128,-1,7
 59.201171875 877.961914062 59.201171875 877.961914062 56.966796875 894.158203125 c 128,-1,8
 54.7333984375 910.35546875 54.7333984375 910.35546875 54.7333984375 938.280273438 c 0,9,10
 54.7333984375 1015.35253906 54.7333984375 1015.35253906 141.859375 1015.35253906 c 0,11,12
 142.975585938 1015.35253906 142.975585938 1015.35253906 144.092773438 1015.35253906 c 2,13,-1
 441.21484375 1015.35253906 l 2,14,15
 523.873046875 1015.35253906 523.873046875 1015.35253906 523.873046875 919.291015625 c 2,16,-1
 523.873046875 835.515625 l 1,17,18
 585.307617188 918.173828125 585.307617188 918.173828125 682.487304688 971.790039062 c 128,-1,19
 779.666015625 1025.40625 779.666015625 1025.40625 899.184570312 1025.40625 c 0,20,21
 1013.11914062 1025.40625 1013.11914062 1025.40625 1063.38378906 980.725585938 c 128,-1,22
 1113.64941406 936.045898438 1113.64941406 936.045898438 1113.64941406 877.961914062 c 0,23,24
 1113.64941406 836.6328125 1113.64941406 836.6328125 1086.28222656 809.266601562 c 128,-1,25
 1058.91601562 781.900390625 1058.91601562 781.900390625 1019.82128906 781.900390625 c 0,26,27
 949.450195312 781.900390625 949.450195312 781.900390625 925.993164062 851.154296875 c 0,28,29
 923.758789062 851.154296875 923.758789062 851.154296875 914.823242188 852.271484375 c 128,-1,30
 905.88671875 853.387695312 905.88671875 853.387695312 903.653320312 853.387695312 c 0,31,32
 748.389648438 853.387695312 748.389648438 853.387695312 636.131835938 733.310546875 c 128,-1,33
 523.873046875 613.233398438 523.873046875 613.233398438 523.873046875 395.41796875 c 2,34,-1
 523.873046875 172.017578125 l 1,35,-1
 781.900390625 172.017578125 l 2,36,37
 804.240234375 172.017578125 804.240234375 172.017578125 819.877929688 169.784179688 c 128,-1,38
 835.515625 167.549804688 835.515625 167.549804688 853.387695312 145.768554688 c 128,-1,39
 871.259765625 123.987304688 871.259765625 123.987304688 871.259765625 82.658203125 c 0,40,41
 871.259765625 0 871.259765625 0 779.666015625 0 c 2,42,-1
 141.859375 0 l 2,43,44
 102.763671875 0 102.763671875 0 80.982421875 17.3134765625 c 128,-1,45
 59.201171875 34.626953125 59.201171875 34.626953125 56.966796875 49.1484375 c 128,-1,46
 54.7333984375 63.6689453125 54.7333984375 63.6689453125 54.7333984375 91.59375 c 0,0,1
EndSplineSet
Validated: 524801
Substitution2: "Single Substitution lookup 74 subtable" r.alternate
Substitution2: "'fwid' Full Widths lookup 32 subtable" uniFF52
Substitution2: "'smcp' Lowercase to Small Capitals lookup 27 subtable" r.sc
AlternateSubs2: "'aalt' Access All Alternates lookup 1 subtable" r.sc uniFF52 r.alternate
EndChar

StartChar: s
Encoding: 115 115 44
Width: 1200
VWidth: 2287
GlyphClass: 2
Flags: W
LayerCount: 2
Fore
SplineSet
164.19921875 73.7216796875 m 2,0,-1
 164.19921875 294.887695312 l 2,1,2
 164.19921875 349.62109375 164.19921875 349.62109375 188.21484375 365.817382812 c 128,-1,3
 212.23046875 382.013671875 212.23046875 382.013671875 272.547851562 382.013671875 c 0,4,5
 327.28125 382.013671875 327.28125 382.013671875 347.38671875 345.153320312 c 0,6,7
 351.85546875 338.451171875 351.85546875 338.451171875 363.583984375 308.850585938 c 128,-1,8
 375.311523438 279.25 375.311523438 279.25 388.715820312 259.702148438 c 128,-1,9
 402.120117188 240.155273438 402.120117188 240.155273438 428.927734375 215.022460938 c 128,-1,10
 455.736328125 189.889648438 455.736328125 189.889648438 502.650390625 175.927734375 c 128,-1,11
 549.564453125 161.96484375 549.564453125 161.96484375 615.466796875 161.96484375 c 0,12,13
 866.791992188 161.96484375 866.791992188 161.96484375 866.791992188 297.122070312 c 0,14,15
 866.791992188 329.514648438 866.791992188 329.514648438 829.930664062 366.375976562 c 1,16,17
 779.666015625 407.705078125 779.666015625 407.705078125 664.615234375 426.694335938 c 128,-1,18
 549.564453125 445.682617188 549.564453125 445.682617188 428.927734375 474.724609375 c 128,-1,19
 308.291992188 503.766601562 308.291992188 503.766601562 237.920898438 571.904296875 c 0,20,21
 164.19921875 640.041015625 164.19921875 640.041015625 164.19921875 741.688476562 c 0,22,23
 164.19921875 855.622070312 164.19921875 855.622070312 260.260742188 942.748046875 c 128,-1,24
 356.323242188 1029.87402344 356.323242188 1029.87402344 604.296875 1029.87402344 c 0,25,26
 739.454101562 1029.87402344 739.454101562 1029.87402344 835.515625 990.779296875 c 1,27,28
 865.674804688 1029.87402344 865.674804688 1029.87402344 908.12109375 1029.87402344 c 0,29,30
 984.077148438 1029.87402344 984.077148438 1029.87402344 984.077148438 949.450195312 c 2,31,-1
 984.077148438 791.953125 l 2,32,33
 984.077148438 748.389648438 984.077148438 748.389648438 971.231445312 726.608398438 c 128,-1,34
 958.385742188 704.827148438 958.385742188 704.827148438 942.189453125 701.475585938 c 128,-1,35
 925.993164062 698.125 925.993164062 698.125 894.716796875 698.125 c 2,36,-1
 875.727539062 698.125 l 2,37,38
 829.930664062 698.125 829.930664062 698.125 812.05859375 713.762695312 c 128,-1,39
 794.186523438 729.401367188 794.186523438 729.401367188 791.953125 753.416015625 c 128,-1,40
 789.71875 777.431640625 789.71875 777.431640625 780.224609375 801.447265625 c 128,-1,41
 770.73046875 825.462890625 770.73046875 825.462890625 726.049804688 841.659179688 c 128,-1,42
 681.370117188 857.856445312 681.370117188 857.856445312 597.594726562 857.856445312 c 0,43,44
 348.50390625 857.856445312 348.50390625 857.856445312 347.38671875 752.858398438 c 0,45,46
 347.38671875 704.827148438 347.38671875 704.827148438 418.875 676.90234375 c 0,47,48
 466.90625 656.795898438 466.90625 656.795898438 585.866210938 640.599609375 c 128,-1,49
 704.827148438 624.403320312 704.827148438 624.403320312 812.05859375 590.334960938 c 128,-1,50
 919.291015625 556.265625 919.291015625 556.265625 986.310546875 478.076171875 c 0,51,52
 1049.98046875 402.120117188 1049.98046875 402.120117188 1049.98046875 306.057617188 c 0,53,54
 1049.98046875 251.325195312 1049.98046875 251.325195312 1031.54980469 202.176757812 c 128,-1,55
 1013.11914062 153.029296875 1013.11914062 153.029296875 969.555664062 102.763671875 c 128,-1,56
 925.993164062 52.4990234375 925.993164062 52.4990234375 834.95703125 21.78125 c 128,-1,57
 743.921875 -8.935546875 743.921875 -8.935546875 615.466796875 -8.935546875 c 0,58,59
 460.204101562 -8.935546875 460.204101562 -8.935546875 329.514648438 63.6689453125 c 1,60,61
 303.82421875 20.1064453125 303.82421875 20.1064453125 288.185546875 5.5849609375 c 128,-1,62
 272.547851562 -8.935546875 272.547851562 -8.935546875 237.920898438 -8.935546875 c 0,63,64
 164.19921875 -8.935546875 164.19921875 -8.935546875 164.19921875 73.7216796875 c 2,0,-1
EndSplineSet
Validated: 524801
Substitution2: "'fwid' Full Widths lookup 32 subtable" uniFF53
Substitution2: "'smcp' Lowercase to Small Capitals lookup 27 subtable" s.sc
Substitution2: "'sinf' Scientific Inferiors lookup 14 subtable" uni209B
Substitution2: "'subs' Subscript lookup 13 subtable" uni209B
AlternateSubs2: "'aalt' Access All Alternates lookup 1 subtable" uni209B s.sc uniFF53
EndChar

StartChar: t
Encoding: 116 116 45
Width: 1200
VWidth: 2287
GlyphClass: 2
Flags: W
LayerCount: 2
Fore
SplineSet
56.966796875 923.758789062 m 0,0,1
 56.966796875 1015.35253906 56.966796875 1015.35253906 144.092773438 1015.35253906 c 2,2,-1
 331.749023438 1015.35253906 l 1,3,-1
 331.749023438 1221.99804688 l 2,4,5
 331.749023438 1261.09277344 331.749023438 1261.09277344 350.1796875 1281.19921875 c 128,-1,6
 368.610351562 1301.3046875 368.610351562 1301.3046875 384.248046875 1303.5390625 c 128,-1,7
 399.885742188 1305.7734375 399.885742188 1305.7734375 427.810546875 1305.7734375 c 2,8,-1
 438.981445312 1305.7734375 l 2,9,10
 454.619140625 1305.7734375 454.619140625 1305.7734375 465.23046875 1303.5390625 c 128,-1,11
 475.841796875 1301.3046875 475.841796875 1301.3046875 492.038085938 1294.60253906 c 128,-1,12
 508.235351562 1287.90136719 508.235351562 1287.90136719 516.053710938 1269.47070312 c 128,-1,13
 523.873046875 1251.04003906 523.873046875 1251.04003906 523.873046875 1221.99804688 c 2,14,-1
 523.873046875 1015.35253906 l 1,15,-1
 894.716796875 1015.35253906 l 2,16,17
 979.609375 1015.35253906 979.609375 1015.35253906 979.609375 928.2265625 c 0,18,19
 979.609375 844.452148438 979.609375 844.452148438 901.418945312 844.452148438 c 0,20,21
 900.301757812 844.452148438 900.301757812 844.452148438 899.184570312 844.452148438 c 2,22,-1
 523.873046875 844.452148438 l 1,23,-1
 523.873046875 370.84375 l 2,24,25
 523.873046875 333.983398438 523.873046875 333.983398438 524.990234375 312.201171875 c 128,-1,26
 526.107421875 290.419921875 526.107421875 290.419921875 533.92578125 258.5859375 c 128,-1,27
 541.745117188 226.750976562 541.745117188 226.750976562 556.82421875 208.3203125 c 128,-1,28
 571.904296875 189.889648438 571.904296875 189.889648438 602.62109375 175.927734375 c 128,-1,29
 633.338867188 161.96484375 633.338867188 161.96484375 676.90234375 161.96484375 c 0,30,31
 727.166992188 161.96484375 727.166992188 161.96484375 781.900390625 205.528320312 c 1,32,33
 812.05859375 244.623046875 812.05859375 244.623046875 823.787109375 273.106445312 c 128,-1,34
 835.515625 301.58984375 835.515625 301.58984375 835.515625 326.72265625 c 128,-1,35
 835.515625 351.85546875 835.515625 351.85546875 839.984375 364.141601562 c 0,36,37
 855.622070312 416.640625 855.622070312 416.640625 928.2265625 416.640625 c 0,38,39
 1028.75683594 416.640625 1028.75683594 416.640625 1029.87402344 336.216796875 c 0,40,41
 1029.87402344 205.528320312 1029.87402344 205.528320312 919.849609375 98.2958984375 c 128,-1,42
 809.825195312 -8.935546875 809.825195312 -8.935546875 645.625976562 -8.935546875 c 0,43,44
 604.296875 -8.935546875 604.296875 -8.935546875 564.084960938 0 c 128,-1,45
 523.873046875 8.935546875 523.873046875 8.935546875 473.608398438 32.951171875 c 128,-1,46
 423.342773438 56.966796875 423.342773438 56.966796875 386.482421875 116.7265625 c 128,-1,47
 349.62109375 176.486328125 349.62109375 176.486328125 338.451171875 263.612304688 c 0,48,49
 331.749023438 320.579101562 331.749023438 320.579101562 331.749023438 377.545898438 c 2,50,-1
 331.749023438 844.452148438 l 1,51,-1
 144.092773438 844.452148438 l 2,52,53
 142.975585938 844.452148438 142.975585938 844.452148438 141.859375 844.452148438 c 0,54,55
 56.966796875 844.452148438 56.966796875 844.452148438 56.966796875 923.758789062 c 0,0,1
EndSplineSet
Validated: 524801
Substitution2: "'fwid' Full Widths lookup 32 subtable" uniFF54
Substitution2: "'smcp' Lowercase to Small Capitals lookup 27 subtable" t.sc
Substitution2: "'sinf' Scientific Inferiors lookup 14 subtable" uni209C
Substitution2: "'subs' Subscript lookup 13 subtable" uni209C
AlternateSubs2: "'aalt' Access All Alternates lookup 1 subtable" uni209C t.sc uniFF54
EndChar

StartChar: u
Encoding: 117 117 46
Width: 1200
VWidth: 2287
GlyphClass: 2
Flags: W
LayerCount: 2
Fore
SplineSet
8.935546875 928.78515625 m 128,-1,1
 8.935546875 1015.35253906 8.935546875 1015.35253906 87.1259765625 1015.35253906 c 2,2,-1
 311.642578125 1015.35253906 l 2,3,4
 352.971679688 1015.35253906 352.971679688 1015.35253906 373.078125 994.688476562 c 128,-1,5
 393.18359375 974.024414062 393.18359375 974.024414062 394.30078125 960.620117188 c 128,-1,6
 395.41796875 947.215820312 395.41796875 947.215820312 395.41796875 917.056640625 c 2,7,-1
 395.41796875 263.612304688 l 2,8,9
 395.41796875 228.985351562 395.41796875 228.985351562 402.678710938 210.5546875 c 128,-1,10
 409.939453125 192.124023438 409.939453125 192.124023438 446.241210938 177.044921875 c 128,-1,11
 482.543945312 161.96484375 482.543945312 161.96484375 558.5 161.96484375 c 0,12,13
 667.965820312 161.96484375 667.965820312 161.96484375 731.076171875 206.64453125 c 128,-1,14
 794.186523438 251.325195312 794.186523438 251.325195312 803.123046875 306.057617188 c 0,15,16
 805.357421875 323.9296875 805.357421875 323.9296875 805.357421875 359.673828125 c 2,17,-1
 805.357421875 844.452148438 l 1,18,-1
 698.125 844.452148438 l 2,19,20
 608.764648438 844.452148438 608.764648438 844.452148438 608.764648438 928.2265625 c 0,21,22
 608.764648438 1015.35253906 608.764648438 1015.35253906 698.125 1015.35253906 c 2,23,-1
 910.35546875 1015.35253906 l 2,24,25
 995.247070312 1015.35253906 995.247070312 1015.35253906 995.247070312 928.2265625 c 2,26,-1
 995.247070312 172.017578125 l 1,27,-1
 1102.47851562 172.017578125 l 2,28,29
 1143.80761719 172.017578125 1143.80761719 172.017578125 1164.47265625 153.587890625 c 128,-1,30
 1185.13671875 135.157226562 1185.13671875 135.157226562 1187.37109375 121.194335938 c 128,-1,31
 1189.60546875 107.232421875 1189.60546875 107.232421875 1189.60546875 87.1259765625 c 0,32,33
 1189.60546875 82.658203125 1189.60546875 82.658203125 1189.60546875 79.306640625 c 0,34,35
 1188.48828125 33.509765625 1188.48828125 33.509765625 1163.9140625 17.8720703125 c 0,36,37
 1137.10644531 0 1137.10644531 0 1098.01074219 0 c 2,38,-1
 892.483398438 0 l 2,39,40
 809.825195312 0 809.825195312 0 805.357421875 75.9560546875 c 1,41,42
 681.370117188 -8.935546875 681.370117188 -8.935546875 514.936523438 -8.935546875 c 0,43,44
 366.375976562 -8.935546875 366.375976562 -8.935546875 284.834960938 46.9140625 c 128,-1,45
 203.293945312 102.763671875 203.293945312 102.763671875 203.293945312 258.02734375 c 2,46,-1
 203.293945312 844.452148438 l 1,47,-1
 128.455078125 844.452148438 l 2,48,49
 126.220703125 844.452148438 126.220703125 844.452148438 117.84375 843.334960938 c 128,-1,50
 109.465820312 842.217773438 109.465820312 842.217773438 102.763671875 842.217773438 c 0,51,0
 8.935546875 842.217773438 8.935546875 842.217773438 8.935546875 928.78515625 c 128,-1,1
EndSplineSet
Validated: 524801
Substitution2: "'fwid' Full Widths lookup 32 subtable" uniFF55
Substitution2: "'smcp' Lowercase to Small Capitals lookup 27 subtable" u.sc
AlternateSubs2: "'aalt' Access All Alternates lookup 1 subtable" u.sc uniFF55
EndChar

StartChar: v
Encoding: 118 118 47
Width: 1200
VWidth: 2287
GlyphClass: 2
Flags: W
LayerCount: 2
Fore
SplineSet
52.4990234375 928.2265625 m 0,0,1
 52.4990234375 980.725585938 52.4990234375 980.725585938 75.3974609375 998.0390625 c 128,-1,2
 98.2958984375 1015.35253906 98.2958984375 1015.35253906 139.625 1015.35253906 c 2,3,-1
 441.21484375 1015.35253906 l 2,4,5
 480.309570312 1015.35253906 480.309570312 1015.35253906 507.118164062 998.59765625 c 0,6,7
 532.80859375 982.959960938 532.80859375 982.959960938 532.80859375 936.045898438 c 0,8,9
 532.80859375 932.6953125 532.80859375 932.6953125 532.80859375 928.2265625 c 0,10,11
 535.04296875 844.452148438 535.04296875 844.452148438 445.682617188 844.452148438 c 0,12,13
 444.56640625 844.452148438 444.56640625 844.452148438 443.44921875 844.452148438 c 2,14,-1
 382.013671875 844.452148438 l 1,15,-1
 599.829101562 157.497070312 l 1,16,-1
 814.29296875 844.452148438 l 1,17,-1
 752.858398438 844.452148438 l 2,18,19
 663.498046875 844.452148438 663.498046875 844.452148438 663.498046875 923.758789062 c 0,20,21
 663.498046875 951.68359375 663.498046875 951.68359375 666.848632812 967.880859375 c 128,-1,22
 670.200195312 984.077148438 670.200195312 984.077148438 691.981445312 999.71484375 c 128,-1,23
 713.762695312 1015.35253906 713.762695312 1015.35253906 755.091796875 1015.35253906 c 2,24,-1
 1056.68164062 1015.35253906 l 2,25,26
 1100.24511719 1015.35253906 1100.24511719 1015.35253906 1122.02636719 997.481445312 c 128,-1,27
 1143.80761719 979.609375 1143.80761719 979.609375 1143.80761719 928.2265625 c 0,28,29
 1143.80761719 844.452148438 1143.80761719 844.452148438 1061.15039062 844.452148438 c 0,30,31
 1060.03320312 844.452148438 1060.03320312 844.452148438 1058.91601562 844.452148438 c 2,32,-1
 976.2578125 844.452148438 l 1,33,34
 967.322265625 809.825195312 967.322265625 809.825195312 951.68359375 766.26171875 c 2,35,-1
 736.102539062 82.658203125 l 2,36,37
 708.177734375 -6.7021484375 708.177734375 -6.7021484375 619.934570312 -6.7021484375 c 2,38,-1
 576.372070312 -6.7021484375 l 2,39,40
 487.01171875 -6.7021484375 487.01171875 -6.7021484375 460.204101562 75.9560546875 c 2,41,-1
 244.623046875 759.559570312 l 2,42,43
 228.985351562 807.590820312 228.985351562 807.590820312 220.048828125 844.452148438 c 1,44,-1
 141.859375 844.452148438 l 2,45,46
 140.7421875 844.452148438 140.7421875 844.452148438 139.625 844.452148438 c 0,47,48
 52.4990234375 844.452148438 52.4990234375 844.452148438 52.4990234375 928.2265625 c 0,0,1
EndSplineSet
Validated: 524833
Substitution2: "'fwid' Full Widths lookup 32 subtable" uniFF56
Substitution2: "'smcp' Lowercase to Small Capitals lookup 27 subtable" v.sc
AlternateSubs2: "'aalt' Access All Alternates lookup 1 subtable" v.sc uniFF56
EndChar

StartChar: w
Encoding: 119 119 48
Width: 1200
VWidth: 2287
GlyphClass: 2
Flags: W
LayerCount: 2
Fore
SplineSet
34.626953125 936.045898438 m 0,0,1
 34.626953125 1015.35253906 34.626953125 1015.35253906 116.16796875 1015.35253906 c 0,2,3
 117.28515625 1015.35253906 117.28515625 1015.35253906 118.40234375 1015.35253906 c 2,4,-1
 432.279296875 1015.35253906 l 2,5,6
 519.405273438 1015.35253906 519.405273438 1015.35253906 519.405273438 936.045898438 c 0,7,8
 519.405273438 932.6953125 519.405273438 932.6953125 519.405273438 928.2265625 c 0,9,10
 519.405273438 889.131835938 519.405273438 889.131835938 503.208984375 870.142578125 c 128,-1,11
 487.01171875 851.154296875 487.01171875 851.154296875 471.374023438 847.802734375 c 128,-1,12
 455.736328125 844.452148438 455.736328125 844.452148438 430.044921875 844.452148438 c 2,13,-1
 313.876953125 844.452148438 l 1,14,-1
 402.120117188 253.55859375 l 1,15,-1
 409.939453125 203.293945312 l 1,16,-1
 412.172851562 159.731445312 l 1,17,18
 414.407226562 246.857421875 414.407226562 246.857421875 484.778320312 510.46875 c 0,19,20
 495.948242188 556.265625 495.948242188 556.265625 516.612304688 579.1640625 c 128,-1,21
 537.27734375 602.063476562 537.27734375 602.063476562 554.590820312 606.53125 c 128,-1,22
 571.904296875 610.999023438 571.904296875 610.999023438 602.063476562 610.999023438 c 2,23,-1
 615.466796875 610.999023438 l 2,24,25
 633.338867188 610.999023438 633.338867188 610.999023438 647.301757812 607.6484375 c 128,-1,26
 661.263671875 604.296875 661.263671875 604.296875 671.317382812 600.946289062 c 128,-1,27
 681.370117188 597.594726562 681.370117188 597.594726562 690.864257812 586.983398438 c 128,-1,28
 700.359375 576.372070312 700.359375 576.372070312 704.827148438 570.787109375 c 128,-1,29
 709.294921875 565.202148438 709.294921875 565.202148438 715.997070312 549.005859375 c 128,-1,30
 722.69921875 532.80859375 722.69921875 532.80859375 723.81640625 527.223632812 c 128,-1,31
 724.932617188 521.638671875 724.932617188 521.638671875 730.517578125 499.857421875 c 128,-1,32
 736.102539062 478.076171875 736.102539062 478.076171875 739.454101562 473.608398438 c 0,33,34
 783.016601562 301.58984375 783.016601562 301.58984375 791.953125 159.731445312 c 1,35,36
 796.420898438 244.623046875 796.420898438 244.623046875 808.708007812 341.801757812 c 128,-1,37
 820.995117188 438.981445312 820.995117188 438.981445312 831.606445312 505.442382812 c 128,-1,38
 842.217773438 571.904296875 842.217773438 571.904296875 858.97265625 680.811523438 c 128,-1,39
 875.727539062 789.71875 875.727539062 789.71875 885.78125 844.452148438 c 1,40,-1
 766.26171875 844.452148438 l 2,41,42
 740.571289062 844.452148438 740.571289062 844.452148438 724.932617188 847.802734375 c 128,-1,43
 709.294921875 851.154296875 709.294921875 851.154296875 694.215820312 872.935546875 c 128,-1,44
 679.135742188 894.716796875 679.135742188 894.716796875 679.135742188 933.811523438 c 0,45,46
 679.135742188 1015.35253906 679.135742188 1015.35253906 764.028320312 1015.35253906 c 0,47,48
 765.14453125 1015.35253906 765.14453125 1015.35253906 766.26171875 1015.35253906 c 2,49,-1
 1077.90527344 1015.35253906 l 2,50,51
 1163.9140625 1015.35253906 1163.9140625 1015.35253906 1163.9140625 928.2265625 c 0,52,53
 1163.9140625 844.452148438 1163.9140625 844.452148438 1077.90527344 844.452148438 c 0,54,55
 1076.78808594 844.452148438 1076.78808594 844.452148438 1075.67089844 844.452148438 c 2,56,-1
 1043.27832031 844.452148438 l 1,57,58
 1036.57617188 794.186523438 1036.57617188 794.186523438 1017.58691406 693.657226562 c 2,59,-1
 917.056640625 80.423828125 l 2,60,61
 908.12109375 32.392578125 908.12109375 32.392578125 884.10546875 12.845703125 c 128,-1,62
 860.08984375 -6.7021484375 860.08984375 -6.7021484375 816.52734375 -6.7021484375 c 2,63,-1
 781.900390625 -6.7021484375 l 2,64,65
 764.028320312 -6.7021484375 764.028320312 -6.7021484375 748.948242188 -3.3505859375 c 128,-1,66
 733.869140625 0 733.869140625 0 723.81640625 3.3505859375 c 128,-1,67
 713.762695312 6.7021484375 713.762695312 6.7021484375 704.827148438 18.4306640625 c 128,-1,68
 695.890625 30.1591796875 695.890625 30.1591796875 690.864257812 36.861328125 c 128,-1,69
 685.837890625 43.5634765625 685.837890625 43.5634765625 679.135742188 61.9931640625 c 128,-1,70
 672.43359375 80.423828125 672.43359375 80.423828125 670.200195312 87.1259765625 c 128,-1,71
 667.965820312 93.828125 667.965820312 93.828125 662.380859375 118.9609375 c 128,-1,72
 656.795898438 144.092773438 656.795898438 144.092773438 654.561523438 153.029296875 c 0,73,74
 610.999023438 327.28125 610.999023438 327.28125 606.53125 450.151367188 c 1,75,76
 606.53125 349.62109375 606.53125 349.62109375 573.021484375 205.528320312 c 128,-1,77
 539.510742188 61.4345703125 539.510742188 61.4345703125 521.638671875 34.626953125 c 0,78,79
 491.48046875 -6.7021484375 491.48046875 -6.7021484375 432.279296875 -6.7021484375 c 2,80,-1
 384.248046875 -6.7021484375 l 2,81,82
 294.887695312 -6.7021484375 294.887695312 -6.7021484375 281.484375 80.423828125 c 2,83,-1
 180.954101562 693.657226562 l 2,84,85
 163.08203125 794.186523438 163.08203125 794.186523438 155.262695312 844.452148438 c 1,86,-1
 121.752929688 844.452148438 l 2,87,88
 99.4130859375 844.452148438 99.4130859375 844.452148438 84.8916015625 846.685546875 c 128,-1,89
 70.37109375 848.919921875 70.37109375 848.919921875 52.4990234375 871.818359375 c 128,-1,90
 34.626953125 894.716796875 34.626953125 894.716796875 34.626953125 936.045898438 c 0,0,1
EndSplineSet
Validated: 524801
Substitution2: "'fwid' Full Widths lookup 32 subtable" uniFF57
Substitution2: "'smcp' Lowercase to Small Capitals lookup 27 subtable" w.sc
AlternateSubs2: "'aalt' Access All Alternates lookup 1 subtable" w.sc uniFF57
EndChar

StartChar: x
Encoding: 120 120 49
Width: 1200
VWidth: 2287
GlyphClass: 2
Flags: W
LayerCount: 2
Fore
SplineSet
61.4345703125 89.3603515625 m 0,0,1
 61.4345703125 172.017578125 61.4345703125 172.017578125 150.794921875 172.017578125 c 2,2,-1
 233.453125 172.017578125 l 2,3,4
 246.857421875 172.017578125 246.857421875 172.017578125 255.234375 175.369140625 c 128,-1,5
 263.612304688 178.719726562 263.612304688 178.719726562 266.962890625 180.954101562 c 128,-1,6
 270.314453125 183.188476562 270.314453125 183.188476562 279.25 196.591796875 c 128,-1,7
 288.185546875 209.99609375 288.185546875 209.99609375 294.887695312 217.815429688 c 0,8,9
 370.84375 322.813476562 370.84375 322.813476562 423.342773438 394.859375 c 128,-1,10
 475.841796875 466.90625 475.841796875 466.90625 492.038085938 489.8046875 c 128,-1,11
 508.235351562 512.703125 508.235351562 512.703125 517.170898438 523.873046875 c 1,12,-1
 517.170898438 526.107421875 l 1,13,-1
 279.25 844.452148438 l 1,14,-1
 167.549804688 844.452148438 l 2,15,16
 75.9560546875 844.452148438 75.9560546875 844.452148438 75.9560546875 923.758789062 c 0,17,18
 75.9560546875 949.450195312 75.9560546875 949.450195312 78.1904296875 964.529296875 c 128,-1,19
 80.423828125 979.609375 80.423828125 979.609375 102.205078125 997.481445312 c 128,-1,20
 123.987304688 1015.35253906 123.987304688 1015.35253906 161.96484375 1015.35253906 c 2,21,-1
 473.608398438 1015.35253906 l 2,22,23
 558.5 1015.35253906 558.5 1015.35253906 558.5 931.578125 c 0,24,25
 558.5 892.483398438 558.5 892.483398438 542.303710938 871.818359375 c 128,-1,26
 526.107421875 851.154296875 526.107421875 851.154296875 509.91015625 847.802734375 c 128,-1,27
 493.713867188 844.452148438 493.713867188 844.452148438 471.374023438 844.452148438 c 2,28,-1
 462.438476562 844.452148438 l 1,29,-1
 594.244140625 661.263671875 l 1,30,-1
 718.231445312 844.452148438 l 1,31,32
 654.561523438 844.452148438 654.561523438 844.452148438 637.248046875 867.350585938 c 128,-1,33
 619.934570312 890.249023438 619.934570312 890.249023438 619.934570312 931.578125 c 0,34,35
 619.934570312 1015.35253906 619.934570312 1015.35253906 702.592773438 1015.35253906 c 0,36,37
 703.709960938 1015.35253906 703.709960938 1015.35253906 704.827148438 1015.35253906 c 2,38,-1
 1013.11914062 1015.35253906 l 2,39,40
 1102.47851562 1015.35253906 1102.47851562 1015.35253906 1102.47851562 928.2265625 c 0,41,42
 1104.71289062 844.452148438 1104.71289062 844.452148438 1015.35253906 844.452148438 c 0,43,44
 1014.23632812 844.452148438 1014.23632812 844.452148438 1013.11914062 844.452148438 c 2,45,-1
 928.2265625 844.452148438 l 2,46,47
 919.291015625 844.452148438 919.291015625 844.452148438 912.588867188 843.334960938 c 128,-1,48
 905.88671875 842.217773438 905.88671875 842.217773438 900.301757812 837.19140625 c 128,-1,49
 894.716796875 832.165039062 894.716796875 832.165039062 891.366210938 829.930664062 c 128,-1,50
 888.014648438 827.697265625 888.014648438 827.697265625 880.754882812 817.643554688 c 128,-1,51
 873.494140625 807.590820312 873.494140625 807.590820312 871.259765625 803.123046875 c 2,52,-1
 667.965820312 526.107421875 l 1,53,54
 681.370117188 506.000976562 681.370117188 506.000976562 800.330078125 346.828125 c 128,-1,55
 919.291015625 187.65625 919.291015625 187.65625 928.2265625 180.954101562 c 0,56,57
 939.397460938 172.017578125 939.397460938 172.017578125 960.620117188 172.017578125 c 2,58,-1
 1029.87402344 172.017578125 l 1,59,-1
 1034.34179688 174.251953125 l 2,60,61
 1041.04394531 174.251953125 1041.04394531 174.251953125 1045.51171875 174.251953125 c 0,62,63
 1132.63769531 174.251953125 1132.63769531 174.251953125 1132.63769531 84.8916015625 c 0,64,65
 1132.63769531 0 1132.63769531 0 1045.51171875 0 c 2,66,-1
 731.634765625 0 l 2,67,68
 650.09375 0 650.09375 0 650.09375 82.658203125 c 0,69,70
 650.09375 141.859375 650.09375 141.859375 675.2265625 156.938476562 c 128,-1,71
 700.359375 172.017578125 700.359375 172.017578125 743.921875 172.017578125 c 2,72,-1
 755.091796875 172.017578125 l 1,73,-1
 592.009765625 414.407226562 l 1,74,-1
 436.747070312 172.017578125 l 1,75,-1
 455.736328125 172.017578125 l 2,76,77
 543.978515625 172.017578125 543.978515625 172.017578125 543.978515625 87.1259765625 c 0,78,79
 543.978515625 0 543.978515625 0 460.204101562 0 c 2,80,-1
 148.560546875 0 l 2,81,82
 61.4345703125 0 61.4345703125 0 61.4345703125 89.3603515625 c 0,0,1
EndSplineSet
Validated: 524833
Substitution2: "'fwid' Full Widths lookup 32 subtable" uniFF58
Substitution2: "'smcp' Lowercase to Small Capitals lookup 27 subtable" x.sc
Substitution2: "'sinf' Scientific Inferiors lookup 14 subtable" uni2093
Substitution2: "'subs' Subscript lookup 13 subtable" uni2093
AlternateSubs2: "'aalt' Access All Alternates lookup 1 subtable" uni2093 x.sc uniFF58
EndChar

StartChar: y
Encoding: 121 121 50
Width: 1200
VWidth: 2287
GlyphClass: 2
Flags: W
LayerCount: 2
Fore
SplineSet
59.201171875 928.2265625 m 0,0,1
 59.201171875 1015.35253906 59.201171875 1015.35253906 146.327148438 1015.35253906 c 2,2,-1
 447.916992188 1015.35253906 l 2,3,4
 539.510742188 1015.35253906 539.510742188 1015.35253906 539.510742188 928.2265625 c 0,5,6
 539.510742188 844.452148438 539.510742188 844.452148438 450.151367188 844.452148438 c 0,7,8
 449.034179688 844.452148438 449.034179688 844.452148438 447.916992188 844.452148438 c 2,9,-1
 397.65234375 844.452148438 l 1,10,-1
 543.978515625 438.981445312 l 1,11,-1
 585.307617188 311.642578125 l 1,12,-1
 615.466796875 207.76171875 l 1,13,-1
 624.403320312 159.731445312 l 1,14,15
 626.63671875 196.591796875 626.63671875 196.591796875 651.76953125 293.771484375 c 128,-1,16
 676.90234375 390.950195312 676.90234375 390.950195312 703.151367188 478.076171875 c 128,-1,17
 729.401367188 565.202148438 729.401367188 565.202148438 768.49609375 688.630859375 c 128,-1,18
 807.590820312 812.05859375 807.590820312 812.05859375 816.52734375 844.452148438 c 1,19,-1
 757.326171875 844.452148438 l 2,20,21
 665.732421875 844.452148438 665.732421875 844.452148438 665.732421875 931.578125 c 0,22,23
 665.732421875 984.077148438 665.732421875 984.077148438 689.747070312 999.71484375 c 128,-1,24
 713.762695312 1015.35253906 713.762695312 1015.35253906 757.326171875 1015.35253906 c 2,25,-1
 1058.91601562 1015.35253906 l 2,26,27
 1081.25585938 1015.35253906 1081.25585938 1015.35253906 1097.45214844 1012.00195312 c 128,-1,28
 1113.64941406 1008.65136719 1113.64941406 1008.65136719 1129.84570312 987.986328125 c 128,-1,29
 1146.04199219 967.322265625 1146.04199219 967.322265625 1146.04199219 928.2265625 c 0,30,31
 1146.04199219 844.452148438 1146.04199219 844.452148438 1063.38378906 844.452148438 c 0,32,33
 1062.26660156 844.452148438 1062.26660156 844.452148438 1061.15039062 844.452148438 c 2,34,-1
 976.2578125 844.452148438 l 1,35,36
 969.555664062 824.345703125 969.555664062 824.345703125 958.385742188 785.250976562 c 128,-1,37
 947.215820312 746.15625 947.215820312 746.15625 940.513671875 727.166992188 c 2,38,-1
 670.200195312 -126.220703125 l 2,39,40
 546.212890625 -517.170898438 546.212890625 -517.170898438 288.185546875 -517.170898438 c 0,41,42
 196.591796875 -517.170898438 196.591796875 -517.170898438 146.327148438 -459.645507812 c 128,-1,43
 96.0615234375 -402.120117188 96.0615234375 -402.120117188 96.0615234375 -338.451171875 c 0,44,45
 96.0615234375 -285.952148438 96.0615234375 -285.952148438 126.779296875 -263.053710938 c 128,-1,46
 157.497070312 -240.155273438 157.497070312 -240.155273438 192.124023438 -240.155273438 c 0,47,48
 228.985351562 -240.155273438 228.985351562 -240.155273438 257.46875 -264.170898438 c 128,-1,49
 285.952148438 -288.185546875 285.952148438 -288.185546875 285.952148438 -322.813476562 c 0,50,51
 285.952148438 -338.451171875 285.952148438 -338.451171875 283.717773438 -345.153320312 c 1,52,53
 322.813476562 -342.918945312 322.813476562 -342.918945312 353.530273438 -332.866210938 c 128,-1,54
 384.248046875 -322.813476562 384.248046875 -322.813476562 408.263671875 -301.03125 c 128,-1,55
 432.279296875 -279.25 432.279296875 -279.25 448.475585938 -260.819335938 c 128,-1,56
 464.671875 -242.388671875 464.671875 -242.388671875 479.193359375 -206.086914062 c 128,-1,57
 493.713867188 -169.784179688 493.713867188 -169.784179688 500.974609375 -152.470703125 c 128,-1,58
 508.235351562 -135.157226562 508.235351562 -135.157226562 520.522460938 -92.7109375 c 128,-1,59
 532.80859375 -50.2646484375 532.80859375 -50.2646484375 535.04296875 -41.3291015625 c 0,60,61
 543.978515625 -15.6376953125 543.978515625 -15.6376953125 543.978515625 -2.234375 c 0,62,63
 543.978515625 8.935546875 543.978515625 8.935546875 535.04296875 34.626953125 c 2,64,-1
 263.612304688 761.793945312 l 2,65,66
 259.143554688 775.198242188 259.143554688 775.198242188 247.415039062 802.564453125 c 128,-1,67
 235.686523438 829.930664062 235.686523438 829.930664062 231.21875 844.452148438 c 1,68,-1
 150.794921875 844.452148438 l 2,69,70
 125.103515625 844.452148438 125.103515625 844.452148438 110.583007812 846.685546875 c 128,-1,71
 96.0615234375 848.919921875 96.0615234375 848.919921875 77.6318359375 869.026367188 c 128,-1,72
 59.201171875 889.131835938 59.201171875 889.131835938 59.201171875 928.2265625 c 0,0,1
EndSplineSet
Validated: 524801
Substitution2: "'fwid' Full Widths lookup 32 subtable" uniFF59
Substitution2: "'smcp' Lowercase to Small Capitals lookup 27 subtable" y.sc
AlternateSubs2: "'aalt' Access All Alternates lookup 1 subtable" y.sc uniFF59
EndChar

StartChar: z
Encoding: 122 122 51
Width: 1200
VWidth: 2287
GlyphClass: 2
Flags: W
LayerCount: 2
Fore
SplineSet
73.7216796875 89.3603515625 m 0,0,1
 73.7216796875 119.518554688 73.7216796875 119.518554688 79.306640625 136.274414062 c 128,-1,2
 84.8916015625 153.029296875 84.8916015625 153.029296875 89.3603515625 158.614257812 c 128,-1,3
 93.828125 164.19921875 93.828125 164.19921875 111.700195312 183.188476562 c 2,4,-1
 787.485351562 844.452148438 l 1,5,-1
 301.58984375 844.452148438 l 1,6,-1
 301.58984375 779.666015625 l 2,7,8
 301.58984375 738.336914062 301.58984375 738.336914062 285.952148438 717.114257812 c 128,-1,9
 270.314453125 695.890625 270.314453125 695.890625 254.1171875 691.981445312 c 128,-1,10
 237.920898438 688.072265625 237.920898438 688.072265625 207.76171875 688.072265625 c 2,11,-1
 201.059570312 688.072265625 l 2,12,13
 166.432617188 688.072265625 166.432617188 688.072265625 146.327148438 696.44921875 c 128,-1,14
 126.220703125 704.827148438 126.220703125 704.827148438 118.9609375 725.491210938 c 128,-1,15
 111.700195312 746.15625 111.700195312 746.15625 110.583007812 755.091796875 c 128,-1,16
 109.465820312 764.028320312 109.465820312 764.028320312 109.465820312 789.71875 c 2,17,-1
 109.465820312 912.588867188 l 2,18,19
 109.465820312 938.280273438 109.465820312 938.280273438 110.583007812 949.450195312 c 128,-1,20
 111.700195312 960.620117188 111.700195312 960.620117188 118.9609375 979.05078125 c 128,-1,21
 126.220703125 997.481445312 126.220703125 997.481445312 146.885742188 1006.41699219 c 128,-1,22
 167.549804688 1015.35253906 167.549804688 1015.35253906 198.826171875 1015.35253906 c 2,23,-1
 990.779296875 1015.35253906 l 2,24,25
 1029.87402344 1015.35253906 1029.87402344 1015.35253906 1049.98046875 999.71484375 c 128,-1,26
 1070.0859375 984.077148438 1070.0859375 984.077148438 1073.99511719 967.880859375 c 128,-1,27
 1077.90527344 951.68359375 1077.90527344 951.68359375 1077.90527344 925.993164062 c 0,28,29
 1077.90527344 905.88671875 1077.90527344 905.88671875 1076.78808594 893.041015625 c 128,-1,30
 1075.67089844 880.196289062 1075.67089844 880.196289062 1067.29394531 867.909179688 c 128,-1,31
 1058.91601562 855.622070312 1058.91601562 855.622070312 1054.44824219 850.037109375 c 128,-1,32
 1049.98046875 844.452148438 1049.98046875 844.452148438 1032.66601562 828.255859375 c 128,-1,33
 1015.35253906 812.05859375 1015.35253906 812.05859375 1006.41699219 803.123046875 c 2,34,-1
 366.375976562 172.017578125 l 1,35,-1
 894.716796875 172.017578125 l 1,36,-1
 894.716796875 263.612304688 l 2,37,38
 894.716796875 293.771484375 894.716796875 293.771484375 898.068359375 308.291992188 c 128,-1,39
 901.418945312 322.813476562 901.418945312 322.813476562 924.317382812 337.333984375 c 128,-1,40
 947.215820312 351.85546875 947.215820312 351.85546875 990.779296875 351.85546875 c 0,41,42
 1018.70410156 351.85546875 1018.70410156 351.85546875 1034.34179688 349.62109375 c 128,-1,43
 1049.98046875 347.38671875 1049.98046875 347.38671875 1068.41015625 326.72265625 c 128,-1,44
 1086.84082031 306.057617188 1086.84082031 306.057617188 1086.84082031 268.080078125 c 0,45,46
 1086.84082031 265.845703125 1086.84082031 265.845703125 1085.72363281 258.5859375 c 128,-1,47
 1084.60742188 251.325195312 1084.60742188 251.325195312 1084.60742188 249.090820312 c 2,48,-1
 1084.60742188 107.232421875 l 2,49,50
 1084.60742188 104.998046875 1084.60742188 104.998046875 1085.72363281 98.2958984375 c 128,-1,51
 1086.84082031 91.59375 1086.84082031 91.59375 1086.84082031 87.1259765625 c 0,52,53
 1086.84082031 0 1086.84082031 0 997.481445312 0 c 2,54,-1
 155.262695312 0 l 2,55,56
 73.7216796875 2.234375 73.7216796875 2.234375 73.7216796875 89.3603515625 c 0,0,1
EndSplineSet
Validated: 524801
Substitution2: "'fwid' Full Widths lookup 32 subtable" uniFF5A
Substitution2: "'smcp' Lowercase to Small Capitals lookup 27 subtable" z.sc
AlternateSubs2: "'aalt' Access All Alternates lookup 1 subtable" z.sc uniFF5A
EndChar

StartChar: Alpha
Encoding: 913 913 52
Width: 1200
VWidth: 2287
GlyphClass: 2
Flags: W
LayerCount: 2
Fore
SplineSet
61.4345703125 87.1259765625 m 0,0,1
 61.4345703125 172.017578125 61.4345703125 172.017578125 148.560546875 172.017578125 c 2,2,3
 148.560546875 172.017578125 148.560546875 172.017578125 201.059570312 172.017578125 c 1,4,-1
 455.736328125 1381.72851562 l 2,5,6
 462.438476562 1411.88769531 462.438476562 1411.88769531 468.0234375 1427.52636719 c 128,-1,7
 473.608398438 1443.1640625 473.608398438 1443.1640625 497.623046875 1461.59472656 c 128,-1,8
 521.638671875 1480.02539062 521.638671875 1480.02539062 560.734375 1480.02539062 c 2,9,-1
 640.041015625 1480.02539062 l 2,10,11
 662.380859375 1480.02539062 662.380859375 1480.02539062 679.135742188 1473.32324219 c 128,-1,12
 695.890625 1466.62109375 695.890625 1466.62109375 705.944335938 1459.36035156 c 128,-1,13
 715.997070312 1452.09960938 715.997070312 1452.09960938 723.81640625 1436.46191406 c 128,-1,14
 731.634765625 1420.82421875 731.634765625 1420.82421875 733.869140625 1411.32910156 c 128,-1,15
 736.102539062 1401.83496094 736.102539062 1401.83496094 741.129882812 1382.84570312 c 128,-1,16
 746.15625 1363.85742188 746.15625 1363.85742188 746.15625 1359.38867188 c 2,17,-1
 997.481445312 172.017578125 l 1,18,-1
 1047.74609375 172.017578125 l 2,19,20
 1137.10644531 172.017578125 1137.10644531 172.017578125 1137.10644531 91.59375 c 0,21,22
 1137.10644531 0 1137.10644531 0 1047.74609375 0 c 2,23,-1
 766.26171875 0 l 2,24,25
 674.66796875 0 674.66796875 0 674.66796875 87.1259765625 c 0,26,27
 674.66796875 107.232421875 674.66796875 107.232421875 676.90234375 121.194335938 c 128,-1,28
 679.135742188 135.157226562 679.135742188 135.157226562 700.91796875 153.587890625 c 128,-1,29
 722.69921875 172.017578125 722.69921875 172.017578125 764.028320312 172.017578125 c 2,30,-1
 800.888671875 172.017578125 l 1,31,-1
 759.559570312 370.84375 l 1,32,-1
 438.981445312 370.84375 l 1,33,-1
 436.747070312 368.610351562 l 1,34,-1
 397.65234375 172.017578125 l 1,35,-1
 436.747070312 172.017578125 l 2,36,37
 523.873046875 172.017578125 523.873046875 172.017578125 523.873046875 87.1259765625 c 0,38,39
 523.873046875 64.7861328125 523.873046875 64.7861328125 520.522460938 49.7060546875 c 128,-1,40
 517.170898438 34.626953125 517.170898438 34.626953125 495.389648438 17.3134765625 c 128,-1,41
 473.608398438 0 473.608398438 0 432.279296875 0 c 2,42,-1
 148.560546875 0 l 2,43,44
 61.4345703125 0 61.4345703125 0 61.4345703125 87.1259765625 c 0,0,1
473.608398438 541.745117188 m 1,45,-1
 724.932617188 541.745117188 l 1,46,47
 603.1796875 1141.57421875 603.1796875 1141.57421875 599.829101562 1301.3046875 c 1,48,49
 578.606445312 1070.0859375 578.606445312 1070.0859375 473.608398438 541.745117188 c 1,45,-1
EndSplineSet
Validated: 524289
EndChar

StartChar: Beta
Encoding: 914 914 53
Width: 1200
VWidth: 2287
GlyphClass: 2
Flags: W
LayerCount: 2
Fore
SplineSet
36.861328125 91.59375 m 0,0,1
 36.861328125 172.017578125 36.861328125 172.017578125 121.752929688 172.017578125 c 2,2,-1
 192.124023438 172.017578125 l 1,3,-1
 192.124023438 1287.90136719 l 1,4,-1
 130.689453125 1287.90136719 l 2,5,6
 71.48828125 1287.90136719 71.48828125 1287.90136719 54.1748046875 1310.79980469 c 128,-1,7
 36.861328125 1333.69824219 36.861328125 1333.69824219 36.861328125 1372.79296875 c 0,8,9
 36.861328125 1462.15332031 36.861328125 1462.15332031 121.752929688 1462.15332031 c 2,10,-1
 656.795898438 1462.15332031 l 2,11,12
 768.49609375 1462.15332031 768.49609375 1462.15332031 851.154296875 1425.29199219 c 128,-1,13
 933.811523438 1388.43066406 933.811523438 1388.43066406 975.69921875 1329.23046875 c 128,-1,14
 1017.58691406 1270.02929688 1017.58691406 1270.02929688 1036.01757812 1210.26953125 c 128,-1,15
 1054.44824219 1150.50976562 1054.44824219 1150.50976562 1054.44824219 1086.84082031 c 0,16,17
 1054.44824219 855.622070312 1054.44824219 855.622070312 827.697265625 766.26171875 c 1,18,19
 969.555664062 731.634765625 969.555664062 731.634765625 1036.01757812 631.10546875 c 128,-1,20
 1102.47851562 530.575195312 1102.47851562 530.575195312 1102.47851562 402.120117188 c 0,21,22
 1102.47851562 331.749023438 1102.47851562 331.749023438 1082.93164062 265.287109375 c 128,-1,23
 1063.38378906 198.826171875 1063.38378906 198.826171875 1021.49609375 137.390625 c 128,-1,24
 979.609375 75.9560546875 979.609375 75.9560546875 894.716796875 37.9775390625 c 128,-1,25
 809.825195312 0 809.825195312 0 693.657226562 0 c 2,26,-1
 121.752929688 0 l 2,27,28
 36.861328125 2.234375 36.861328125 2.234375 36.861328125 91.59375 c 0,0,1
384.248046875 172.017578125 m 1,29,-1
 654.561523438 172.017578125 l 2,30,31
 794.186523438 172.017578125 794.186523438 172.017578125 852.271484375 241.830078125 c 128,-1,32
 910.35546875 311.642578125 910.35546875 311.642578125 910.35546875 409.939453125 c 0,33,34
 910.35546875 519.405273438 910.35546875 519.405273438 856.739257812 597.036132812 c 128,-1,35
 803.123046875 674.66796875 803.123046875 674.66796875 672.43359375 674.66796875 c 2,36,-1
 384.248046875 674.66796875 l 1,37,-1
 384.248046875 172.017578125 l 1,29,-1
384.248046875 846.685546875 m 1,38,-1
 619.934570312 846.685546875 l 2,39,40
 752.858398438 846.685546875 752.858398438 846.685546875 808.708007812 919.849609375 c 128,-1,41
 864.557617188 993.012695312 864.557617188 993.012695312 864.557617188 1084.60742188 c 0,42,43
 864.557617188 1169.49902344 864.557617188 1169.49902344 816.52734375 1228.70019531 c 128,-1,44
 768.49609375 1287.90136719 768.49609375 1287.90136719 654.561523438 1287.90136719 c 2,45,-1
 384.248046875 1287.90136719 l 1,46,-1
 384.248046875 846.685546875 l 1,38,-1
EndSplineSet
Validated: 524289
EndChar

